<?xml version="1.0" encoding="UTF-8" standalone="no"?><svg xmlns="http://www.w3.org/2000/svg" xmlns:xlink="http://www.w3.org/1999/xlink" contentScriptType="application/ecmascript" contentStyleType="text/css" height="156px" preserveAspectRatio="none" style="width:1040px;height:156px;" version="1.1" viewBox="0 0 1040 156" width="1040px" zoomAndPan="magnify"><defs><filter height="300%" id="f159zxyiq7y3kt" width="300%" x="-1" y="-1"><feGaussianBlur result="blurOut" stdDeviation="2.0"/><feColorMatrix in="blurOut" result="blurOut2" type="matrix" values="0 0 0 0 0 0 0 0 0 0 0 0 0 0 0 0 0 0 .4 0"/><feOffset dx="4.0" dy="4.0" in="blurOut2" result="blurOut3"/><feBlend in="SourceGraphic" in2="blurOut3" mode="normal"/></filter></defs><g><!--entity scope--><rect fill="#FEFECE" filter="url(#f159zxyiq7y3kt)" height="39.2969" style="stroke: #000000; stroke-width: 1.5;" width="73" x="462.75" y="8.5"/><polygon fill="#FEFECE" points="518.75,13.5,518.75,27.5,530.75,27.5,530.75,19.5,524.75,13.5,518.75,13.5" style="stroke: #000000; stroke-width: 1.5;"/><line style="stroke: #000000; stroke-width: 1.5;" x1="524.75" x2="524.75" y1="13.5" y2="19.5"/><line style="stroke: #000000; stroke-width: 1.5;" x1="530.75" x2="524.75" y1="19.5" y2="19.5"/><text fill="#000000" font-family="sans-serif" font-size="14" lengthAdjust="spacingAndGlyphs" textLength="43" x="472.75" y="34.4951">scope</text><!--entity modules--><rect fill="#FEFECE" filter="url(#f159zxyiq7y3kt)" height="39.2969" style="stroke: #000000; stroke-width: 1.5;" width="90" x="6" y="108.5"/><polygon fill="#FEFECE" points="79,113.5,79,127.5,91,127.5,91,119.5,85,113.5,79,113.5" style="stroke: #000000; stroke-width: 1.5;"/><line style="stroke: #000000; stroke-width: 1.5;" x1="85" x2="85" y1="113.5" y2="119.5"/><line style="stroke: #000000; stroke-width: 1.5;" x1="91" x2="85" y1="119.5" y2="119.5"/><text fill="#000000" font-family="sans-serif" font-size="14" lengthAdjust="spacingAndGlyphs" textLength="60" x="16" y="134.4951">modules</text><!--entity api--><rect fill="#FEFECE" filter="url(#f159zxyiq7y3kt)" height="39.2969" style="stroke: #000000; stroke-width: 1.5;" width="50" x="131" y="108.5"/><polygon fill="#FEFECE" points="164,113.5,164,127.5,176,127.5,176,119.5,170,113.5,164,113.5" style="stroke: #000000; stroke-width: 1.5;"/><line style="stroke: #000000; stroke-width: 1.5;" x1="170" x2="170" y1="113.5" y2="119.5"/><line style="stroke: #000000; stroke-width: 1.5;" x1="176" x2="170" y1="119.5" y2="119.5"/><text fill="#000000" font-family="sans-serif" font-size="14" lengthAdjust="spacingAndGlyphs" textLength="20" x="141" y="134.4951">api</text><!--entity artifact4--><rect fill="#FEFECE" filter="url(#f159zxyiq7y3kt)" height="39.2969" style="stroke: #000000; stroke-width: 1.5;" width="85" x="216.75" y="108.5"/><polygon fill="#FEFECE" points="284.75,113.5,284.75,127.5,296.75,127.5,296.75,119.5,290.75,113.5,284.75,113.5" style="stroke: #000000; stroke-width: 1.5;"/><line style="stroke: #000000; stroke-width: 1.5;" x1="290.75" x2="290.75" y1="113.5" y2="119.5"/><line style="stroke: #000000; stroke-width: 1.5;" x1="296.75" x2="290.75" y1="119.5" y2="119.5"/><text fill="#000000" font-family="sans-serif" font-size="14" lengthAdjust="spacingAndGlyphs" textLength="55" x="226.75" y="134.4951">artifact4</text><!--entity artifact5--><rect fill="#FEFECE" filter="url(#f159zxyiq7y3kt)" height="39.2969" style="stroke: #000000; stroke-width: 1.5;" width="85" x="336.75" y="108.5"/><polygon fill="#FEFECE" points="404.75,113.5,404.75,127.5,416.75,127.5,416.75,119.5,410.75,113.5,404.75,113.5" style="stroke: #000000; stroke-width: 1.5;"/><line style="stroke: #000000; stroke-width: 1.5;" x1="410.75" x2="410.75" y1="113.5" y2="119.5"/><line style="stroke: #000000; stroke-width: 1.5;" x1="416.75" x2="410.75" y1="119.5" y2="119.5"/><text fill="#000000" font-family="sans-serif" font-size="14" lengthAdjust="spacingAndGlyphs" textLength="55" x="346.75" y="134.4951">artifact5</text><!--entity artifact6--><rect fill="#FEFECE" filter="url(#f159zxyiq7y3kt)" height="39.2969" style="stroke: #000000; stroke-width: 1.5;" width="85" x="456.75" y="108.5"/><polygon fill="#FEFECE" points="524.75,113.5,524.75,127.5,536.75,127.5,536.75,119.5,530.75,113.5,524.75,113.5" style="stroke: #000000; stroke-width: 1.5;"/><line style="stroke: #000000; stroke-width: 1.5;" x1="530.75" x2="530.75" y1="113.5" y2="119.5"/><line style="stroke: #000000; stroke-width: 1.5;" x1="536.75" x2="530.75" y1="119.5" y2="119.5"/><text fill="#000000" font-family="sans-serif" font-size="14" lengthAdjust="spacingAndGlyphs" textLength="55" x="466.75" y="134.4951">artifact6</text><!--entity artifact7--><rect fill="#FEFECE" filter="url(#f159zxyiq7y3kt)" height="39.2969" style="stroke: #000000; stroke-width: 1.5;" width="85" x="576.75" y="108.5"/><polygon fill="#FEFECE" points="644.75,113.5,644.75,127.5,656.75,127.5,656.75,119.5,650.75,113.5,644.75,113.5" style="stroke: #000000; stroke-width: 1.5;"/><line style="stroke: #000000; stroke-width: 1.5;" x1="650.75" x2="650.75" y1="113.5" y2="119.5"/><line style="stroke: #000000; stroke-width: 1.5;" x1="656.75" x2="650.75" y1="119.5" y2="119.5"/><text fill="#000000" font-family="sans-serif" font-size="14" lengthAdjust="spacingAndGlyphs" textLength="55" x="586.75" y="134.4951">artifact7</text><!--entity artifact8--><rect fill="#FEFECE" filter="url(#f159zxyiq7y3kt)" height="39.2969" style="stroke: #000000; stroke-width: 1.5;" width="85" x="696.75" y="108.5"/><polygon fill="#FEFECE" points="764.75,113.5,764.75,127.5,776.75,127.5,776.75,119.5,770.75,113.5,764.75,113.5" style="stroke: #000000; stroke-width: 1.5;"/><line style="stroke: #000000; stroke-width: 1.5;" x1="770.75" x2="770.75" y1="113.5" y2="119.5"/><line style="stroke: #000000; stroke-width: 1.5;" x1="776.75" x2="770.75" y1="119.5" y2="119.5"/><text fill="#000000" font-family="sans-serif" font-size="14" lengthAdjust="spacingAndGlyphs" textLength="55" x="706.75" y="134.4951">artifact8</text><!--entity artifact9--><rect fill="#FEFECE" filter="url(#f159zxyiq7y3kt)" height="39.2969" style="stroke: #000000; stroke-width: 1.5;" width="85" x="816.75" y="108.5"/><polygon fill="#FEFECE" points="884.75,113.5,884.75,127.5,896.75,127.5,896.75,119.5,890.75,113.5,884.75,113.5" style="stroke: #000000; stroke-width: 1.5;"/><line style="stroke: #000000; stroke-width: 1.5;" x1="890.75" x2="890.75" y1="113.5" y2="119.5"/><line style="stroke: #000000; stroke-width: 1.5;" x1="896.75" x2="890.75" y1="119.5" y2="119.5"/><text fill="#000000" font-family="sans-serif" font-size="14" lengthAdjust="spacingAndGlyphs" textLength="55" x="826.75" y="134.4951">artifact9</text><!--entity artifact10--><rect fill="#FEFECE" filter="url(#f159zxyiq7y3kt)" height="39.2969" style="stroke: #000000; stroke-width: 1.5;" width="94" x="937" y="108.5"/><polygon fill="#FEFECE" points="1014,113.5,1014,127.5,1026,127.5,1026,119.5,1020,113.5,1014,113.5" style="stroke: #000000; stroke-width: 1.5;"/><line style="stroke: #000000; stroke-width: 1.5;" x1="1020" x2="1020" y1="113.5" y2="119.5"/><line style="stroke: #000000; stroke-width: 1.5;" x1="1026" x2="1020" y1="119.5" y2="119.5"/><text fill="#000000" font-family="sans-serif" font-size="14" lengthAdjust="spacingAndGlyphs" textLength="64" x="947" y="134.4951">artifact10</text><!--link scope to modules--><path d="M462.549,35.26 C393.757,47.34 240.263,75.5558 113,108 C109.165,108.9777 105.2137,110.0453 101.2508,111.1595 " fill="none" id="scope-modules" style="stroke: #000000; stroke-width: 1.0;"/><polygon fill="#000000" points="96.2328,112.5925,105.9852,113.9674,101.0406,111.2195,103.7884,106.2749,96.2328,112.5925" style="stroke: #000000; stroke-width: 1.0;"/><!--link scope to api--><path d="M462.422,36.663 C405.354,49.0562 292.025,75.4306 199,108 C197.171,108.6405 195.31,109.3257 193.441,110.0418 " fill="none" id="scope-api" style="stroke: #000000; stroke-width: 1.0;"/><polygon fill="#000000" points="181.198,115.0694,188.2677,116.4902,192.2984,110.5108,185.2287,109.09,181.198,115.0694" style="stroke: #000000; stroke-width: 1.0;"/><!--link scope to artifact4--><path d="M462.549,43.884 C422.91,60.07 359.125,86.1156 313.523,104.7365 " fill="none" id="scope-artifact4" style="stroke: #000000; stroke-width: 1.0;"/><polygon fill="#FFFFFF" points="301.471,109.6577,308.5379,111.0927,312.5806,105.1214,305.5137,103.6864,301.471,109.6577" style="stroke: #000000; stroke-width: 1.0;"/><!--link scope to artifact5--><path d="M476.146,47.664 C458.464,62.1045 433.685,82.3407 413.578,98.7609 " fill="none" id="scope-artifact5" style="stroke: #000000; stroke-width: 1.0;"/><ellipse cx="407.9645" cy="103.3458" fill="#FFFFFF" rx="8" ry="8" style="stroke: #000000; stroke-width: 1.0;"/><line style="stroke: #000000; stroke-width: 1.0;" x1="414.161" x2="401.768" y1="98.2858" y2="108.4058"/><line style="stroke: #000000; stroke-width: 1.0;" x1="413.0245" x2="402.9045" y1="109.5423" y2="97.1493"/><!--link scope to artifact6--><path d="M499,47.895 C499,63.7229 499,86.3922 499,103.4092 " fill="none" id="scope-artifact6" style="stroke: #000000; stroke-width: 1.0;"/><rect fill="#FFFFFF" height="10" style="stroke: #000000; stroke-width: 1.5;" width="10" x="494" y="103.495"/><!--link scope to artifact7--><path d="M521.854,47.664 C541.204,63.4668 569.054,86.2105 589.977,103.2982 " fill="none" id="scope-artifact7" style="stroke: #000000; stroke-width: 1.0;"/><polygon fill="#000000" points="596.232,108.4058,591.9332,101.022,588.1381,105.6693,596.232,108.4058" style="stroke: #000000; stroke-width: 1.0;"/><!--link scope to artifact8--><path d="M535.451,43.884 C577.287,60.9673 646.021,89.0336 691.886,107.7619 " fill="none" id="scope-artifact8" style="stroke: #000000; stroke-width: 1.0;"/><ellipse cx="696.529" cy="109.6577" fill="#FFFFFF" rx="6" ry="6" style="stroke: #000000; stroke-width: 1.5;"/><!--link scope to artifact9--><path d="M535.642,38.031 C589.059,51.3274 691.84,77.4034 797.137,107.6539 " fill="none" id="scope-artifact9" style="stroke: #000000; stroke-width: 1.0;"/><polygon fill="none" points="799.202,100.9641,816.468,113.2473,795.311,114.4125,799.202,100.9641" style="stroke: #000000; stroke-width: 1.0;"/><!--link scope to artifact10--><path d="M535.491,34.621 C608.694,46.171 778.481,74.3336 919,108 C923.191,109.0041 927.515,110.1102 931.847,111.2686 " fill="none" id="scope-artifact10" style="stroke: #000000; stroke-width: 1.0;"/><ellipse cx="936.929" cy="112.6493" fill="#FFFFFF" rx="6" ry="6" style="stroke: #000000; stroke-width: 1.5;"/><path d="M931.96,103.9712 A10,10 0 0 0 928.2509 117.6183" fill="#FFFFFF" style="stroke: #000000; stroke-width: 1.5;"/><!--
@startuml
skinparam class {
	BackgroundColor AliceBlue|LightBlue
	ArrowColor Black
	BorderColor DarkBlue
}
artifact scope
artifact modules
artifact api
artifact artifact4
artifact artifact5
artifact artifact6
artifact artifact7
artifact artifact8
artifact artifact9
artifact artifact10
scope - -> modules
scope - -* api
scope - -o artifact4
scope - -+ artifact5
scope - -# artifact6
scope - ->> artifact7
scope - -0 artifact8
scope - -^ artifact9
scope - -(0 artifact10
@enduml

PlantUML version 1.2017.12(Wed Apr 26 13:06:36 ART 2017)
(GPL source distribution)
Java Runtime: Java(TM) SE Runtime Environment
JVM: Java HotSpot(TM) 64-Bit Server VM
Java Version: 1.8.0_131-b11
Operating System: Linux
OS Version: 3.13.0-119-generic
Default Encoding: UTF-8
Language: en
Country: US
--></g></svg>