<?xml version="1.0" encoding="UTF-8" standalone="no"?><svg xmlns="http://www.w3.org/2000/svg" xmlns:xlink="http://www.w3.org/1999/xlink" contentScriptType="application/ecmascript" contentStyleType="text/css" height="271px" preserveAspectRatio="none" style="width:2345px;height:271px;" version="1.1" viewBox="0 0 2345 271" width="2345px" zoomAndPan="magnify"><defs><filter height="300%" id="f1a6ecrgif8v7v" width="300%" x="-1" y="-1"><feGaussianBlur result="blurOut" stdDeviation="2.0"/><feColorMatrix in="blurOut" result="blurOut2" type="matrix" values="0 0 0 0 0 0 0 0 0 0 0 0 0 0 0 0 0 0 .4 0"/><feOffset dx="4.0" dy="4.0" in="blurOut2" result="blurOut3"/><feBlend in="SourceGraphic" in2="blurOut3" mode="normal"/></filter></defs><g><!--entity scope--><polygon fill="#FEFECE" filter="url(#f1a6ecrgif8v7v)" points="1042.75,18,1052.75,8,1125.75,8,1125.75,44.2969,1115.75,54.2969,1042.75,54.2969,1042.75,18" style="stroke: #000000; stroke-width: 1.5;"/><line style="stroke: #000000; stroke-width: 1.5;" x1="1115.75" x2="1124.75" y1="18" y2="9"/><line style="stroke: #000000; stroke-width: 1.5;" x1="1042.75" x2="1115.75" y1="18" y2="18"/><line style="stroke: #000000; stroke-width: 1.5;" x1="1115.75" x2="1115.75" y1="18" y2="54.2969"/><text fill="#000000" font-family="sans-serif" font-size="14" lengthAdjust="spacingAndGlyphs" textLength="43" x="1057.75" y="40.9951">scope</text><!--entity logger--><polygon fill="#FEFECE" filter="url(#f1a6ecrgif8v7v)" points="6.5,230,16.5,220,90.5,220,90.5,256.2969,80.5,266.2969,6.5,266.2969,6.5,230" style="stroke: #000000; stroke-width: 1.5;"/><line style="stroke: #000000; stroke-width: 1.5;" x1="80.5" x2="89.5" y1="230" y2="221"/><line style="stroke: #000000; stroke-width: 1.5;" x1="6.5" x2="80.5" y1="230" y2="230"/><line style="stroke: #000000; stroke-width: 1.5;" x1="80.5" x2="80.5" y1="230" y2="266.2969"/><text fill="#000000" font-family="sans-serif" font-size="14" lengthAdjust="spacingAndGlyphs" textLength="44" x="21.5" y="252.9951">logger</text><!--entity logic--><polygon fill="#FEFECE" filter="url(#f1a6ecrgif8v7v)" points="206,124,216,114,278,114,278,150.2969,268,160.2969,206,160.2969,206,124" style="stroke: #000000; stroke-width: 1.5;"/><line style="stroke: #000000; stroke-width: 1.5;" x1="268" x2="277" y1="124" y2="115"/><line style="stroke: #000000; stroke-width: 1.5;" x1="206" x2="268" y1="124" y2="124"/><line style="stroke: #000000; stroke-width: 1.5;" x1="268" x2="268" y1="124" y2="160.2969"/><text fill="#000000" font-family="sans-serif" font-size="14" lengthAdjust="spacingAndGlyphs" textLength="32" x="221" y="146.9951">logic</text><!--entity schema--><polygon fill="#FEFECE" filter="url(#f1a6ecrgif8v7v)" points="125.75,230,135.75,220,220.75,220,220.75,256.2969,210.75,266.2969,125.75,266.2969,125.75,230" style="stroke: #000000; stroke-width: 1.5;"/><line style="stroke: #000000; stroke-width: 1.5;" x1="210.75" x2="219.75" y1="230" y2="221"/><line style="stroke: #000000; stroke-width: 1.5;" x1="125.75" x2="210.75" y1="230" y2="230"/><line style="stroke: #000000; stroke-width: 1.5;" x1="210.75" x2="210.75" y1="230" y2="266.2969"/><text fill="#000000" font-family="sans-serif" font-size="14" lengthAdjust="spacingAndGlyphs" textLength="55" x="140.75" y="252.9951">schema</text><!--entity network--><polygon fill="#FEFECE" filter="url(#f1a6ecrgif8v7v)" points="526,124,536,114,622,114,622,150.2969,612,160.2969,526,160.2969,526,124" style="stroke: #000000; stroke-width: 1.5;"/><line style="stroke: #000000; stroke-width: 1.5;" x1="612" x2="621" y1="124" y2="115"/><line style="stroke: #000000; stroke-width: 1.5;" x1="526" x2="612" y1="124" y2="124"/><line style="stroke: #000000; stroke-width: 1.5;" x1="612" x2="612" y1="124" y2="160.2969"/><text fill="#000000" font-family="sans-serif" font-size="14" lengthAdjust="spacingAndGlyphs" textLength="56" x="541" y="146.9951">network</text><!--entity ed--><polygon fill="#FEFECE" filter="url(#f1a6ecrgif8v7v)" points="256.5,230,266.5,220,314.5,220,314.5,256.2969,304.5,266.2969,256.5,266.2969,256.5,230" style="stroke: #000000; stroke-width: 1.5;"/><line style="stroke: #000000; stroke-width: 1.5;" x1="304.5" x2="313.5" y1="230" y2="221"/><line style="stroke: #000000; stroke-width: 1.5;" x1="256.5" x2="304.5" y1="230" y2="230"/><line style="stroke: #000000; stroke-width: 1.5;" x1="304.5" x2="304.5" y1="230" y2="266.2969"/><text fill="#000000" font-family="sans-serif" font-size="14" lengthAdjust="spacingAndGlyphs" textLength="18" x="271.5" y="252.9951">ed</text><!--entity config--><polygon fill="#FEFECE" filter="url(#f1a6ecrgif8v7v)" points="657,124,667,114,739,114,739,150.2969,729,160.2969,657,160.2969,657,124" style="stroke: #000000; stroke-width: 1.5;"/><line style="stroke: #000000; stroke-width: 1.5;" x1="729" x2="738" y1="124" y2="115"/><line style="stroke: #000000; stroke-width: 1.5;" x1="657" x2="729" y1="124" y2="124"/><line style="stroke: #000000; stroke-width: 1.5;" x1="729" x2="729" y1="124" y2="160.2969"/><text fill="#000000" font-family="sans-serif" font-size="14" lengthAdjust="spacingAndGlyphs" textLength="42" x="672" y="146.9951">config</text><!--entity modules--><polygon fill="#FEFECE" filter="url(#f1a6ecrgif8v7v)" points="774,124,784,114,874,114,874,150.2969,864,160.2969,774,160.2969,774,124" style="stroke: #000000; stroke-width: 1.5;"/><line style="stroke: #000000; stroke-width: 1.5;" x1="864" x2="873" y1="124" y2="115"/><line style="stroke: #000000; stroke-width: 1.5;" x1="774" x2="864" y1="124" y2="124"/><line style="stroke: #000000; stroke-width: 1.5;" x1="864" x2="864" y1="124" y2="160.2969"/><text fill="#000000" font-family="sans-serif" font-size="14" lengthAdjust="spacingAndGlyphs" textLength="60" x="789" y="146.9951">modules</text><!--entity bus--><polygon fill="#FEFECE" filter="url(#f1a6ecrgif8v7v)" points="349,230,359,220,415,220,415,256.2969,405,266.2969,349,266.2969,349,230" style="stroke: #000000; stroke-width: 1.5;"/><line style="stroke: #000000; stroke-width: 1.5;" x1="405" x2="414" y1="230" y2="221"/><line style="stroke: #000000; stroke-width: 1.5;" x1="349" x2="405" y1="230" y2="230"/><line style="stroke: #000000; stroke-width: 1.5;" x1="405" x2="405" y1="230" y2="266.2969"/><text fill="#000000" font-family="sans-serif" font-size="14" lengthAdjust="spacingAndGlyphs" textLength="26" x="364" y="252.9951">bus</text><!--entity balancesSequence--><polygon fill="#FEFECE" filter="url(#f1a6ecrgif8v7v)" points="909.75,124,919.75,114,1082.75,114,1082.75,150.2969,1072.75,160.2969,909.75,160.2969,909.75,124" style="stroke: #000000; stroke-width: 1.5;"/><line style="stroke: #000000; stroke-width: 1.5;" x1="1072.75" x2="1081.75" y1="124" y2="115"/><line style="stroke: #000000; stroke-width: 1.5;" x1="909.75" x2="1072.75" y1="124" y2="124"/><line style="stroke: #000000; stroke-width: 1.5;" x1="1072.75" x2="1072.75" y1="124" y2="160.2969"/><text fill="#000000" font-family="sans-serif" font-size="14" lengthAdjust="spacingAndGlyphs" textLength="133" x="924.75" y="146.9951">balancesSequence</text><!--entity genesisblock--><polygon fill="#FEFECE" filter="url(#f1a6ecrgif8v7v)" points="450,230,460,220,582,220,582,256.2969,572,266.2969,450,266.2969,450,230" style="stroke: #000000; stroke-width: 1.5;"/><line style="stroke: #000000; stroke-width: 1.5;" x1="572" x2="581" y1="230" y2="221"/><line style="stroke: #000000; stroke-width: 1.5;" x1="450" x2="572" y1="230" y2="230"/><line style="stroke: #000000; stroke-width: 1.5;" x1="572" x2="572" y1="230" y2="266.2969"/><text fill="#000000" font-family="sans-serif" font-size="14" lengthAdjust="spacingAndGlyphs" textLength="92" x="465" y="252.9951">genesisblock</text><!--entity sequence--><polygon fill="#FEFECE" filter="url(#f1a6ecrgif8v7v)" points="1118,124,1128,114,1228,114,1228,150.2969,1218,160.2969,1118,160.2969,1118,124" style="stroke: #000000; stroke-width: 1.5;"/><line style="stroke: #000000; stroke-width: 1.5;" x1="1218" x2="1227" y1="124" y2="115"/><line style="stroke: #000000; stroke-width: 1.5;" x1="1118" x2="1218" y1="124" y2="124"/><line style="stroke: #000000; stroke-width: 1.5;" x1="1218" x2="1218" y1="124" y2="160.2969"/><text fill="#000000" font-family="sans-serif" font-size="14" lengthAdjust="spacingAndGlyphs" textLength="70" x="1133" y="146.9951">sequence</text><!--entity nonce--><polygon fill="#FEFECE" filter="url(#f1a6ecrgif8v7v)" points="1263.5,124,1273.5,114,1347.5,114,1347.5,150.2969,1337.5,160.2969,1263.5,160.2969,1263.5,124" style="stroke: #000000; stroke-width: 1.5;"/><line style="stroke: #000000; stroke-width: 1.5;" x1="1337.5" x2="1346.5" y1="124" y2="115"/><line style="stroke: #000000; stroke-width: 1.5;" x1="1263.5" x2="1337.5" y1="124" y2="124"/><line style="stroke: #000000; stroke-width: 1.5;" x1="1337.5" x2="1337.5" y1="124" y2="160.2969"/><text fill="#000000" font-family="sans-serif" font-size="14" lengthAdjust="spacingAndGlyphs" textLength="44" x="1278.5" y="146.9951">nonce</text><!--entity dbSequence--><polygon fill="#FEFECE" filter="url(#f1a6ecrgif8v7v)" points="1382.75,124,1392.75,114,1511.75,114,1511.75,150.2969,1501.75,160.2969,1382.75,160.2969,1382.75,124" style="stroke: #000000; stroke-width: 1.5;"/><line style="stroke: #000000; stroke-width: 1.5;" x1="1501.75" x2="1510.75" y1="124" y2="115"/><line style="stroke: #000000; stroke-width: 1.5;" x1="1382.75" x2="1501.75" y1="124" y2="124"/><line style="stroke: #000000; stroke-width: 1.5;" x1="1501.75" x2="1501.75" y1="124" y2="160.2969"/><text fill="#000000" font-family="sans-serif" font-size="14" lengthAdjust="spacingAndGlyphs" textLength="89" x="1397.75" y="146.9951">dbSequence</text><!--entity public--><polygon fill="#FEFECE" filter="url(#f1a6ecrgif8v7v)" points="1546.75,124,1556.75,114,1627.75,114,1627.75,150.2969,1617.75,160.2969,1546.75,160.2969,1546.75,124" style="stroke: #000000; stroke-width: 1.5;"/><line style="stroke: #000000; stroke-width: 1.5;" x1="1617.75" x2="1626.75" y1="124" y2="115"/><line style="stroke: #000000; stroke-width: 1.5;" x1="1546.75" x2="1617.75" y1="124" y2="124"/><line style="stroke: #000000; stroke-width: 1.5;" x1="1617.75" x2="1617.75" y1="124" y2="160.2969"/><text fill="#000000" font-family="sans-serif" font-size="14" lengthAdjust="spacingAndGlyphs" textLength="41" x="1561.75" y="146.9951">public</text><!--entity build--><polygon fill="#FEFECE" filter="url(#f1a6ecrgif8v7v)" points="1662.75,124,1672.75,114,1735.75,114,1735.75,150.2969,1725.75,160.2969,1662.75,160.2969,1662.75,124" style="stroke: #000000; stroke-width: 1.5;"/><line style="stroke: #000000; stroke-width: 1.5;" x1="1725.75" x2="1734.75" y1="124" y2="115"/><line style="stroke: #000000; stroke-width: 1.5;" x1="1662.75" x2="1725.75" y1="124" y2="124"/><line style="stroke: #000000; stroke-width: 1.5;" x1="1725.75" x2="1725.75" y1="124" y2="160.2969"/><text fill="#000000" font-family="sans-serif" font-size="14" lengthAdjust="spacingAndGlyphs" textLength="33" x="1677.75" y="146.9951">build</text><!--entity lastCommit--><polygon fill="#FEFECE" filter="url(#f1a6ecrgif8v7v)" points="1770.75,124,1780.75,114,1887.75,114,1887.75,150.2969,1877.75,160.2969,1770.75,160.2969,1770.75,124" style="stroke: #000000; stroke-width: 1.5;"/><line style="stroke: #000000; stroke-width: 1.5;" x1="1877.75" x2="1886.75" y1="124" y2="115"/><line style="stroke: #000000; stroke-width: 1.5;" x1="1770.75" x2="1877.75" y1="124" y2="124"/><line style="stroke: #000000; stroke-width: 1.5;" x1="1877.75" x2="1877.75" y1="124" y2="160.2969"/><text fill="#000000" font-family="sans-serif" font-size="14" lengthAdjust="spacingAndGlyphs" textLength="77" x="1785.75" y="146.9951">lastCommit</text><!--entity api--><polygon fill="#FEFECE" filter="url(#f1a6ecrgif8v7v)" points="1923.5,124,1933.5,114,1983.5,114,1983.5,150.2969,1973.5,160.2969,1923.5,160.2969,1923.5,124" style="stroke: #000000; stroke-width: 1.5;"/><line style="stroke: #000000; stroke-width: 1.5;" x1="1973.5" x2="1982.5" y1="124" y2="115"/><line style="stroke: #000000; stroke-width: 1.5;" x1="1923.5" x2="1973.5" y1="124" y2="124"/><line style="stroke: #000000; stroke-width: 1.5;" x1="1973.5" x2="1973.5" y1="124" y2="160.2969"/><text fill="#000000" font-family="sans-serif" font-size="14" lengthAdjust="spacingAndGlyphs" textLength="20" x="1938.5" y="146.9951">api</text><!--entity connect--><polygon fill="#FEFECE" filter="url(#f1a6ecrgif8v7v)" points="2017.75,124,2027.75,114,2114.75,114,2114.75,150.2969,2104.75,160.2969,2017.75,160.2969,2017.75,124" style="stroke: #000000; stroke-width: 1.5;"/><line style="stroke: #000000; stroke-width: 1.5;" x1="2104.75" x2="2113.75" y1="124" y2="115"/><line style="stroke: #000000; stroke-width: 1.5;" x1="2017.75" x2="2104.75" y1="124" y2="124"/><line style="stroke: #000000; stroke-width: 1.5;" x1="2104.75" x2="2104.75" y1="124" y2="160.2969"/><text fill="#000000" font-family="sans-serif" font-size="14" lengthAdjust="spacingAndGlyphs" textLength="57" x="2032.75" y="146.9951">connect</text><!--entity ready--><polygon fill="#FEFECE" filter="url(#f1a6ecrgif8v7v)" points="2150,124,2160,114,2228,114,2228,150.2969,2218,160.2969,2150,160.2969,2150,124" style="stroke: #000000; stroke-width: 1.5;"/><line style="stroke: #000000; stroke-width: 1.5;" x1="2218" x2="2227" y1="124" y2="115"/><line style="stroke: #000000; stroke-width: 1.5;" x1="2150" x2="2218" y1="124" y2="124"/><line style="stroke: #000000; stroke-width: 1.5;" x1="2218" x2="2218" y1="124" y2="160.2969"/><text fill="#000000" font-family="sans-serif" font-size="14" lengthAdjust="spacingAndGlyphs" textLength="38" x="2165" y="146.9951">ready</text><!--entity listen--><polygon fill="#FEFECE" filter="url(#f1a6ecrgif8v7v)" points="2263.75,124,2273.75,114,2340.75,114,2340.75,150.2969,2330.75,160.2969,2263.75,160.2969,2263.75,124" style="stroke: #000000; stroke-width: 1.5;"/><line style="stroke: #000000; stroke-width: 1.5;" x1="2330.75" x2="2339.75" y1="124" y2="115"/><line style="stroke: #000000; stroke-width: 1.5;" x1="2263.75" x2="2330.75" y1="124" y2="124"/><line style="stroke: #000000; stroke-width: 1.5;" x1="2330.75" x2="2330.75" y1="124" y2="160.2969"/><text fill="#000000" font-family="sans-serif" font-size="14" lengthAdjust="spacingAndGlyphs" textLength="37" x="2278.75" y="146.9951">listen</text><!--link scope to logger--><path d="M1042.56,31.615 C883.963,30.757 316.559,33.486 159,114 C112.508,137.757 77.1246,190.1057 59.7959,219.9759 " fill="none" id="scope-logger" style="stroke: #000000; stroke-width: 2.0;"/><!--link scope to logic--><path d="M1042.49,33.006 C925.233,36.564 582.011,51.932 305,114 C296.182,115.976 286.889,118.79 278.229,121.748 " fill="none" id="scope-logic" style="stroke: #000000; stroke-width: 2.0;"/><!--link scope to schema--><path d="M1042.66,32.782 C874.761,36.357 249.901,53.652 188,114 C159.964,141.333 163.249,191.1111 168.134,219.875 " fill="none" id="scope-schema" style="stroke: #000000; stroke-width: 2.0;"/><!--link scope to network--><path d="M1042.57,37.683 C963.543,48.956 786.122,76.348 640,114 C634.152,115.507 628.071,117.264 622.07,119.117 " fill="none" id="scope-network" style="stroke: #000000; stroke-width: 1.0;"/><!--link scope to ed--><path d="M1042.34,33.967 C915.941,40.436 538.726,63.589 428,114 C374.326,138.436 326.513,190.2713 302.115,219.9361 " fill="none" id="scope-ed" style="stroke: #000000; stroke-width: 1.0;"/><!--link scope to config--><path d="M1042.55,40.839 C980.077,54.51 858.304,82.518 757,114 C751.154,115.817 745.042,117.891 739.061,120.024 " fill="none" id="scope-config" style="stroke: #000000; stroke-width: 1.0;"/><!--link scope to modules--><path d="M1042.51,48.594 C996.78,66.888 923.21,96.316 874.244,115.902 " fill="none" id="scope-modules" style="stroke: #000000; stroke-width: 1.0;"/><!--link scope to bus--><path d="M1042.73,33.746 C923.678,39.387 582.015,59.993 486,114 C442.078,138.705 409.392,189.9409 393.253,219.5504 " fill="none" id="scope-bus" style="stroke: #000000; stroke-width: 1.0; stroke-dasharray: 7.0,7.0;"/><!--link scope to balancesSequence--><path d="M1065.34,54.056 C1050.4,71.705 1029.56,96.335 1014.64,113.976 " fill="none" id="scope-balancesSequence" style="stroke: #000000; stroke-width: 1.0; stroke-dasharray: 7.0,7.0;"/><!--link scope to genesisblock--><path d="M1042.56,31.253 C922.491,30.061 578.547,33.832 509,114 C483.77,143.083 495.837,191.3138 506.313,219.5311 " fill="none" id="scope-genesisblock" style="stroke: #000000; stroke-width: 1.0; stroke-dasharray: 7.0,7.0;"/><!--link scope to sequence--><path d="M1102.87,54.056 C1117.98,71.705 1139.06,96.335 1154.15,113.976 " fill="none" id="scope-sequence" style="stroke: #000000; stroke-width: 1.0; stroke-dasharray: 7.0,7.0;"/><!--link scope to nonce--><path d="M1125.31,51.44 C1164.66,69.959 1223.61,97.698 1263.14,116.303 " fill="none" id="scope-nonce" style="stroke: #000000; stroke-width: 1.0; stroke-dasharray: 7.0,7.0;"/><!--link scope to dbSequence--><path d="M1125.29,43.829 C1188.1,61.824 1308.18,96.228 1382.55,117.535 " fill="none" id="scope-dbSequence" style="stroke: #000000; stroke-width: 1.0; stroke-dasharray: 1.0,3.0;"/><!--link scope to public--><path d="M1125.36,37.083 C1204.66,47.384 1383.16,73.264 1529,114 C1534.81,115.622 1540.85,117.588 1546.75,119.669 " fill="none" id="scope-public" style="stroke: #000000; stroke-width: 1.0; stroke-dasharray: 1.0,3.0;"/><!--link scope to build--><path d="M1125.52,34.626 C1219.5,41.31 1455.06,62.249 1645,114 C1650.76,115.57 1656.74,117.585 1662.52,119.756 " fill="none" id="scope-build" style="stroke: #000000; stroke-width: 1.0; stroke-dasharray: 1.0,3.0;"/><!--link scope to lastCommit--><path d="M1125.48,34.768 C1231.07,42.312 1518.28,65.963 1753,114 C1758.79,115.184 1764.77,116.591 1770.73,118.113 " fill="none" id="scope-lastCommit" style="stroke: #000000; stroke-width: 1.0; stroke-dasharray: 1.0,3.0;"/><!--link scope to api--><path d="M1125.44,31.373 C1247.33,30.532 1614.32,35.221 1905,114 C1911.1,115.655 1917.41,118.015 1923.35,120.582 " fill="none" id="scope-api" style="stroke: #000000; stroke-width: 1.0; stroke-dasharray: 1.0,3.0;"/><!--link scope to connect--><path d="M1125.59,32.301 C1255.97,33.969 1667.85,44.761 2000,114 C2005.79,115.208 2011.79,116.759 2017.69,118.478 " fill="none" id="scope-connect" style="stroke: #000000; stroke-width: 1.0; stroke-dasharray: 1.0,3.0;"/><!--link scope to ready--><path d="M1125.52,33.64 C1295.03,40.585 1935.01,69.282 2132,114 C2137.9,115.338 2143.99,117.172 2149.91,119.213 " fill="none" id="scope-ready" style="stroke: #000000; stroke-width: 1.0; stroke-dasharray: 1.0,3.0;"/><!--link scope to listen--><path d="M1125.38,33.238 C1305.95,38.899 2025.81,64.208 2246,114 C2251.81,115.313 2257.8,117.132 2263.62,119.167 " fill="none" id="scope-listen" style="stroke: #000000; stroke-width: 1.0; stroke-dasharray: 1.0,3.0;"/><!--link logic to bus--><path d="M271.69,160.056 C295.449,177.7049 328.605,202.3353 352.352,219.9761 " fill="none" id="logic-bus" style="stroke: #000000; stroke-width: 1.0; stroke-dasharray: 7.0,7.0;"/><!--link logic to ed--><path d="M251.119,160.056 C258.416,177.7049 268.6,202.3353 275.894,219.9761 " fill="none" id="logic-ed" style="stroke: #000000; stroke-width: 1.0;"/><!--link logic to genesisblock--><path d="M278.102,151.703 C323.95,169.1052 403.628,199.3478 458.033,219.998 " fill="none" id="logic-genesisblock" style="stroke: #000000; stroke-width: 1.0; stroke-dasharray: 7.0,7.0;"/><!--link logic to logger--><path d="M205.965,157.318 C172.873,175.058 123.86,201.3326 89.2221,219.9015 " fill="none" id="logic-logger" style="stroke: #000000; stroke-width: 2.0;"/><!--link logic to schema--><path d="M227.367,160.056 C215.657,177.7049 199.316,202.3353 187.612,219.9761 " fill="none" id="logic-schema" style="stroke: #000000; stroke-width: 2.0;"/><!--
@startuml
skinparam class {
	BackgroundColor AliceBlue|LightBlue
	ArrowColor Black
	BorderColor DarkBlue
}

node scope
node logger
node logic
node schema
node network
node ed
node config
node modules
node bus
node balancesSequence
node genesisblock
node sequence
node nonce
node dbSequence
node public
node build
node lastCommit
node api
node connect
node ready
node listen
scope == logger
scope == logic
scope == schema
scope - - network
scope - - ed
scope - - config
scope - - modules
scope .. bus
scope .. balancesSequence
scope .. genesisblock
scope .. sequence
scope .. nonce
scope ~~ dbSequence
scope ~~ public
scope ~~ build
scope ~~ lastCommit
scope ~~ api
scope ~~ connect
scope ~~ ready
scope ~~ listen
logic .. bus
logic - - ed
logic .. genesisblock
logic == logger
logic == schema
@enduml

PlantUML version 1.2017.12(Wed Apr 26 13:06:36 ART 2017)
(GPL source distribution)
Java Runtime: Java(TM) SE Runtime Environment
JVM: Java HotSpot(TM) 64-Bit Server VM
Java Version: 1.8.0_131-b11
Operating System: Linux
OS Version: 3.13.0-119-generic
Default Encoding: UTF-8
Language: en
Country: US
--></g></svg>