<?xml version="1.0" encoding="UTF-8" standalone="no"?><svg xmlns="http://www.w3.org/2000/svg" xmlns:xlink="http://www.w3.org/1999/xlink" contentScriptType="application/ecmascript" contentStyleType="text/css" height="432px" preserveAspectRatio="none" style="width:225px;height:432px;" version="1.1" viewBox="0 0 225 432" width="225px" zoomAndPan="magnify"><defs><linearGradient id="gvkbw4pz83o530" x1="0%" x2="100%" y1="50%" y2="50%"><stop offset="0%" stop-color="#F0F8FF"/><stop offset="100%" stop-color="#ADD8E6"/></linearGradient><filter height="300%" id="fvkbw4pz83o53" width="300%" x="-1" y="-1"><feGaussianBlur result="blurOut" stdDeviation="2.0"/><feColorMatrix in="blurOut" result="blurOut2" type="matrix" values="0 0 0 0 0 0 0 0 0 0 0 0 0 0 0 0 0 0 .4 0"/><feOffset dx="4.0" dy="4.0" in="blurOut2" result="blurOut3"/><feBlend in="SourceGraphic" in2="blurOut3" mode="normal"/></filter></defs><g><!--class Account--><rect fill="url(#gvkbw4pz83o530)" filter="url(#fvkbw4pz83o53)" height="414.5313" id="Account" style="stroke: #00008B; stroke-width: 1.5;" width="210" x="6" y="8.5"/><ellipse cx="60.75" cy="24.5" fill="#ADD1B2" rx="11" ry="11" style="stroke: #00008B; stroke-width: 1.0;"/><path d="M63.7188,30.1406 Q63.1406,30.4375 62.5,30.5859 Q61.8594,30.7344 61.1563,30.7344 Q58.6563,30.7344 57.3359,29.0859 Q56.0156,27.4375 56.0156,24.3125 Q56.0156,21.1875 57.3359,19.5313 Q58.6563,17.875 61.1563,17.875 Q61.8594,17.875 62.5078,18.0313 Q63.1563,18.1875 63.7188,18.4844 L63.7188,21.2031 Q63.0938,20.625 62.5,20.3516 Q61.9063,20.0781 61.2813,20.0781 Q59.9375,20.0781 59.25,21.1484 Q58.5625,22.2188 58.5625,24.3125 Q58.5625,26.4063 59.25,27.4766 Q59.9375,28.5469 61.2813,28.5469 Q61.9063,28.5469 62.5,28.2734 Q63.0938,28 63.7188,27.4219 L63.7188,30.1406 Z "/><text fill="#000000" font-family="sans-serif" font-size="12" lengthAdjust="spacingAndGlyphs" textLength="51" x="81.25" y="28.6543">Account</text><rect fill="#FFFFFF" height="15.9688" style="stroke: #000000; stroke-width: 1.0; stroke-dasharray: 2.0,2.0;" width="39" x="180" y="5.5"/><text fill="#000000" font-family="sans-serif" font-size="12" font-style="italic" lengthAdjust="spacingAndGlyphs" textLength="29" x="185" y="17.6387">logic</text><line style="stroke: #00008B; stroke-width: 1.5;" x1="7" x2="215" y1="40.5" y2="40.5"/><rect fill="none" height="6" style="stroke: #C82930; stroke-width: 1.0;" width="6" x="14" y="49.4023"/><text fill="#000000" font-family="sans-serif" font-size="11" lengthAdjust="spacingAndGlyphs" textLength="73" x="26" y="54.7104">__private: {}</text><rect fill="none" height="6" style="stroke: #C82930; stroke-width: 1.0;" width="6" x="14" y="62.207"/><text fill="#000000" font-family="sans-serif" font-size="11" lengthAdjust="spacingAndGlyphs" textLength="50" x="26" y="67.5151">self: this</text><rect fill="none" height="6" style="stroke: #C82930; stroke-width: 1.0;" width="6" x="14" y="91.8164"/><text fill="#000000" font-family="sans-serif" font-size="11" lengthAdjust="spacingAndGlyphs" textLength="36" x="26" y="97.1245">logger</text><line style="stroke: #00008B; stroke-width: 1.0; stroke-dasharray: 1.0,2.0;" x1="7" x2="93" y1="80.5117" y2="80.5117"/><text fill="#000000" font-family="sans-serif" font-size="11" lengthAdjust="spacingAndGlyphs" textLength="36" x="93" y="83.8198">library</text><line style="stroke: #00008B; stroke-width: 1.0; stroke-dasharray: 1.0,2.0;" x1="129" x2="215" y1="80.5117" y2="80.5117"/><ellipse cx="17" cy="124.4258" fill="none" rx="3" ry="3" style="stroke: #038048; stroke-width: 1.0;"/><text fill="#000000" font-family="sans-serif" font-size="11" lengthAdjust="spacingAndGlyphs" textLength="122" x="26" y="126.7339">table: mem_accounts</text><ellipse cx="17" cy="137.2305" fill="none" rx="3" ry="3" style="stroke: #038048; stroke-width: 1.0;"/><text fill="#000000" font-family="sans-serif" font-size="11" lengthAdjust="spacingAndGlyphs" textLength="35" x="26" y="139.5386">model</text><ellipse cx="17" cy="150.0352" fill="none" rx="3" ry="3" style="stroke: #038048; stroke-width: 1.0;"/><text fill="#000000" font-family="sans-serif" font-size="11" lengthAdjust="spacingAndGlyphs" textLength="31" x="26" y="152.3433">fields</text><ellipse cx="17" cy="162.8398" fill="none" rx="3" ry="3" style="stroke: #038048; stroke-width: 1.0;"/><text fill="#000000" font-family="sans-serif" font-size="11" lengthAdjust="spacingAndGlyphs" textLength="35" x="26" y="165.1479">binary</text><ellipse cx="17" cy="175.6445" fill="none" rx="3" ry="3" style="stroke: #038048; stroke-width: 1.0;"/><text fill="#000000" font-family="sans-serif" font-size="11" lengthAdjust="spacingAndGlyphs" textLength="26" x="26" y="177.9526">conv</text><ellipse cx="17" cy="188.4492" fill="none" rx="3" ry="3" style="stroke: #038048; stroke-width: 1.0;"/><text fill="#000000" font-family="sans-serif" font-size="11" lengthAdjust="spacingAndGlyphs" textLength="45" x="26" y="190.7573">editable</text><ellipse cx="17" cy="201.2539" fill="none" rx="3" ry="3" style="stroke: #038048; stroke-width: 1.0;"/><text fill="#000000" font-family="sans-serif" font-size="11" lengthAdjust="spacingAndGlyphs" textLength="26" x="26" y="203.562">filter</text><ellipse cx="17" cy="214.0586" fill="none" rx="3" ry="3" style="stroke: #038048; stroke-width: 1.0;"/><text fill="#000000" font-family="sans-serif" font-size="11" lengthAdjust="spacingAndGlyphs" textLength="34" x="26" y="216.3667">scope</text><line style="stroke: #00008B; stroke-width: 1.0; stroke-dasharray: 1.0,2.0;" x1="7" x2="100.5" y1="110.1211" y2="110.1211"/><text fill="#000000" font-family="sans-serif" font-size="11" lengthAdjust="spacingAndGlyphs" textLength="21" x="100.5" y="113.4292">this</text><line style="stroke: #00008B; stroke-width: 1.0; stroke-dasharray: 1.0,2.0;" x1="121.5" x2="215" y1="110.1211" y2="110.1211"/><ellipse cx="17" cy="243.668" fill="none" rx="3" ry="3" style="stroke: #038048; stroke-width: 1.0;"/><text fill="#000000" font-family="sans-serif" font-size="11" lengthAdjust="spacingAndGlyphs" textLength="14" x="26" y="245.9761">db</text><ellipse cx="17" cy="256.4727" fill="none" rx="3" ry="3" style="stroke: #038048; stroke-width: 1.0;"/><text fill="#000000" font-family="sans-serif" font-size="11" lengthAdjust="spacingAndGlyphs" textLength="45" x="26" y="258.7808">schema</text><line style="stroke: #00008B; stroke-width: 1.0; stroke-dasharray: 1.0,2.0;" x1="7" x2="81.5" y1="229.3633" y2="229.3633"/><text fill="#000000" font-family="sans-serif" font-size="11" lengthAdjust="spacingAndGlyphs" textLength="59" x="81.5" y="232.6714">this.scope</text><line style="stroke: #00008B; stroke-width: 1.0; stroke-dasharray: 1.0,2.0;" x1="140.5" x2="215" y1="229.3633" y2="229.3633"/><ellipse cx="17" cy="286.082" fill="#84BE84" rx="3" ry="3" style="stroke: #038048; stroke-width: 1.0;"/><text fill="#000000" font-family="sans-serif" font-size="11" lengthAdjust="spacingAndGlyphs" textLength="184" x="26" y="288.3901">Account(db, schema, logger, cb)</text><ellipse cx="17" cy="298.8867" fill="#84BE84" rx="3" ry="3" style="stroke: #038048; stroke-width: 1.0;"/><text fill="#000000" font-family="sans-serif" font-size="11" lengthAdjust="spacingAndGlyphs" textLength="95" x="26" y="301.1948">createTables(cb)</text><ellipse cx="17" cy="311.6914" fill="#84BE84" rx="3" ry="3" style="stroke: #038048; stroke-width: 1.0;"/><text fill="#000000" font-family="sans-serif" font-size="11" lengthAdjust="spacingAndGlyphs" textLength="102" x="26" y="313.9995">removeTables(cb)</text><ellipse cx="17" cy="324.4961" fill="#84BE84" rx="3" ry="3" style="stroke: #038048; stroke-width: 1.0;"/><text fill="#000000" font-family="sans-serif" font-size="11" lengthAdjust="spacingAndGlyphs" textLength="142" x="26" y="326.8042">objectNormalize(account)</text><ellipse cx="17" cy="337.3008" fill="#84BE84" rx="3" ry="3" style="stroke: #038048; stroke-width: 1.0;"/><text fill="#000000" font-family="sans-serif" font-size="11" lengthAdjust="spacingAndGlyphs" textLength="145" x="26" y="339.6089">verifyPublicKey(publicKey)</text><ellipse cx="17" cy="350.1055" fill="#84BE84" rx="3" ry="3" style="stroke: #038048; stroke-width: 1.0;"/><text fill="#000000" font-family="sans-serif" font-size="11" lengthAdjust="spacingAndGlyphs" textLength="56" x="26" y="352.4136">toDB(raw)</text><ellipse cx="17" cy="362.9102" fill="#84BE84" rx="3" ry="3" style="stroke: #038048; stroke-width: 1.0;"/><text fill="#000000" font-family="sans-serif" font-size="11" lengthAdjust="spacingAndGlyphs" textLength="112" x="26" y="365.2183">get(filter, fields, cb)</text><ellipse cx="17" cy="375.7148" fill="#84BE84" rx="3" ry="3" style="stroke: #038048; stroke-width: 1.0;"/><text fill="#000000" font-family="sans-serif" font-size="11" lengthAdjust="spacingAndGlyphs" textLength="125" x="26" y="378.0229">getAll(filter, fields, cb)</text><ellipse cx="17" cy="388.5195" fill="#84BE84" rx="3" ry="3" style="stroke: #038048; stroke-width: 1.0;"/><text fill="#000000" font-family="sans-serif" font-size="11" lengthAdjust="spacingAndGlyphs" textLength="133" x="26" y="390.8276">set(address, fields, cb)</text><ellipse cx="17" cy="401.3242" fill="#84BE84" rx="3" ry="3" style="stroke: #038048; stroke-width: 1.0;"/><text fill="#000000" font-family="sans-serif" font-size="11" lengthAdjust="spacingAndGlyphs" textLength="139" x="26" y="403.6323">merge(address, diff, cb)</text><ellipse cx="17" cy="414.1289" fill="#84BE84" rx="3" ry="3" style="stroke: #038048; stroke-width: 1.0;"/><text fill="#000000" font-family="sans-serif" font-size="11" lengthAdjust="spacingAndGlyphs" textLength="119" x="26" y="416.437">remove(address, cb)</text><line style="stroke: #00008B; stroke-width: 1.0;" x1="7" x2="87" y1="271.7773" y2="271.7773"/><text fill="#000000" font-family="sans-serif" font-size="11" lengthAdjust="spacingAndGlyphs" textLength="48" x="87" y="275.0854">Methods</text><line style="stroke: #00008B; stroke-width: 1.0;" x1="135" x2="215" y1="271.7773" y2="271.7773"/><!--
@startuml
skinparam class {
	BackgroundColor AliceBlue|LightBlue
	ArrowColor Black
	BorderColor DarkBlue
}
class Account < logic > {
  - __private: {}
  - self: this
  .. library ..
  - logger
  .. this ..
  + table: mem_accounts
  + model
  + fields
  + binary
  + conv
  + editable
  + filter
  + scope
  .. this.scope ..
  + db
  + schema
  - - Methods - -
  + Account(db, schema, logger, cb)
  + createTables(cb)
  + removeTables(cb)
  + objectNormalize(account)
  + verifyPublicKey(publicKey)
  + toDB(raw)
  + get(filter, fields, cb)
  + getAll(filter, fields, cb)
  + set(address, fields, cb)
  + merge(address, diff, cb)
  + remove(address, cb)
}
@endtuml

PlantUML version 1.2017.12(Wed Apr 26 13:06:36 ART 2017)
(GPL source distribution)
Java Runtime: Java(TM) SE Runtime Environment
JVM: Java HotSpot(TM) 64-Bit Server VM
Java Version: 1.8.0_131-b11
Operating System: Linux
OS Version: 3.13.0-119-generic
Default Encoding: UTF-8
Language: en
Country: US
--></g></svg>