<?xml version="1.0" encoding="UTF-8" standalone="no"?><svg xmlns="http://www.w3.org/2000/svg" xmlns:xlink="http://www.w3.org/1999/xlink" contentScriptType="application/ecmascript" contentStyleType="text/css" height="350px" preserveAspectRatio="none" style="width:236px;height:350px;" version="1.1" viewBox="0 0 236 350" width="236px" zoomAndPan="magnify"><defs><linearGradient id="gvwjur08rch9d0" x1="0%" x2="100%" y1="50%" y2="50%"><stop offset="0%" stop-color="#F0F8FF"/><stop offset="100%" stop-color="#ADD8E6"/></linearGradient><filter height="300%" id="fvwjur08rch9d" width="300%" x="-1" y="-1"><feGaussianBlur result="blurOut" stdDeviation="2.0"/><feColorMatrix in="blurOut" result="blurOut2" type="matrix" values="0 0 0 0 0 0 0 0 0 0 0 0 0 0 0 0 0 0 .4 0"/><feOffset dx="4.0" dy="4.0" in="blurOut2" result="blurOut3"/><feBlend in="SourceGraphic" in2="blurOut3" mode="normal"/></filter></defs><g><!--class Delegate--><rect fill="url(#gvwjur08rch9d0)" filter="url(#fvwjur08rch9d)" height="333.7031" id="Delegate" style="stroke: #00008B; stroke-width: 1.5;" width="221" x="6" y="8"/><ellipse cx="63.25" cy="24" fill="#ADD1B2" rx="11" ry="11" style="stroke: #00008B; stroke-width: 1.0;"/><path d="M66.2188,29.6406 Q65.6406,29.9375 65,30.0859 Q64.3594,30.2344 63.6563,30.2344 Q61.1563,30.2344 59.8359,28.5859 Q58.5156,26.9375 58.5156,23.8125 Q58.5156,20.6875 59.8359,19.0313 Q61.1563,17.375 63.6563,17.375 Q64.3594,17.375 65.0078,17.5313 Q65.6563,17.6875 66.2188,17.9844 L66.2188,20.7031 Q65.5938,20.125 65,19.8516 Q64.4063,19.5781 63.7813,19.5781 Q62.4375,19.5781 61.75,20.6484 Q61.0625,21.7188 61.0625,23.8125 Q61.0625,25.9063 61.75,26.9766 Q62.4375,28.0469 63.7813,28.0469 Q64.4063,28.0469 65,27.7734 Q65.5938,27.5 66.2188,26.9219 L66.2188,29.6406 Z "/><text fill="#000000" font-family="sans-serif" font-size="12" lengthAdjust="spacingAndGlyphs" textLength="57" x="83.75" y="28.1543">Delegate</text><rect fill="#FFFFFF" height="15.9688" style="stroke: #000000; stroke-width: 1.0; stroke-dasharray: 2.0,2.0;" width="39" x="191" y="5"/><text fill="#000000" font-family="sans-serif" font-size="12" font-style="italic" lengthAdjust="spacingAndGlyphs" textLength="29" x="196" y="17.1387">logic</text><line style="stroke: #00008B; stroke-width: 1.5;" x1="7" x2="226" y1="40" y2="40"/><rect fill="none" height="6" style="stroke: #C82930; stroke-width: 1.0;" width="6" x="14" y="48.9023"/><text fill="#000000" font-family="sans-serif" font-size="11" lengthAdjust="spacingAndGlyphs" textLength="36" x="26" y="54.2104">library</text><rect fill="none" height="6" style="stroke: #C82930; stroke-width: 1.0;" width="6" x="14" y="61.707"/><text fill="#000000" font-family="sans-serif" font-size="11" lengthAdjust="spacingAndGlyphs" textLength="49" x="26" y="67.0151">modules</text><rect fill="none" height="6" style="stroke: #C82930; stroke-width: 1.0;" width="6" x="14" y="91.3164"/><text fill="#000000" font-family="sans-serif" font-size="11" lengthAdjust="spacingAndGlyphs" textLength="45" x="26" y="96.6245">schema</text><line style="stroke: #00008B; stroke-width: 1.0; stroke-dasharray: 1.0,2.0;" x1="7" x2="98.5" y1="80.0117" y2="80.0117"/><text fill="#000000" font-family="sans-serif" font-size="11" lengthAdjust="spacingAndGlyphs" textLength="36" x="98.5" y="83.3198">library</text><line style="stroke: #00008B; stroke-width: 1.0; stroke-dasharray: 1.0,2.0;" x1="134.5" x2="226" y1="80.0117" y2="80.0117"/><rect fill="none" height="6" style="stroke: #C82930; stroke-width: 1.0;" width="6" x="14" y="120.9258"/><text fill="#000000" font-family="sans-serif" font-size="11" lengthAdjust="spacingAndGlyphs" textLength="51" x="26" y="126.2339">accounts</text><line style="stroke: #00008B; stroke-width: 1.0; stroke-dasharray: 1.0,2.0;" x1="7" x2="92" y1="109.6211" y2="109.6211"/><text fill="#000000" font-family="sans-serif" font-size="11" lengthAdjust="spacingAndGlyphs" textLength="49" x="92" y="112.9292">modules</text><line style="stroke: #00008B; stroke-width: 1.0; stroke-dasharray: 1.0,2.0;" x1="141" x2="226" y1="109.6211" y2="109.6211"/><ellipse cx="17" cy="153.5352" fill="#84BE84" rx="3" ry="3" style="stroke: #038048; stroke-width: 1.0;"/><text fill="#000000" font-family="sans-serif" font-size="11" lengthAdjust="spacingAndGlyphs" textLength="107" x="26" y="155.8433">Delegate (schema)</text><ellipse cx="17" cy="166.3398" fill="#84BE84" rx="3" ry="3" style="stroke: #038048; stroke-width: 1.0;"/><text fill="#000000" font-family="sans-serif" font-size="11" lengthAdjust="spacingAndGlyphs" textLength="87" x="26" y="168.6479">bind (accounts)</text><ellipse cx="17" cy="179.1445" fill="#84BE84" rx="3" ry="3" style="stroke: #038048; stroke-width: 1.0;"/><text fill="#000000" font-family="sans-serif" font-size="11" lengthAdjust="spacingAndGlyphs" textLength="93" x="26" y="181.4526">create(data, trs)</text><ellipse cx="17" cy="191.9492" fill="#84BE84" rx="3" ry="3" style="stroke: #038048; stroke-width: 1.0;"/><text fill="#000000" font-family="sans-serif" font-size="11" lengthAdjust="spacingAndGlyphs" textLength="142" x="26" y="194.2573">calculateFee(trs, sender)</text><ellipse cx="17" cy="204.7539" fill="#84BE84" rx="3" ry="3" style="stroke: #038048; stroke-width: 1.0;"/><text fill="#000000" font-family="sans-serif" font-size="11" lengthAdjust="spacingAndGlyphs" textLength="124" x="26" y="207.062">verify(trs, sender, cb)</text><ellipse cx="17" cy="217.5586" fill="#84BE84" rx="3" ry="3" style="stroke: #038048; stroke-width: 1.0;"/><text fill="#000000" font-family="sans-serif" font-size="11" lengthAdjust="spacingAndGlyphs" textLength="139" x="26" y="219.8667">process(trs, sender, cb)</text><ellipse cx="17" cy="230.3633" fill="#84BE84" rx="3" ry="3" style="stroke: #038048; stroke-width: 1.0;"/><text fill="#000000" font-family="sans-serif" font-size="11" lengthAdjust="spacingAndGlyphs" textLength="74" x="26" y="232.6714">getBytes(trs)</text><ellipse cx="17" cy="243.168" fill="#84BE84" rx="3" ry="3" style="stroke: #038048; stroke-width: 1.0;"/><text fill="#000000" font-family="sans-serif" font-size="11" lengthAdjust="spacingAndGlyphs" textLength="160" x="26" y="245.4761">apply(trs, block, sender, cb)</text><ellipse cx="17" cy="255.9727" fill="#84BE84" rx="3" ry="3" style="stroke: #038048; stroke-width: 1.0;"/><text fill="#000000" font-family="sans-serif" font-size="11" lengthAdjust="spacingAndGlyphs" textLength="158" x="26" y="258.2808">undo(trs, block, sender, cb)</text><ellipse cx="17" cy="268.7773" fill="#84BE84" rx="3" ry="3" style="stroke: #038048; stroke-width: 1.0;"/><text fill="#000000" font-family="sans-serif" font-size="11" lengthAdjust="spacingAndGlyphs" textLength="195" x="26" y="271.0854">applyUnconfirmed(trs, sender, cb)</text><ellipse cx="17" cy="281.582" fill="#84BE84" rx="3" ry="3" style="stroke: #038048; stroke-width: 1.0;"/><text fill="#000000" font-family="sans-serif" font-size="11" lengthAdjust="spacingAndGlyphs" textLength="193" x="26" y="283.8901">undoUnconfirmed(trs, sender, cb)</text><ellipse cx="17" cy="294.3867" fill="#84BE84" rx="3" ry="3" style="stroke: #038048; stroke-width: 1.0;"/><text fill="#000000" font-family="sans-serif" font-size="11" lengthAdjust="spacingAndGlyphs" textLength="114" x="26" y="296.6948">objectNormalize(trs)</text><ellipse cx="17" cy="307.1914" fill="#84BE84" rx="3" ry="3" style="stroke: #038048; stroke-width: 1.0;"/><text fill="#000000" font-family="sans-serif" font-size="11" lengthAdjust="spacingAndGlyphs" textLength="71" x="26" y="309.4995">dbRead(raw)</text><ellipse cx="17" cy="319.9961" fill="#84BE84" rx="3" ry="3" style="stroke: #038048; stroke-width: 1.0;"/><text fill="#000000" font-family="sans-serif" font-size="11" lengthAdjust="spacingAndGlyphs" textLength="66" x="26" y="322.3042">dbSave(trs)</text><ellipse cx="17" cy="332.8008" fill="#84BE84" rx="3" ry="3" style="stroke: #038048; stroke-width: 1.0;"/><text fill="#000000" font-family="sans-serif" font-size="11" lengthAdjust="spacingAndGlyphs" textLength="104" x="26" y="335.1089">ready(trs, sender)</text><line style="stroke: #00008B; stroke-width: 1.0;" x1="7" x2="92.5" y1="139.2305" y2="139.2305"/><text fill="#000000" font-family="sans-serif" font-size="11" lengthAdjust="spacingAndGlyphs" textLength="48" x="92.5" y="142.5386">Methods</text><line style="stroke: #00008B; stroke-width: 1.0;" x1="140.5" x2="226" y1="139.2305" y2="139.2305"/><!--
@startuml
skinparam class {
	BackgroundColor AliceBlue|LightBlue
	ArrowColor Black
	BorderColor DarkBlue
}
class Delegate < logic > {
  - library
  - modules
  .. library ..
  - schema
  .. modules ..
  - accounts
  - - Methods - -
  + Delegate (schema)
  + bind (accounts)
  + create(data, trs)
  + calculateFee(trs, sender)
  + verify(trs, sender, cb)
  + process(trs, sender, cb)
  + getBytes(trs)
  + apply(trs, block, sender, cb)
  + undo(trs, block, sender, cb)
  + applyUnconfirmed(trs, sender, cb)
  + undoUnconfirmed(trs, sender, cb)
  + objectNormalize(trs)
  + dbRead(raw)
  + dbSave(trs)
  + ready(trs, sender)
}
@endtuml

PlantUML version 1.2017.12(Wed Apr 26 13:06:36 ART 2017)
(GPL source distribution)
Java Runtime: Java(TM) SE Runtime Environment
JVM: Java HotSpot(TM) 64-Bit Server VM
Java Version: 1.8.0_131-b11
Operating System: Linux
OS Version: 3.13.0-119-generic
Default Encoding: UTF-8
Language: en
Country: US
--></g></svg>