<?xml version="1.0" encoding="UTF-8" standalone="no"?><svg xmlns="http://www.w3.org/2000/svg" xmlns:xlink="http://www.w3.org/1999/xlink" contentScriptType="application/ecmascript" contentStyleType="text/css" height="432px" preserveAspectRatio="none" style="width:240px;height:432px;" version="1.1" viewBox="0 0 240 432" width="240px" zoomAndPan="magnify"><defs><linearGradient id="gn18gzylebdwi0" x1="0%" x2="100%" y1="50%" y2="50%"><stop offset="0%" stop-color="#F0F8FF"/><stop offset="100%" stop-color="#ADD8E6"/></linearGradient><filter height="300%" id="fn18gzylebdwi" width="300%" x="-1" y="-1"><feGaussianBlur result="blurOut" stdDeviation="2.0"/><feColorMatrix in="blurOut" result="blurOut2" type="matrix" values="0 0 0 0 0 0 0 0 0 0 0 0 0 0 0 0 0 0 .4 0"/><feOffset dx="4.0" dy="4.0" in="blurOut2" result="blurOut3"/><feBlend in="SourceGraphic" in2="blurOut3" mode="normal"/></filter></defs><g><!--class InTransfer--><rect fill="url(#gn18gzylebdwi0)" filter="url(#fn18gzylebdwi)" height="414.5313" id="InTransfer" style="stroke: #00008B; stroke-width: 1.5;" width="225" x="6" y="8.5"/><ellipse cx="62.25" cy="24.5" fill="#ADD1B2" rx="11" ry="11" style="stroke: #00008B; stroke-width: 1.0;"/><path d="M65.2188,30.1406 Q64.6406,30.4375 64,30.5859 Q63.3594,30.7344 62.6563,30.7344 Q60.1563,30.7344 58.8359,29.0859 Q57.5156,27.4375 57.5156,24.3125 Q57.5156,21.1875 58.8359,19.5313 Q60.1563,17.875 62.6563,17.875 Q63.3594,17.875 64.0078,18.0313 Q64.6563,18.1875 65.2188,18.4844 L65.2188,21.2031 Q64.5938,20.625 64,20.3516 Q63.4063,20.0781 62.7813,20.0781 Q61.4375,20.0781 60.75,21.1484 Q60.0625,22.2188 60.0625,24.3125 Q60.0625,26.4063 60.75,27.4766 Q61.4375,28.5469 62.7813,28.5469 Q63.4063,28.5469 64,28.2734 Q64.5938,28 65.2188,27.4219 L65.2188,30.1406 Z "/><text fill="#000000" font-family="sans-serif" font-size="12" lengthAdjust="spacingAndGlyphs" textLength="63" x="82.75" y="28.6543">InTransfer</text><rect fill="#FFFFFF" height="15.9688" style="stroke: #000000; stroke-width: 1.0; stroke-dasharray: 2.0,2.0;" width="39" x="195" y="5.5"/><text fill="#000000" font-family="sans-serif" font-size="12" font-style="italic" lengthAdjust="spacingAndGlyphs" textLength="29" x="200" y="17.6387">logic</text><line style="stroke: #00008B; stroke-width: 1.5;" x1="7" x2="230" y1="40.5" y2="40.5"/><rect fill="none" height="6" style="stroke: #C82930; stroke-width: 1.0;" width="6" x="14" y="49.4023"/><text fill="#000000" font-family="sans-serif" font-size="11" lengthAdjust="spacingAndGlyphs" textLength="49" x="26" y="54.7104">modules</text><rect fill="none" height="6" style="stroke: #C82930; stroke-width: 1.0;" width="6" x="14" y="62.207"/><text fill="#000000" font-family="sans-serif" font-size="11" lengthAdjust="spacingAndGlyphs" textLength="36" x="26" y="67.5151">library</text><rect fill="none" height="6" style="stroke: #C82930; stroke-width: 1.0;" width="6" x="14" y="75.0117"/><text fill="#000000" font-family="sans-serif" font-size="11" lengthAdjust="spacingAndGlyphs" textLength="40" x="26" y="80.3198">shared</text><rect fill="none" height="6" style="stroke: #C82930; stroke-width: 1.0;" width="6" x="14" y="104.6211"/><text fill="#000000" font-family="sans-serif" font-size="11" lengthAdjust="spacingAndGlyphs" textLength="14" x="26" y="109.9292">db</text><rect fill="none" height="6" style="stroke: #C82930; stroke-width: 1.0;" width="6" x="14" y="117.4258"/><text fill="#000000" font-family="sans-serif" font-size="11" lengthAdjust="spacingAndGlyphs" textLength="45" x="26" y="122.7339">schema</text><line style="stroke: #00008B; stroke-width: 1.0; stroke-dasharray: 1.0,2.0;" x1="7" x2="81.5" y1="93.3164" y2="93.3164"/><text fill="#000000" font-family="sans-serif" font-size="11" lengthAdjust="spacingAndGlyphs" textLength="74" x="81.5" y="96.6245">library object</text><line style="stroke: #00008B; stroke-width: 1.0; stroke-dasharray: 1.0,2.0;" x1="155.5" x2="230" y1="93.3164" y2="93.3164"/><rect fill="none" height="6" style="stroke: #C82930; stroke-width: 1.0;" width="6" x="14" y="147.0352"/><text fill="#000000" font-family="sans-serif" font-size="11" lengthAdjust="spacingAndGlyphs" textLength="51" x="26" y="152.3433">accounts</text><rect fill="none" height="6" style="stroke: #C82930; stroke-width: 1.0;" width="6" x="14" y="159.8398"/><text fill="#000000" font-family="sans-serif" font-size="11" lengthAdjust="spacingAndGlyphs" textLength="40" x="26" y="165.1479">rounds</text><line style="stroke: #00008B; stroke-width: 1.0; stroke-dasharray: 1.0,2.0;" x1="7" x2="94" y1="135.7305" y2="135.7305"/><text fill="#000000" font-family="sans-serif" font-size="11" lengthAdjust="spacingAndGlyphs" textLength="49" x="94" y="139.0386">modules</text><line style="stroke: #00008B; stroke-width: 1.0; stroke-dasharray: 1.0,2.0;" x1="143" x2="230" y1="135.7305" y2="135.7305"/><rect fill="none" height="6" style="stroke: #C82930; stroke-width: 1.0;" width="6" x="14" y="189.4492"/><text fill="#000000" font-family="sans-serif" font-size="11" lengthAdjust="spacingAndGlyphs" textLength="65" x="26" y="194.7573">getGenesis</text><line style="stroke: #00008B; stroke-width: 1.0; stroke-dasharray: 1.0,2.0;" x1="7" x2="98.5" y1="178.1445" y2="178.1445"/><text fill="#000000" font-family="sans-serif" font-size="11" lengthAdjust="spacingAndGlyphs" textLength="40" x="98.5" y="181.4526">shared</text><line style="stroke: #00008B; stroke-width: 1.0; stroke-dasharray: 1.0,2.0;" x1="138.5" x2="230" y1="178.1445" y2="178.1445"/><ellipse cx="17" cy="222.0586" fill="#84BE84" rx="3" ry="3" style="stroke: #038048; stroke-width: 1.0;"/><text fill="#000000" font-family="sans-serif" font-size="11" lengthAdjust="spacingAndGlyphs" textLength="138" x="26" y="224.3667">InTransfer (db, schema)</text><ellipse cx="17" cy="234.8633" fill="#84BE84" rx="3" ry="3" style="stroke: #038048; stroke-width: 1.0;"/><text fill="#000000" font-family="sans-serif" font-size="11" lengthAdjust="spacingAndGlyphs" textLength="183" x="26" y="237.1714">bind (accounts, rounds, shared)</text><ellipse cx="17" cy="247.668" fill="#84BE84" rx="3" ry="3" style="stroke: #038048; stroke-width: 1.0;"/><text fill="#000000" font-family="sans-serif" font-size="11" lengthAdjust="spacingAndGlyphs" textLength="97" x="26" y="249.9761">create (data, trs)</text><ellipse cx="17" cy="260.4727" fill="#84BE84" rx="3" ry="3" style="stroke: #038048; stroke-width: 1.0;"/><text fill="#000000" font-family="sans-serif" font-size="11" lengthAdjust="spacingAndGlyphs" textLength="146" x="26" y="262.7808">calculateFee (trs, sender)</text><ellipse cx="17" cy="273.2773" fill="#84BE84" rx="3" ry="3" style="stroke: #038048; stroke-width: 1.0;"/><text fill="#000000" font-family="sans-serif" font-size="11" lengthAdjust="spacingAndGlyphs" textLength="128" x="26" y="275.5854">verify (trs, sender, cb)</text><ellipse cx="17" cy="286.082" fill="#84BE84" rx="3" ry="3" style="stroke: #038048; stroke-width: 1.0;"/><text fill="#000000" font-family="sans-serif" font-size="11" lengthAdjust="spacingAndGlyphs" textLength="143" x="26" y="288.3901">process (trs, sender, cb)</text><ellipse cx="17" cy="298.8867" fill="#84BE84" rx="3" ry="3" style="stroke: #038048; stroke-width: 1.0;"/><text fill="#000000" font-family="sans-serif" font-size="11" lengthAdjust="spacingAndGlyphs" textLength="78" x="26" y="301.1948">getBytes (trs)</text><ellipse cx="17" cy="311.6914" fill="#84BE84" rx="3" ry="3" style="stroke: #038048; stroke-width: 1.0;"/><text fill="#000000" font-family="sans-serif" font-size="11" lengthAdjust="spacingAndGlyphs" textLength="164" x="26" y="313.9995">apply (trs, block, sender, cb)</text><ellipse cx="17" cy="324.4961" fill="#84BE84" rx="3" ry="3" style="stroke: #038048; stroke-width: 1.0;"/><text fill="#000000" font-family="sans-serif" font-size="11" lengthAdjust="spacingAndGlyphs" textLength="162" x="26" y="326.8042">undo (trs, block, sender, cb)</text><ellipse cx="17" cy="337.3008" fill="#84BE84" rx="3" ry="3" style="stroke: #038048; stroke-width: 1.0;"/><text fill="#000000" font-family="sans-serif" font-size="11" lengthAdjust="spacingAndGlyphs" textLength="199" x="26" y="339.6089">applyUnconfirmed (trs, sender, cb)</text><ellipse cx="17" cy="350.1055" fill="#84BE84" rx="3" ry="3" style="stroke: #038048; stroke-width: 1.0;"/><text fill="#000000" font-family="sans-serif" font-size="11" lengthAdjust="spacingAndGlyphs" textLength="197" x="26" y="352.4136">undoUnconfirmed (trs, sender, cb)</text><ellipse cx="17" cy="362.9102" fill="#84BE84" rx="3" ry="3" style="stroke: #038048; stroke-width: 1.0;"/><text fill="#000000" font-family="sans-serif" font-size="11" lengthAdjust="spacingAndGlyphs" textLength="118" x="26" y="365.2183">objectNormalize (trs)</text><ellipse cx="17" cy="375.7148" fill="#84BE84" rx="3" ry="3" style="stroke: #038048; stroke-width: 1.0;"/><text fill="#000000" font-family="sans-serif" font-size="11" lengthAdjust="spacingAndGlyphs" textLength="75" x="26" y="378.0229">dbRead (raw)</text><ellipse cx="17" cy="388.5195" fill="#84BE84" rx="3" ry="3" style="stroke: #038048; stroke-width: 1.0;"/><text fill="#000000" font-family="sans-serif" font-size="11" lengthAdjust="spacingAndGlyphs" textLength="70" x="26" y="390.8276">dbSave (trs)</text><ellipse cx="17" cy="401.3242" fill="#84BE84" rx="3" ry="3" style="stroke: #038048; stroke-width: 1.0;"/><text fill="#000000" font-family="sans-serif" font-size="11" lengthAdjust="spacingAndGlyphs" textLength="104" x="26" y="403.6323">afterSave (trs, cb)</text><ellipse cx="17" cy="414.1289" fill="#84BE84" rx="3" ry="3" style="stroke: #038048; stroke-width: 1.0;"/><text fill="#000000" font-family="sans-serif" font-size="11" lengthAdjust="spacingAndGlyphs" textLength="108" x="26" y="416.437">ready (trs, sender)</text><line style="stroke: #00008B; stroke-width: 1.0;" x1="7" x2="94.5" y1="207.7539" y2="207.7539"/><text fill="#000000" font-family="sans-serif" font-size="11" lengthAdjust="spacingAndGlyphs" textLength="48" x="94.5" y="211.062">Methods</text><line style="stroke: #00008B; stroke-width: 1.0;" x1="142.5" x2="230" y1="207.7539" y2="207.7539"/><!--
@startuml
skinparam class {
	BackgroundColor AliceBlue|LightBlue
	ArrowColor Black
	BorderColor DarkBlue
}
class InTransfer < logic > {
  - modules
  - library
  - shared
  .. library object ..
  - db
  - schema
  .. modules ..
  - accounts
  - rounds
  .. shared ..
  - getGenesis
  - - Methods - -
  + InTransfer (db, schema)
  + bind (accounts, rounds, shared)
  + create (data, trs)
  + calculateFee (trs, sender)
  + verify (trs, sender, cb)
  + process (trs, sender, cb)
  + getBytes (trs)
  + apply (trs, block, sender, cb)
  + undo (trs, block, sender, cb)
  + applyUnconfirmed (trs, sender, cb)
  + undoUnconfirmed (trs, sender, cb)
  + objectNormalize (trs)
  + dbRead (raw)
  + dbSave (trs)
  + afterSave (trs, cb)
  + ready (trs, sender)
}
@endtuml

PlantUML version 1.2017.12(Wed Apr 26 13:06:36 ART 2017)
(GPL source distribution)
Java Runtime: Java(TM) SE Runtime Environment
JVM: Java HotSpot(TM) 64-Bit Server VM
Java Version: 1.8.0_131-b11
Operating System: Linux
OS Version: 3.13.0-119-generic
Default Encoding: UTF-8
Language: en
Country: US
--></g></svg>