<?xml version="1.0" encoding="UTF-8" standalone="no"?><svg xmlns="http://www.w3.org/2000/svg" xmlns:xlink="http://www.w3.org/1999/xlink" contentScriptType="application/ecmascript" contentStyleType="text/css" height="428px" preserveAspectRatio="none" style="width:240px;height:428px;" version="1.1" viewBox="0 0 240 428" width="240px" zoomAndPan="magnify"><defs><linearGradient id="gqwazstheb1da0" x1="0%" x2="100%" y1="50%" y2="50%"><stop offset="0%" stop-color="#F0F8FF"/><stop offset="100%" stop-color="#ADD8E6"/></linearGradient><filter height="300%" id="fqwazstheb1da" width="300%" x="-1" y="-1"><feGaussianBlur result="blurOut" stdDeviation="2.0"/><feColorMatrix in="blurOut" result="blurOut2" type="matrix" values="0 0 0 0 0 0 0 0 0 0 0 0 0 0 0 0 0 0 .4 0"/><feOffset dx="4.0" dy="4.0" in="blurOut2" result="blurOut3"/><feBlend in="SourceGraphic" in2="blurOut3" mode="normal"/></filter></defs><g><!--class OutTransfer--><rect fill="url(#gqwazstheb1da0)" filter="url(#fqwazstheb1da)" height="410.5313" id="OutTransfer" style="stroke: #00008B; stroke-width: 1.5;" width="225" x="6" y="8.5"/><ellipse cx="56.75" cy="24.5" fill="#ADD1B2" rx="11" ry="11" style="stroke: #00008B; stroke-width: 1.0;"/><path d="M59.7188,30.1406 Q59.1406,30.4375 58.5,30.5859 Q57.8594,30.7344 57.1563,30.7344 Q54.6563,30.7344 53.3359,29.0859 Q52.0156,27.4375 52.0156,24.3125 Q52.0156,21.1875 53.3359,19.5313 Q54.6563,17.875 57.1563,17.875 Q57.8594,17.875 58.5078,18.0313 Q59.1563,18.1875 59.7188,18.4844 L59.7188,21.2031 Q59.0938,20.625 58.5,20.3516 Q57.9063,20.0781 57.2813,20.0781 Q55.9375,20.0781 55.25,21.1484 Q54.5625,22.2188 54.5625,24.3125 Q54.5625,26.4063 55.25,27.4766 Q55.9375,28.5469 57.2813,28.5469 Q57.9063,28.5469 58.5,28.2734 Q59.0938,28 59.7188,27.4219 L59.7188,30.1406 Z "/><text fill="#000000" font-family="sans-serif" font-size="12" lengthAdjust="spacingAndGlyphs" textLength="74" x="77.25" y="28.6543">OutTransfer</text><rect fill="#FFFFFF" height="15.9688" style="stroke: #000000; stroke-width: 1.0; stroke-dasharray: 2.0,2.0;" width="39" x="195" y="5.5"/><text fill="#000000" font-family="sans-serif" font-size="12" font-style="italic" lengthAdjust="spacingAndGlyphs" textLength="29" x="200" y="17.6387">logic</text><line style="stroke: #00008B; stroke-width: 1.5;" x1="7" x2="230" y1="40.5" y2="40.5"/><rect fill="none" height="6" style="stroke: #C82930; stroke-width: 1.0;" width="6" x="14" y="49.4023"/><text fill="#000000" font-family="sans-serif" font-size="11" lengthAdjust="spacingAndGlyphs" textLength="73" x="26" y="54.7104">__private: {}</text><rect fill="none" height="6" style="stroke: #C82930; stroke-width: 1.0;" width="6" x="14" y="62.207"/><text fill="#000000" font-family="sans-serif" font-size="11" lengthAdjust="spacingAndGlyphs" textLength="36" x="26" y="67.5151">library</text><rect fill="none" height="6" style="stroke: #C82930; stroke-width: 1.0;" width="6" x="14" y="75.0117"/><text fill="#000000" font-family="sans-serif" font-size="11" lengthAdjust="spacingAndGlyphs" textLength="49" x="26" y="80.3198">modules</text><rect fill="none" height="6" style="stroke: #C82930; stroke-width: 1.0;" width="6" x="14" y="104.6211"/><text fill="#000000" font-family="sans-serif" font-size="11" lengthAdjust="spacingAndGlyphs" textLength="14" x="26" y="109.9292">db</text><rect fill="none" height="6" style="stroke: #C82930; stroke-width: 1.0;" width="6" x="14" y="117.4258"/><text fill="#000000" font-family="sans-serif" font-size="11" lengthAdjust="spacingAndGlyphs" textLength="45" x="26" y="122.7339">schema</text><rect fill="none" height="6" style="stroke: #C82930; stroke-width: 1.0;" width="6" x="14" y="130.2305"/><text fill="#000000" font-family="sans-serif" font-size="11" lengthAdjust="spacingAndGlyphs" textLength="36" x="26" y="135.5386">logger</text><line style="stroke: #00008B; stroke-width: 1.0; stroke-dasharray: 1.0,2.0;" x1="7" x2="100.5" y1="93.3164" y2="93.3164"/><text fill="#000000" font-family="sans-serif" font-size="11" lengthAdjust="spacingAndGlyphs" textLength="36" x="100.5" y="96.6245">library</text><line style="stroke: #00008B; stroke-width: 1.0; stroke-dasharray: 1.0,2.0;" x1="136.5" x2="230" y1="93.3164" y2="93.3164"/><rect fill="none" height="6" style="stroke: #C82930; stroke-width: 1.0;" width="6" x="14" y="159.8398"/><text fill="#000000" font-family="sans-serif" font-size="11" lengthAdjust="spacingAndGlyphs" textLength="51" x="26" y="165.1479">accounts</text><rect fill="none" height="6" style="stroke: #C82930; stroke-width: 1.0;" width="6" x="14" y="172.6445"/><text fill="#000000" font-family="sans-serif" font-size="11" lengthAdjust="spacingAndGlyphs" textLength="40" x="26" y="177.9526">rounds</text><rect fill="none" height="6" style="stroke: #C82930; stroke-width: 1.0;" width="6" x="14" y="185.4492"/><text fill="#000000" font-family="sans-serif" font-size="11" lengthAdjust="spacingAndGlyphs" textLength="35" x="26" y="190.7573">dapps</text><line style="stroke: #00008B; stroke-width: 1.0; stroke-dasharray: 1.0,2.0;" x1="7" x2="94" y1="148.5352" y2="148.5352"/><text fill="#000000" font-family="sans-serif" font-size="11" lengthAdjust="spacingAndGlyphs" textLength="49" x="94" y="151.8433">modules</text><line style="stroke: #00008B; stroke-width: 1.0; stroke-dasharray: 1.0,2.0;" x1="143" x2="230" y1="148.5352" y2="148.5352"/><ellipse cx="17" cy="218.0586" fill="#84BE84" rx="3" ry="3" style="stroke: #038048; stroke-width: 1.0;"/><text fill="#000000" font-family="sans-serif" font-size="11" lengthAdjust="spacingAndGlyphs" textLength="192" x="26" y="220.3667">OutTransfer (db, schema, logger)</text><ellipse cx="17" cy="230.8633" fill="#84BE84" rx="3" ry="3" style="stroke: #038048; stroke-width: 1.0;"/><text fill="#000000" font-family="sans-serif" font-size="11" lengthAdjust="spacingAndGlyphs" textLength="178" x="26" y="233.1714">bind (accounts, rounds, dapps)</text><ellipse cx="17" cy="243.668" fill="#84BE84" rx="3" ry="3" style="stroke: #038048; stroke-width: 1.0;"/><text fill="#000000" font-family="sans-serif" font-size="11" lengthAdjust="spacingAndGlyphs" textLength="97" x="26" y="245.9761">create (data, trs)</text><ellipse cx="17" cy="256.4727" fill="#84BE84" rx="3" ry="3" style="stroke: #038048; stroke-width: 1.0;"/><text fill="#000000" font-family="sans-serif" font-size="11" lengthAdjust="spacingAndGlyphs" textLength="146" x="26" y="258.7808">calculateFee (trs, sender)</text><ellipse cx="17" cy="269.2773" fill="#84BE84" rx="3" ry="3" style="stroke: #038048; stroke-width: 1.0;"/><text fill="#000000" font-family="sans-serif" font-size="11" lengthAdjust="spacingAndGlyphs" textLength="128" x="26" y="271.5854">verify (trs, sender, cb)</text><ellipse cx="17" cy="282.082" fill="#84BE84" rx="3" ry="3" style="stroke: #038048; stroke-width: 1.0;"/><text fill="#000000" font-family="sans-serif" font-size="11" lengthAdjust="spacingAndGlyphs" textLength="143" x="26" y="284.3901">process (trs, sender, cb)</text><ellipse cx="17" cy="294.8867" fill="#84BE84" rx="3" ry="3" style="stroke: #038048; stroke-width: 1.0;"/><text fill="#000000" font-family="sans-serif" font-size="11" lengthAdjust="spacingAndGlyphs" textLength="78" x="26" y="297.1948">getBytes (trs)</text><ellipse cx="17" cy="307.6914" fill="#84BE84" rx="3" ry="3" style="stroke: #038048; stroke-width: 1.0;"/><text fill="#000000" font-family="sans-serif" font-size="11" lengthAdjust="spacingAndGlyphs" textLength="164" x="26" y="309.9995">apply (trs, block, sender, cb)</text><ellipse cx="17" cy="320.4961" fill="#84BE84" rx="3" ry="3" style="stroke: #038048; stroke-width: 1.0;"/><text fill="#000000" font-family="sans-serif" font-size="11" lengthAdjust="spacingAndGlyphs" textLength="162" x="26" y="322.8042">undo (trs, block, sender, cb)</text><ellipse cx="17" cy="333.3008" fill="#84BE84" rx="3" ry="3" style="stroke: #038048; stroke-width: 1.0;"/><text fill="#000000" font-family="sans-serif" font-size="11" lengthAdjust="spacingAndGlyphs" textLength="199" x="26" y="335.6089">applyUnconfirmed (trs, sender, cb)</text><ellipse cx="17" cy="346.1055" fill="#84BE84" rx="3" ry="3" style="stroke: #038048; stroke-width: 1.0;"/><text fill="#000000" font-family="sans-serif" font-size="11" lengthAdjust="spacingAndGlyphs" textLength="197" x="26" y="348.4136">undoUnconfirmed (trs, sender, cb)</text><ellipse cx="17" cy="358.9102" fill="#84BE84" rx="3" ry="3" style="stroke: #038048; stroke-width: 1.0;"/><text fill="#000000" font-family="sans-serif" font-size="11" lengthAdjust="spacingAndGlyphs" textLength="118" x="26" y="361.2183">objectNormalize (trs)</text><ellipse cx="17" cy="371.7148" fill="#84BE84" rx="3" ry="3" style="stroke: #038048; stroke-width: 1.0;"/><text fill="#000000" font-family="sans-serif" font-size="11" lengthAdjust="spacingAndGlyphs" textLength="75" x="26" y="374.0229">dbRead (raw)</text><ellipse cx="17" cy="384.5195" fill="#84BE84" rx="3" ry="3" style="stroke: #038048; stroke-width: 1.0;"/><text fill="#000000" font-family="sans-serif" font-size="11" lengthAdjust="spacingAndGlyphs" textLength="70" x="26" y="386.8276">dbSave (trs)</text><ellipse cx="17" cy="397.3242" fill="#84BE84" rx="3" ry="3" style="stroke: #038048; stroke-width: 1.0;"/><text fill="#000000" font-family="sans-serif" font-size="11" lengthAdjust="spacingAndGlyphs" textLength="104" x="26" y="399.6323">afterSave (trs, cb)</text><ellipse cx="17" cy="410.1289" fill="#84BE84" rx="3" ry="3" style="stroke: #038048; stroke-width: 1.0;"/><text fill="#000000" font-family="sans-serif" font-size="11" lengthAdjust="spacingAndGlyphs" textLength="108" x="26" y="412.437">ready (trs, sender)</text><line style="stroke: #00008B; stroke-width: 1.0;" x1="7" x2="94.5" y1="203.7539" y2="203.7539"/><text fill="#000000" font-family="sans-serif" font-size="11" lengthAdjust="spacingAndGlyphs" textLength="48" x="94.5" y="207.062">Methods</text><line style="stroke: #00008B; stroke-width: 1.0;" x1="142.5" x2="230" y1="203.7539" y2="203.7539"/><!--
@startuml
skinparam class {
	BackgroundColor AliceBlue|LightBlue
	ArrowColor Black
	BorderColor DarkBlue
}
class OutTransfer < logic > {
  - __private: {}
  - library
  - modules
  .. library..
  - db
  - schema
  - logger
  .. modules ..
  - accounts
  - rounds
  - dapps
  - - Methods - -
  + OutTransfer (db, schema, logger)
  + bind (accounts, rounds, dapps)
  + create (data, trs)
  + calculateFee (trs, sender)
  + verify (trs, sender, cb)
  + process (trs, sender, cb)
  + getBytes (trs)
  + apply (trs, block, sender, cb)
  + undo (trs, block, sender, cb)
  + applyUnconfirmed (trs, sender, cb)
  + undoUnconfirmed (trs, sender, cb)
  + objectNormalize (trs)
  + dbRead (raw)
  + dbSave (trs)
  + afterSave (trs, cb)
  + ready (trs, sender)
}
@endtuml

PlantUML version 1.2017.12(Wed Apr 26 13:06:36 ART 2017)
(GPL source distribution)
Java Runtime: Java(TM) SE Runtime Environment
JVM: Java HotSpot(TM) 64-Bit Server VM
Java Version: 1.8.0_131-b11
Operating System: Linux
OS Version: 3.13.0-119-generic
Default Encoding: UTF-8
Language: en
Country: US
--></g></svg>