<?xml version="1.0" encoding="UTF-8" standalone="no"?><svg xmlns="http://www.w3.org/2000/svg" xmlns:xlink="http://www.w3.org/1999/xlink" contentScriptType="application/ecmascript" contentStyleType="text/css" height="383px" preserveAspectRatio="none" style="width:182px;height:383px;" version="1.1" viewBox="0 0 182 383" width="182px" zoomAndPan="magnify"><defs><linearGradient id="g13u0av5o5on1z0" x1="0%" x2="100%" y1="50%" y2="50%"><stop offset="0%" stop-color="#F0F8FF"/><stop offset="100%" stop-color="#ADD8E6"/></linearGradient><filter height="300%" id="f13u0av5o5on1z" width="300%" x="-1" y="-1"><feGaussianBlur result="blurOut" stdDeviation="2.0"/><feColorMatrix in="blurOut" result="blurOut2" type="matrix" values="0 0 0 0 0 0 0 0 0 0 0 0 0 0 0 0 0 0 .4 0"/><feOffset dx="4.0" dy="4.0" in="blurOut2" result="blurOut3"/><feBlend in="SourceGraphic" in2="blurOut3" mode="normal"/></filter></defs><g><!--class Peers_--><rect fill="url(#g13u0av5o5on1z0)" filter="url(#f13u0av5o5on1z)" height="240.0703" id="Peers_" style="stroke: #00008B; stroke-width: 1.5;" width="167" x="6" y="8"/><ellipse cx="44.4" cy="24" fill="#ADD1B2" rx="11" ry="11" style="stroke: #00008B; stroke-width: 1.0;"/><path d="M47.3688,29.6406 Q46.7906,29.9375 46.15,30.0859 Q45.5094,30.2344 44.8063,30.2344 Q42.3063,30.2344 40.9859,28.5859 Q39.6656,26.9375 39.6656,23.8125 Q39.6656,20.6875 40.9859,19.0313 Q42.3063,17.375 44.8063,17.375 Q45.5094,17.375 46.1578,17.5313 Q46.8063,17.6875 47.3688,17.9844 L47.3688,20.7031 Q46.7438,20.125 46.15,19.8516 Q45.5563,19.5781 44.9313,19.5781 Q43.5875,19.5781 42.9,20.6484 Q42.2125,21.7188 42.2125,23.8125 Q42.2125,25.9063 42.9,26.9766 Q43.5875,28.0469 44.9313,28.0469 Q45.5563,28.0469 46.15,27.7734 Q46.7438,27.5 47.3688,26.9219 L47.3688,29.6406 Z "/><text fill="#000000" font-family="sans-serif" font-size="12" lengthAdjust="spacingAndGlyphs" textLength="42" x="63.6" y="28.1543">Peers_</text><rect fill="#FFFFFF" height="15.9688" style="stroke: #000000; stroke-width: 1.0; stroke-dasharray: 2.0,2.0;" width="39" x="137" y="5"/><text fill="#000000" font-family="sans-serif" font-size="12" font-style="italic" lengthAdjust="spacingAndGlyphs" textLength="29" x="142" y="17.1387">logic</text><line style="stroke: #00008B; stroke-width: 1.5;" x1="7" x2="172" y1="40" y2="40"/><rect fill="none" height="6" style="stroke: #C82930; stroke-width: 1.0;" width="6" x="14" y="48.9023"/><text fill="#000000" font-family="sans-serif" font-size="11" lengthAdjust="spacingAndGlyphs" textLength="73" x="26" y="54.2104">__private: {}</text><rect fill="none" height="6" style="stroke: #C82930; stroke-width: 1.0;" width="6" x="14" y="61.707"/><text fill="#000000" font-family="sans-serif" font-size="11" lengthAdjust="spacingAndGlyphs" textLength="50" x="26" y="67.0151">self: this</text><rect fill="none" height="6" style="stroke: #C82930; stroke-width: 1.0;" width="6" x="14" y="91.3164"/><text fill="#000000" font-family="sans-serif" font-size="11" lengthAdjust="spacingAndGlyphs" textLength="36" x="26" y="96.6245">logger</text><line style="stroke: #00008B; stroke-width: 1.0; stroke-dasharray: 1.0,2.0;" x1="7" x2="52.5" y1="80.0117" y2="80.0117"/><text fill="#000000" font-family="sans-serif" font-size="11" lengthAdjust="spacingAndGlyphs" textLength="74" x="52.5" y="83.3198">library object</text><line style="stroke: #00008B; stroke-width: 1.0; stroke-dasharray: 1.0,2.0;" x1="126.5" x2="172" y1="80.0117" y2="80.0117"/><ellipse cx="17" cy="123.9258" fill="#84BE84" rx="3" ry="3" style="stroke: #038048; stroke-width: 1.0;"/><text fill="#000000" font-family="sans-serif" font-size="11" lengthAdjust="spacingAndGlyphs" textLength="102" x="26" y="126.2339">Peers (logger, cb)</text><ellipse cx="17" cy="136.7305" fill="#84BE84" rx="3" ry="3" style="stroke: #038048; stroke-width: 1.0;"/><text fill="#000000" font-family="sans-serif" font-size="11" lengthAdjust="spacingAndGlyphs" textLength="74" x="26" y="139.0386">create (peer)</text><ellipse cx="17" cy="149.5352" fill="#84BE84" rx="3" ry="3" style="stroke: #038048; stroke-width: 1.0;"/><text fill="#000000" font-family="sans-serif" font-size="11" lengthAdjust="spacingAndGlyphs" textLength="72" x="26" y="151.8433">exists (peer)</text><ellipse cx="17" cy="162.3398" fill="#84BE84" rx="3" ry="3" style="stroke: #038048; stroke-width: 1.0;"/><text fill="#000000" font-family="sans-serif" font-size="11" lengthAdjust="spacingAndGlyphs" textLength="56" x="26" y="164.6479">get (peer)</text><ellipse cx="17" cy="175.1445" fill="#84BE84" rx="3" ry="3" style="stroke: #038048; stroke-width: 1.0;"/><text fill="#000000" font-family="sans-serif" font-size="11" lengthAdjust="spacingAndGlyphs" textLength="141" x="26" y="177.4526">upsert (peer, insertOnly)</text><ellipse cx="17" cy="187.9492" fill="#84BE84" rx="3" ry="3" style="stroke: #038048; stroke-width: 1.0;"/><text fill="#000000" font-family="sans-serif" font-size="11" lengthAdjust="spacingAndGlyphs" textLength="130" x="26" y="190.2573">ban (ip, port, seconds)</text><ellipse cx="17" cy="200.7539" fill="#84BE84" rx="3" ry="3" style="stroke: #038048; stroke-width: 1.0;"/><text fill="#000000" font-family="sans-serif" font-size="11" lengthAdjust="spacingAndGlyphs" textLength="73" x="26" y="203.062">unban (peer)</text><ellipse cx="17" cy="213.5586" fill="#84BE84" rx="3" ry="3" style="stroke: #038048; stroke-width: 1.0;"/><text fill="#000000" font-family="sans-serif" font-size="11" lengthAdjust="spacingAndGlyphs" textLength="81" x="26" y="215.8667">remove (peer)</text><ellipse cx="17" cy="226.3633" fill="#84BE84" rx="3" ry="3" style="stroke: #038048; stroke-width: 1.0;"/><text fill="#000000" font-family="sans-serif" font-size="11" lengthAdjust="spacingAndGlyphs" textLength="84" x="26" y="228.6714">list (normalize)</text><ellipse cx="17" cy="239.168" fill="#84BE84" rx="3" ry="3" style="stroke: #038048; stroke-width: 1.0;"/><text fill="#000000" font-family="sans-serif" font-size="11" lengthAdjust="spacingAndGlyphs" textLength="70" x="26" y="241.4761">bind (scope)</text><line style="stroke: #00008B; stroke-width: 1.0;" x1="7" x2="65.5" y1="109.6211" y2="109.6211"/><text fill="#000000" font-family="sans-serif" font-size="11" lengthAdjust="spacingAndGlyphs" textLength="48" x="65.5" y="112.9292">Methods</text><line style="stroke: #00008B; stroke-width: 1.0;" x1="113.5" x2="172" y1="109.6211" y2="109.6211"/><!--class Peer--><rect fill="url(#g13u0av5o5on1z0)" filter="url(#f13u0av5o5on1z)" height="48" id="Peer" style="stroke: #00008B; stroke-width: 1.5;" width="61" x="59" y="326"/><ellipse cx="74" cy="342" fill="#ADD1B2" rx="11" ry="11" style="stroke: #00008B; stroke-width: 1.0;"/><path d="M76.9688,347.6406 Q76.3906,347.9375 75.75,348.0859 Q75.1094,348.2344 74.4063,348.2344 Q71.9063,348.2344 70.5859,346.5859 Q69.2656,344.9375 69.2656,341.8125 Q69.2656,338.6875 70.5859,337.0313 Q71.9063,335.375 74.4063,335.375 Q75.1094,335.375 75.7578,335.5313 Q76.4063,335.6875 76.9688,335.9844 L76.9688,338.7031 Q76.3438,338.125 75.75,337.8516 Q75.1563,337.5781 74.5313,337.5781 Q73.1875,337.5781 72.5,338.6484 Q71.8125,339.7188 71.8125,341.8125 Q71.8125,343.9063 72.5,344.9766 Q73.1875,346.0469 74.5313,346.0469 Q75.1563,346.0469 75.75,345.7734 Q76.3438,345.5 76.9688,344.9219 L76.9688,347.6406 Z "/><text fill="#000000" font-family="sans-serif" font-size="12" lengthAdjust="spacingAndGlyphs" textLength="29" x="88" y="346.1543">Peer</text><line style="stroke: #00008B; stroke-width: 1.5;" x1="60" x2="119" y1="358" y2="358"/><line style="stroke: #00008B; stroke-width: 1.5;" x1="60" x2="119" y1="366" y2="366"/><!--link Peers_ to Peer--><path d="M89.25,268.346 C89.25,290.5773 89.25,311.0836 89.25,325.8558 " fill="none" id="Peers_-Peer" style="stroke: #000000; stroke-width: 1.0;"/><polygon fill="none" points="82.2501,268.014,89.25,248.014,96.2501,268.014,82.2501,268.014" style="stroke: #000000; stroke-width: 1.0;"/><text fill="#000000" font-family="sans-serif" font-size="13" lengthAdjust="spacingAndGlyphs" textLength="25" x="90.25" y="291.0669">new</text><!--
@startuml
skinparam class {
	BackgroundColor AliceBlue|LightBlue
	ArrowColor Black
	BorderColor DarkBlue
}
class Peers_ < logic > {
  - __private: {}
  - self: this
  .. library object ..
  - logger
  - - Methods - -
  + Peers (logger, cb)
  + create (peer)
  + exists (peer)
  + get (peer)
  + upsert (peer, insertOnly)
  + ban (ip, port, seconds)
  + unban (peer)
  + remove (peer)
  + list (normalize)
  + bind (scope)
}

Peers_ ^- - Peer: new

@endtuml

PlantUML version 1.2017.12(Wed Apr 26 13:06:36 ART 2017)
(GPL source distribution)
Java Runtime: Java(TM) SE Runtime Environment
JVM: Java HotSpot(TM) 64-Bit Server VM
Java Version: 1.8.0_131-b11
Operating System: Linux
OS Version: 3.13.0-119-generic
Default Encoding: UTF-8
Language: en
Country: US
--></g></svg>