<?xml version="1.0" encoding="UTF-8" standalone="no"?><svg xmlns="http://www.w3.org/2000/svg" xmlns:xlink="http://www.w3.org/1999/xlink" contentScriptType="application/ecmascript" contentStyleType="text/css" height="402px" preserveAspectRatio="none" style="width:240px;height:402px;" version="1.1" viewBox="0 0 240 402" width="240px" zoomAndPan="magnify"><defs><linearGradient id="g1hln1au22932s0" x1="0%" x2="100%" y1="50%" y2="50%"><stop offset="0%" stop-color="#F0F8FF"/><stop offset="100%" stop-color="#ADD8E6"/></linearGradient><filter height="300%" id="f1hln1au22932s" width="300%" x="-1" y="-1"><feGaussianBlur result="blurOut" stdDeviation="2.0"/><feColorMatrix in="blurOut" result="blurOut2" type="matrix" values="0 0 0 0 0 0 0 0 0 0 0 0 0 0 0 0 0 0 .4 0"/><feOffset dx="4.0" dy="4.0" in="blurOut2" result="blurOut3"/><feBlend in="SourceGraphic" in2="blurOut3" mode="normal"/></filter></defs><g><!--class Signature--><rect fill="url(#g1hln1au22932s0)" filter="url(#f1hln1au22932s)" height="384.9219" id="Signature" style="stroke: #00008B; stroke-width: 1.5;" width="225" x="6" y="8.5"/><ellipse cx="63.25" cy="24.5" fill="#ADD1B2" rx="11" ry="11" style="stroke: #00008B; stroke-width: 1.0;"/><path d="M66.2188,30.1406 Q65.6406,30.4375 65,30.5859 Q64.3594,30.7344 63.6563,30.7344 Q61.1563,30.7344 59.8359,29.0859 Q58.5156,27.4375 58.5156,24.3125 Q58.5156,21.1875 59.8359,19.5313 Q61.1563,17.875 63.6563,17.875 Q64.3594,17.875 65.0078,18.0313 Q65.6563,18.1875 66.2188,18.4844 L66.2188,21.2031 Q65.5938,20.625 65,20.3516 Q64.4063,20.0781 63.7813,20.0781 Q62.4375,20.0781 61.75,21.1484 Q61.0625,22.2188 61.0625,24.3125 Q61.0625,26.4063 61.75,27.4766 Q62.4375,28.5469 63.7813,28.5469 Q64.4063,28.5469 65,28.2734 Q65.5938,28 66.2188,27.4219 L66.2188,30.1406 Z "/><text fill="#000000" font-family="sans-serif" font-size="12" lengthAdjust="spacingAndGlyphs" textLength="61" x="83.75" y="28.6543">Signature</text><rect fill="#FFFFFF" height="15.9688" style="stroke: #000000; stroke-width: 1.0; stroke-dasharray: 2.0,2.0;" width="39" x="195" y="5.5"/><text fill="#000000" font-family="sans-serif" font-size="12" font-style="italic" lengthAdjust="spacingAndGlyphs" textLength="29" x="200" y="17.6387">logic</text><line style="stroke: #00008B; stroke-width: 1.5;" x1="7" x2="230" y1="40.5" y2="40.5"/><rect fill="none" height="6" style="stroke: #C82930; stroke-width: 1.0;" width="6" x="14" y="49.4023"/><text fill="#000000" font-family="sans-serif" font-size="11" lengthAdjust="spacingAndGlyphs" textLength="49" x="26" y="54.7104">modules</text><rect fill="none" height="6" style="stroke: #C82930; stroke-width: 1.0;" width="6" x="14" y="62.207"/><text fill="#000000" font-family="sans-serif" font-size="11" lengthAdjust="spacingAndGlyphs" textLength="36" x="26" y="67.5151">library</text><ellipse cx="17" cy="78.0117" fill="none" rx="3" ry="3" style="stroke: #038048; stroke-width: 1.0;"/><text fill="#000000" font-family="sans-serif" font-size="11" lengthAdjust="spacingAndGlyphs" textLength="45" x="26" y="80.3198">schema</text><ellipse cx="17" cy="90.8164" fill="none" rx="3" ry="3" style="stroke: #038048; stroke-width: 1.0;"/><text fill="#000000" font-family="sans-serif" font-size="11" lengthAdjust="spacingAndGlyphs" textLength="120" x="26" y="93.1245">dbTable: 'signatures'</text><ellipse cx="17" cy="103.6211" fill="none" rx="3" ry="3" style="stroke: #038048; stroke-width: 1.0;"/><text fill="#000000" font-family="sans-serif" font-size="11" lengthAdjust="spacingAndGlyphs" textLength="47" x="26" y="105.9292">dbFields</text><rect fill="none" height="6" style="stroke: #C82930; stroke-width: 1.0;" width="6" x="14" y="130.2305"/><text fill="#000000" font-family="sans-serif" font-size="11" lengthAdjust="spacingAndGlyphs" textLength="45" x="26" y="135.5386">schema</text><rect fill="none" height="6" style="stroke: #C82930; stroke-width: 1.0;" width="6" x="14" y="143.0352"/><text fill="#000000" font-family="sans-serif" font-size="11" lengthAdjust="spacingAndGlyphs" textLength="36" x="26" y="148.3433">logger</text><line style="stroke: #00008B; stroke-width: 1.0; stroke-dasharray: 1.0,2.0;" x1="7" x2="100.5" y1="118.9258" y2="118.9258"/><text fill="#000000" font-family="sans-serif" font-size="11" lengthAdjust="spacingAndGlyphs" textLength="36" x="100.5" y="122.2339">library</text><line style="stroke: #00008B; stroke-width: 1.0; stroke-dasharray: 1.0,2.0;" x1="136.5" x2="230" y1="118.9258" y2="118.9258"/><rect fill="none" height="6" style="stroke: #C82930; stroke-width: 1.0;" width="6" x="14" y="172.6445"/><text fill="#000000" font-family="sans-serif" font-size="11" lengthAdjust="spacingAndGlyphs" textLength="51" x="26" y="177.9526">accounts</text><line style="stroke: #00008B; stroke-width: 1.0; stroke-dasharray: 1.0,2.0;" x1="7" x2="94" y1="161.3398" y2="161.3398"/><text fill="#000000" font-family="sans-serif" font-size="11" lengthAdjust="spacingAndGlyphs" textLength="49" x="94" y="164.6479">modules</text><line style="stroke: #00008B; stroke-width: 1.0; stroke-dasharray: 1.0,2.0;" x1="143" x2="230" y1="161.3398" y2="161.3398"/><ellipse cx="17" cy="205.2539" fill="#84BE84" rx="3" ry="3" style="stroke: #038048; stroke-width: 1.0;"/><text fill="#000000" font-family="sans-serif" font-size="11" lengthAdjust="spacingAndGlyphs" textLength="156" x="26" y="207.562">Signature (schema, logger)</text><ellipse cx="17" cy="218.0586" fill="#84BE84" rx="3" ry="3" style="stroke: #038048; stroke-width: 1.0;"/><text fill="#000000" font-family="sans-serif" font-size="11" lengthAdjust="spacingAndGlyphs" textLength="87" x="26" y="220.3667">bind (accounts)</text><ellipse cx="17" cy="230.8633" fill="#84BE84" rx="3" ry="3" style="stroke: #038048; stroke-width: 1.0;"/><text fill="#000000" font-family="sans-serif" font-size="11" lengthAdjust="spacingAndGlyphs" textLength="97" x="26" y="233.1714">create (data, trs)</text><ellipse cx="17" cy="243.668" fill="#84BE84" rx="3" ry="3" style="stroke: #038048; stroke-width: 1.0;"/><text fill="#000000" font-family="sans-serif" font-size="11" lengthAdjust="spacingAndGlyphs" textLength="146" x="26" y="245.9761">calculateFee (trs, sender)</text><ellipse cx="17" cy="256.4727" fill="#84BE84" rx="3" ry="3" style="stroke: #038048; stroke-width: 1.0;"/><text fill="#000000" font-family="sans-serif" font-size="11" lengthAdjust="spacingAndGlyphs" textLength="128" x="26" y="258.7808">verify (trs, sender, cb)</text><ellipse cx="17" cy="269.2773" fill="#84BE84" rx="3" ry="3" style="stroke: #038048; stroke-width: 1.0;"/><text fill="#000000" font-family="sans-serif" font-size="11" lengthAdjust="spacingAndGlyphs" textLength="143" x="26" y="271.5854">process (trs, sender, cb)</text><ellipse cx="17" cy="282.082" fill="#84BE84" rx="3" ry="3" style="stroke: #038048; stroke-width: 1.0;"/><text fill="#000000" font-family="sans-serif" font-size="11" lengthAdjust="spacingAndGlyphs" textLength="78" x="26" y="284.3901">getBytes (trs)</text><ellipse cx="17" cy="294.8867" fill="#84BE84" rx="3" ry="3" style="stroke: #038048; stroke-width: 1.0;"/><text fill="#000000" font-family="sans-serif" font-size="11" lengthAdjust="spacingAndGlyphs" textLength="164" x="26" y="297.1948">apply (trs, block, sender, cb)</text><ellipse cx="17" cy="307.6914" fill="#84BE84" rx="3" ry="3" style="stroke: #038048; stroke-width: 1.0;"/><text fill="#000000" font-family="sans-serif" font-size="11" lengthAdjust="spacingAndGlyphs" textLength="162" x="26" y="309.9995">undo (trs, block, sender, cb)</text><ellipse cx="17" cy="320.4961" fill="#84BE84" rx="3" ry="3" style="stroke: #038048; stroke-width: 1.0;"/><text fill="#000000" font-family="sans-serif" font-size="11" lengthAdjust="spacingAndGlyphs" textLength="199" x="26" y="322.8042">applyUnconfirmed (trs, sender, cb)</text><ellipse cx="17" cy="333.3008" fill="#84BE84" rx="3" ry="3" style="stroke: #038048; stroke-width: 1.0;"/><text fill="#000000" font-family="sans-serif" font-size="11" lengthAdjust="spacingAndGlyphs" textLength="197" x="26" y="335.6089">undoUnconfirmed (trs, sender, cb)</text><ellipse cx="17" cy="346.1055" fill="#84BE84" rx="3" ry="3" style="stroke: #038048; stroke-width: 1.0;"/><text fill="#000000" font-family="sans-serif" font-size="11" lengthAdjust="spacingAndGlyphs" textLength="118" x="26" y="348.4136">objectNormalize (trs)</text><ellipse cx="17" cy="358.9102" fill="#84BE84" rx="3" ry="3" style="stroke: #038048; stroke-width: 1.0;"/><text fill="#000000" font-family="sans-serif" font-size="11" lengthAdjust="spacingAndGlyphs" textLength="75" x="26" y="361.2183">dbRead (raw)</text><ellipse cx="17" cy="371.7148" fill="#84BE84" rx="3" ry="3" style="stroke: #038048; stroke-width: 1.0;"/><text fill="#000000" font-family="sans-serif" font-size="11" lengthAdjust="spacingAndGlyphs" textLength="70" x="26" y="374.0229">dbSave (trs)</text><ellipse cx="17" cy="384.5195" fill="#84BE84" rx="3" ry="3" style="stroke: #038048; stroke-width: 1.0;"/><text fill="#000000" font-family="sans-serif" font-size="11" lengthAdjust="spacingAndGlyphs" textLength="108" x="26" y="386.8276">ready (trs, sender)</text><line style="stroke: #00008B; stroke-width: 1.0;" x1="7" x2="94.5" y1="190.9492" y2="190.9492"/><text fill="#000000" font-family="sans-serif" font-size="11" lengthAdjust="spacingAndGlyphs" textLength="48" x="94.5" y="194.2573">Methods</text><line style="stroke: #00008B; stroke-width: 1.0;" x1="142.5" x2="230" y1="190.9492" y2="190.9492"/><!--
@startuml
skinparam class {
	BackgroundColor AliceBlue|LightBlue
	ArrowColor Black
	BorderColor DarkBlue
}
class Signature < logic > {
  - modules
  - library
  + schema
  + dbTable: 'signatures'
  + dbFields
  .. library ..
  - schema
  - logger
  .. modules ..
  - accounts
  - - Methods - -
  + Signature (schema, logger)
  + bind (accounts)
  + create (data, trs)
  + calculateFee (trs, sender)
  + verify (trs, sender, cb)
  + process (trs, sender, cb)
  + getBytes (trs)
  + apply (trs, block, sender, cb)
  + undo (trs, block, sender, cb)
  + applyUnconfirmed (trs, sender, cb)
  + undoUnconfirmed (trs, sender, cb)
  + objectNormalize (trs)
  + dbRead (raw)
  + dbSave (trs)
  + ready (trs, sender)
}
@endtuml

PlantUML version 1.2017.12(Wed Apr 26 13:06:36 ART 2017)
(GPL source distribution)
Java Runtime: Java(TM) SE Runtime Environment
JVM: Java HotSpot(TM) 64-Bit Server VM
Java Version: 1.8.0_131-b11
Operating System: Linux
OS Version: 3.13.0-119-generic
Default Encoding: UTF-8
Language: en
Country: US
--></g></svg>