<?xml version="1.0" encoding="UTF-8" standalone="no"?><svg xmlns="http://www.w3.org/2000/svg" xmlns:xlink="http://www.w3.org/1999/xlink" contentScriptType="application/ecmascript" contentStyleType="text/css" height="154px" preserveAspectRatio="none" style="width:176px;height:154px;" version="1.1" viewBox="0 0 176 154" width="176px" zoomAndPan="magnify"><defs><linearGradient id="g1q2n0lhtb8urt0" x1="0%" x2="100%" y1="50%" y2="50%"><stop offset="0%" stop-color="#F0F8FF"/><stop offset="100%" stop-color="#ADD8E6"/></linearGradient><filter height="300%" id="f1q2n0lhtb8urt" width="300%" x="-1" y="-1"><feGaussianBlur result="blurOut" stdDeviation="2.0"/><feColorMatrix in="blurOut" result="blurOut2" type="matrix" values="0 0 0 0 0 0 0 0 0 0 0 0 0 0 0 0 0 0 .4 0"/><feOffset dx="4.0" dy="4.0" in="blurOut2" result="blurOut3"/><feBlend in="SourceGraphic" in2="blurOut3" mode="normal"/></filter></defs><g><!--class Transfer--><rect fill="url(#g1q2n0lhtb8urt0)" filter="url(#f1q2n0lhtb8urt)" height="137.6328" id="Transfer" style="stroke: #00008B; stroke-width: 1.5;" width="161" x="6" y="8"/><ellipse cx="37.2" cy="24" fill="#ADD1B2" rx="11" ry="11" style="stroke: #00008B; stroke-width: 1.0;"/><path d="M40.1688,29.6406 Q39.5906,29.9375 38.95,30.0859 Q38.3094,30.2344 37.6063,30.2344 Q35.1063,30.2344 33.7859,28.5859 Q32.4656,26.9375 32.4656,23.8125 Q32.4656,20.6875 33.7859,19.0313 Q35.1063,17.375 37.6063,17.375 Q38.3094,17.375 38.9578,17.5313 Q39.6063,17.6875 40.1688,17.9844 L40.1688,20.7031 Q39.5438,20.125 38.95,19.8516 Q38.3563,19.5781 37.7313,19.5781 Q36.3875,19.5781 35.7,20.6484 Q35.0125,21.7188 35.0125,23.8125 Q35.0125,25.9063 35.7,26.9766 Q36.3875,28.0469 37.7313,28.0469 Q38.3563,28.0469 38.95,27.7734 Q39.5438,27.5 40.1688,26.9219 L40.1688,29.6406 Z "/><text fill="#000000" font-family="sans-serif" font-size="12" lengthAdjust="spacingAndGlyphs" textLength="52" x="54.8" y="28.1543">Transfer</text><rect fill="#FFFFFF" height="15.9688" style="stroke: #000000; stroke-width: 1.0; stroke-dasharray: 2.0,2.0;" width="39" x="131" y="5"/><text fill="#000000" font-family="sans-serif" font-size="12" font-style="italic" lengthAdjust="spacingAndGlyphs" textLength="29" x="136" y="17.1387">logic</text><line style="stroke: #00008B; stroke-width: 1.5;" x1="7" x2="166" y1="40" y2="40"/><rect fill="none" height="6" style="stroke: #C82930; stroke-width: 1.0;" width="6" x="14" y="65.707"/><text fill="#000000" font-family="sans-serif" font-size="11" lengthAdjust="spacingAndGlyphs" textLength="51" x="26" y="71.0151">accounts</text><rect fill="none" height="6" style="stroke: #C82930; stroke-width: 1.0;" width="6" x="14" y="78.5117"/><text fill="#000000" font-family="sans-serif" font-size="11" lengthAdjust="spacingAndGlyphs" textLength="40" x="26" y="83.8198">rounds</text><line style="stroke: #00008B; stroke-width: 1.0; stroke-dasharray: 1.0,2.0;" x1="7" x2="62" y1="54.4023" y2="54.4023"/><text fill="#000000" font-family="sans-serif" font-size="11" lengthAdjust="spacingAndGlyphs" textLength="49" x="62" y="57.7104">modules</text><line style="stroke: #00008B; stroke-width: 1.0; stroke-dasharray: 1.0,2.0;" x1="111" x2="166" y1="54.4023" y2="54.4023"/><ellipse cx="17" cy="111.1211" fill="#84BE84" rx="3" ry="3" style="stroke: #038048; stroke-width: 1.0;"/><text fill="#000000" font-family="sans-serif" font-size="11" lengthAdjust="spacingAndGlyphs" textLength="61" x="26" y="113.4292">Transfer ()</text><ellipse cx="17" cy="123.9258" fill="#84BE84" rx="3" ry="3" style="stroke: #038048; stroke-width: 1.0;"/><text fill="#000000" font-family="sans-serif" font-size="11" lengthAdjust="spacingAndGlyphs" textLength="135" x="26" y="126.2339">bind (accounts, rounds)</text><polygon fill="none" points="17,132.7305,13,138.7305,21,138.7305" style="stroke: #1963A0; stroke-width: 1.0;"/><text fill="#000000" font-family="sans-serif" font-size="11" lengthAdjust="spacingAndGlyphs" textLength="50" x="26" y="139.0386">PENDING</text><line style="stroke: #00008B; stroke-width: 1.0;" x1="7" x2="62.5" y1="96.8164" y2="96.8164"/><text fill="#000000" font-family="sans-serif" font-size="11" lengthAdjust="spacingAndGlyphs" textLength="48" x="62.5" y="100.1245">Methods</text><line style="stroke: #00008B; stroke-width: 1.0;" x1="110.5" x2="166" y1="96.8164" y2="96.8164"/><!--
@startuml
skinparam class {
	BackgroundColor AliceBlue|LightBlue
	ArrowColor Black
	BorderColor DarkBlue
}
class Transfer < logic > {
  .. modules ..
  - accounts
  - rounds
  - - Methods - -
  + Transfer ()
  + bind (accounts, rounds)
  ~ PENDING
}
@endtuml

PlantUML version 1.2017.12(Wed Apr 26 13:06:36 ART 2017)
(GPL source distribution)
Java Runtime: Java(TM) SE Runtime Environment
JVM: Java HotSpot(TM) 64-Bit Server VM
Java Version: 1.8.0_131-b11
Operating System: Linux
OS Version: 3.13.0-119-generic
Default Encoding: UTF-8
Language: en
Country: US
--></g></svg>