<?xml version="1.0" encoding="UTF-8" standalone="no"?><svg xmlns="http://www.w3.org/2000/svg" xmlns:xlink="http://www.w3.org/1999/xlink" contentScriptType="application/ecmascript" contentStyleType="text/css" height="1186px" preserveAspectRatio="none" style="width:423px;height:1186px;" version="1.1" viewBox="0 0 423 1186" width="423px" zoomAndPan="magnify"><defs><linearGradient id="g173mzztb3w1oh0" x1="0%" x2="100%" y1="50%" y2="50%"><stop offset="0%" stop-color="#F0F8FF"/><stop offset="100%" stop-color="#ADD8E6"/></linearGradient><filter height="300%" id="f173mzztb3w1oh" width="300%" x="-1" y="-1"><feGaussianBlur result="blurOut" stdDeviation="2.0"/><feColorMatrix in="blurOut" result="blurOut2" type="matrix" values="0 0 0 0 0 0 0 0 0 0 0 0 0 0 0 0 0 0 .4 0"/><feOffset dx="4.0" dy="4.0" in="blurOut2" result="blurOut3"/><feBlend in="SourceGraphic" in2="blurOut3" mode="normal"/></filter></defs><g><!--class Delegates--><rect fill="url(#g173mzztb3w1oh0)" filter="url(#f173mzztb3w1oh)" height="757.8555" id="Delegates" style="stroke: #00008B; stroke-width: 1.5;" width="343" x="56" y="8"/><ellipse cx="162.25" cy="24" fill="#ADD1B2" rx="11" ry="11" style="stroke: #00008B; stroke-width: 1.0;"/><path d="M165.2188,29.6406 Q164.6406,29.9375 164,30.0859 Q163.3594,30.2344 162.6563,30.2344 Q160.1563,30.2344 158.8359,28.5859 Q157.5156,26.9375 157.5156,23.8125 Q157.5156,20.6875 158.8359,19.0313 Q160.1563,17.375 162.6563,17.375 Q163.3594,17.375 164.0078,17.5313 Q164.6563,17.6875 165.2188,17.9844 L165.2188,20.7031 Q164.5938,20.125 164,19.8516 Q163.4063,19.5781 162.7813,19.5781 Q161.4375,19.5781 160.75,20.6484 Q160.0625,21.7188 160.0625,23.8125 Q160.0625,25.9063 160.75,26.9766 Q161.4375,28.0469 162.7813,28.0469 Q163.4063,28.0469 164,27.7734 Q164.5938,27.5 165.2188,26.9219 L165.2188,29.6406 Z "/><text fill="#000000" font-family="sans-serif" font-size="12" lengthAdjust="spacingAndGlyphs" textLength="64" x="182.75" y="28.1543">Delegates</text><rect fill="#FFFFFF" height="15.9688" style="stroke: #000000; stroke-width: 1.0; stroke-dasharray: 2.0,2.0;" width="56" x="346" y="5"/><text fill="#000000" font-family="sans-serif" font-size="12" font-style="italic" lengthAdjust="spacingAndGlyphs" textLength="46" x="351" y="17.1387">module</text><line style="stroke: #00008B; stroke-width: 1.5;" x1="57" x2="398" y1="40" y2="40"/><rect fill="#F24D5C" height="6" style="stroke: #C82930; stroke-width: 1.0;" width="6" x="64" y="48.9023"/><text fill="#000000" font-family="sans-serif" font-size="11" lengthAdjust="spacingAndGlyphs" textLength="219" x="76" y="54.2104">assetTypes[2]: new Delegate(schema)</text><rect fill="none" height="6" style="stroke: #C82930; stroke-width: 1.0;" width="6" x="64" y="61.707"/><text fill="#000000" font-family="sans-serif" font-size="11" lengthAdjust="spacingAndGlyphs" textLength="73" x="76" y="67.0151">__private: {}</text><rect fill="none" height="6" style="stroke: #C82930; stroke-width: 1.0;" width="6" x="64" y="74.5117"/><text fill="#000000" font-family="sans-serif" font-size="11" lengthAdjust="spacingAndGlyphs" textLength="50" x="76" y="79.8198">self: this</text><rect fill="none" height="6" style="stroke: #C82930; stroke-width: 1.0;" width="6" x="64" y="104.1211"/><text fill="#000000" font-family="sans-serif" font-size="11" lengthAdjust="spacingAndGlyphs" textLength="36" x="76" y="109.4292">logger</text><rect fill="none" height="6" style="stroke: #C82930; stroke-width: 1.0;" width="6" x="64" y="116.9258"/><text fill="#000000" font-family="sans-serif" font-size="11" lengthAdjust="spacingAndGlyphs" textLength="55" x="76" y="122.2339">sequence</text><rect fill="none" height="6" style="stroke: #C82930; stroke-width: 1.0;" width="6" x="64" y="129.7305"/><text fill="#000000" font-family="sans-serif" font-size="11" lengthAdjust="spacingAndGlyphs" textLength="14" x="76" y="135.0386">ed</text><rect fill="none" height="6" style="stroke: #C82930; stroke-width: 1.0;" width="6" x="64" y="142.5352"/><text fill="#000000" font-family="sans-serif" font-size="11" lengthAdjust="spacingAndGlyphs" textLength="14" x="76" y="147.8433">db</text><rect fill="none" height="6" style="stroke: #C82930; stroke-width: 1.0;" width="6" x="64" y="155.3398"/><text fill="#000000" font-family="sans-serif" font-size="11" lengthAdjust="spacingAndGlyphs" textLength="45" x="76" y="160.6479">network</text><rect fill="none" height="6" style="stroke: #C82930; stroke-width: 1.0;" width="6" x="64" y="168.1445"/><text fill="#000000" font-family="sans-serif" font-size="11" lengthAdjust="spacingAndGlyphs" textLength="45" x="76" y="173.4526">schema</text><rect fill="none" height="6" style="stroke: #C82930; stroke-width: 1.0;" width="6" x="64" y="180.9492"/><text fill="#000000" font-family="sans-serif" font-size="11" lengthAdjust="spacingAndGlyphs" textLength="107" x="76" y="186.2573">balancesSequence</text><rect fill="none" height="6" style="stroke: #C82930; stroke-width: 1.0;" width="6" x="64" y="193.7539"/><text fill="#000000" font-family="sans-serif" font-size="11" lengthAdjust="spacingAndGlyphs" textLength="94" x="76" y="199.062">logic.transaction</text><rect fill="none" height="6" style="stroke: #C82930; stroke-width: 1.0;" width="6" x="64" y="206.5586"/><text fill="#000000" font-family="sans-serif" font-size="11" lengthAdjust="spacingAndGlyphs" textLength="118" x="76" y="211.8667">config.forging.secret</text><rect fill="none" height="6" style="stroke: #C82930; stroke-width: 1.0;" width="6" x="64" y="219.3633"/><text fill="#000000" font-family="sans-serif" font-size="11" lengthAdjust="spacingAndGlyphs" textLength="176" x="76" y="224.6714">config.forging.access.whiteList</text><line style="stroke: #00008B; stroke-width: 1.0; stroke-dasharray: 1.0,2.0;" x1="57" x2="209.5" y1="92.8164" y2="92.8164"/><text fill="#000000" font-family="sans-serif" font-size="11" lengthAdjust="spacingAndGlyphs" textLength="36" x="209.5" y="96.1245">library</text><line style="stroke: #00008B; stroke-width: 1.0; stroke-dasharray: 1.0,2.0;" x1="245.5" x2="398" y1="92.8164" y2="92.8164"/><rect fill="none" height="6" style="stroke: #C82930; stroke-width: 1.0;" width="6" x="64" y="248.9727"/><text fill="#000000" font-family="sans-serif" font-size="11" lengthAdjust="spacingAndGlyphs" textLength="36" x="76" y="254.2808">loader</text><rect fill="none" height="6" style="stroke: #C82930; stroke-width: 1.0;" width="6" x="64" y="261.7773"/><text fill="#000000" font-family="sans-serif" font-size="11" lengthAdjust="spacingAndGlyphs" textLength="40" x="76" y="267.0854">rounds</text><rect fill="none" height="6" style="stroke: #C82930; stroke-width: 1.0;" width="6" x="64" y="274.582"/><text fill="#000000" font-family="sans-serif" font-size="11" lengthAdjust="spacingAndGlyphs" textLength="51" x="76" y="279.8901">accounts</text><rect fill="none" height="6" style="stroke: #C82930; stroke-width: 1.0;" width="6" x="64" y="287.3867"/><text fill="#000000" font-family="sans-serif" font-size="11" lengthAdjust="spacingAndGlyphs" textLength="36" x="76" y="292.6948">blocks</text><rect fill="none" height="6" style="stroke: #C82930; stroke-width: 1.0;" width="6" x="64" y="300.1914"/><text fill="#000000" font-family="sans-serif" font-size="11" lengthAdjust="spacingAndGlyphs" textLength="53" x="76" y="305.4995">transport</text><rect fill="none" height="6" style="stroke: #C82930; stroke-width: 1.0;" width="6" x="64" y="312.9961"/><text fill="#000000" font-family="sans-serif" font-size="11" lengthAdjust="spacingAndGlyphs" textLength="71" x="76" y="318.3042">transactions</text><rect fill="none" height="6" style="stroke: #C82930; stroke-width: 1.0;" width="6" x="64" y="325.8008"/><text fill="#000000" font-family="sans-serif" font-size="11" lengthAdjust="spacingAndGlyphs" textLength="56" x="76" y="331.1089">delegates</text><line style="stroke: #00008B; stroke-width: 1.0; stroke-dasharray: 1.0,2.0;" x1="57" x2="203" y1="237.668" y2="237.668"/><text fill="#000000" font-family="sans-serif" font-size="11" lengthAdjust="spacingAndGlyphs" textLength="49" x="203" y="240.9761">modules</text><line style="stroke: #00008B; stroke-width: 1.0; stroke-dasharray: 1.0,2.0;" x1="252" x2="398" y1="237.668" y2="237.668"/><ellipse cx="67" cy="358.4102" fill="#84BE84" rx="3" ry="3" style="stroke: #038048; stroke-width: 1.0;"/><text fill="#000000" font-family="sans-serif" font-size="11" lengthAdjust="spacingAndGlyphs" textLength="120" x="76" y="360.7183">Delegates(cb, scope)</text><rect fill="#F24D5C" height="6" style="stroke: #C82930; stroke-width: 1.0;" width="6" x="64" y="368.2148"/><text fill="#000000" font-family="sans-serif" font-size="11" lengthAdjust="spacingAndGlyphs" textLength="129" x="76" y="373.5229">getKeysSortByVote(cb)</text><rect fill="#F24D5C" height="6" style="stroke: #C82930; stroke-width: 1.0;" width="6" x="64" y="381.0195"/><text fill="#000000" font-family="sans-serif" font-size="11" lengthAdjust="spacingAndGlyphs" textLength="185" x="76" y="386.3276">getBlockSlotData(slot, height, cb</text><rect fill="#F24D5C" height="6" style="stroke: #C82930; stroke-width: 1.0;" width="6" x="64" y="393.8242"/><text fill="#000000" font-family="sans-serif" font-size="11" lengthAdjust="spacingAndGlyphs" textLength="51" x="76" y="399.1323">forge(cb)</text><rect fill="#F24D5C" height="6" style="stroke: #C82930; stroke-width: 1.0;" width="6" x="64" y="406.6289"/><text fill="#000000" font-family="sans-serif" font-size="11" lengthAdjust="spacingAndGlyphs" textLength="247" x="76" y="411.937">checkDelegates(publicKey, votes, state, cb)</text><rect fill="#F24D5C" height="6" style="stroke: #C82930; stroke-width: 1.0;" width="6" x="64" y="419.4336"/><text fill="#000000" font-family="sans-serif" font-size="11" lengthAdjust="spacingAndGlyphs" textLength="102" x="76" y="424.7417">loadDelegates(cb)</text><ellipse cx="67" cy="435.2383" fill="#84BE84" rx="3" ry="3" style="stroke: #038048; stroke-width: 1.0;"/><text fill="#000000" font-family="sans-serif" font-size="11" lengthAdjust="spacingAndGlyphs" textLength="185" x="76" y="437.5464">generateDelegateList(height, cb)</text><ellipse cx="67" cy="448.043" fill="#84BE84" rx="3" ry="3" style="stroke: #038048; stroke-width: 1.0;"/><text fill="#000000" font-family="sans-serif" font-size="11" lengthAdjust="spacingAndGlyphs" textLength="136" x="76" y="450.3511">getDelegates(query, cb)</text><ellipse cx="67" cy="460.8477" fill="#84BE84" rx="3" ry="3" style="stroke: #038048; stroke-width: 1.0;"/><text fill="#000000" font-family="sans-serif" font-size="11" lengthAdjust="spacingAndGlyphs" textLength="269" x="76" y="463.1558">checkConfirmedDelegates(publicKey, votes, cb)</text><ellipse cx="67" cy="473.6523" fill="#84BE84" rx="3" ry="3" style="stroke: #038048; stroke-width: 1.0;"/><text fill="#000000" font-family="sans-serif" font-size="11" lengthAdjust="spacingAndGlyphs" textLength="282" x="76" y="475.9604">checkUnconfirmedDelegates(publicKey, votes, cb)</text><ellipse cx="67" cy="486.457" fill="#84BE84" rx="3" ry="3" style="stroke: #038048; stroke-width: 1.0;"/><text fill="#000000" font-family="sans-serif" font-size="11" lengthAdjust="spacingAndGlyphs" textLength="101" x="76" y="488.7651">fork(block, cause)</text><ellipse cx="67" cy="499.2617" fill="#84BE84" rx="3" ry="3" style="stroke: #038048; stroke-width: 1.0;"/><text fill="#000000" font-family="sans-serif" font-size="11" lengthAdjust="spacingAndGlyphs" textLength="154" x="76" y="501.5698">validateBlockSlot(block, cb)</text><ellipse cx="67" cy="512.0664" fill="#84BE84" rx="3" ry="3" style="stroke: #038048; stroke-width: 1.0;"/><text fill="#000000" font-family="sans-serif" font-size="11" lengthAdjust="spacingAndGlyphs" textLength="147" x="76" y="514.3745">sandboxApi(call, args, cb)</text><ellipse cx="67" cy="524.8711" fill="#84BE84" rx="3" ry="3" style="stroke: #038048; stroke-width: 1.0;"/><text fill="#000000" font-family="sans-serif" font-size="11" lengthAdjust="spacingAndGlyphs" textLength="81" x="76" y="527.1792">onBind(scope)</text><line style="stroke: #00008B; stroke-width: 1.0;" x1="57" x2="203.5" y1="344.1055" y2="344.1055"/><text fill="#000000" font-family="sans-serif" font-size="11" lengthAdjust="spacingAndGlyphs" textLength="48" x="203.5" y="347.4136">Methods</text><line style="stroke: #00008B; stroke-width: 1.0;" x1="251.5" x2="398" y1="344.1055" y2="344.1055"/><line style="stroke: #00008B; stroke-width: 1.0;" x1="57" x2="219" y1="540.1758" y2="540.1758"/><text fill="#000000" font-family="sans-serif" font-size="11" lengthAdjust="spacingAndGlyphs" textLength="17" x="219" y="543.4839">API</text><line style="stroke: #00008B; stroke-width: 1.0;" x1="236" x2="398" y1="540.1758" y2="540.1758"/><rect fill="#F24D5C" height="6" style="stroke: #C82930; stroke-width: 1.0;" width="6" x="64" y="570.6875"/><text fill="#000000" font-family="sans-serif" font-size="11" lengthAdjust="spacingAndGlyphs" textLength="204" x="76" y="575.9956">forgingEnable(secret, publicKey, cb)</text><rect fill="#F24D5C" height="6" style="stroke: #C82930; stroke-width: 1.0;" width="6" x="64" y="583.4922"/><text fill="#000000" font-family="sans-serif" font-size="11" lengthAdjust="spacingAndGlyphs" textLength="204" x="76" y="588.8003">forgingDisable(secret, publicKey,cb)</text><rect fill="#F24D5C" height="6" style="stroke: #C82930; stroke-width: 1.0;" width="6" x="64" y="596.2969"/><text fill="#000000" font-family="sans-serif" font-size="11" lengthAdjust="spacingAndGlyphs" textLength="159" x="76" y="601.605">forgingStatus(publicKey, cb)</text><rect fill="#F24D5C" height="6" style="stroke: #C82930; stroke-width: 1.0;" width="6" x="64" y="609.1016"/><text fill="#000000" font-family="sans-serif" font-size="11" lengthAdjust="spacingAndGlyphs" textLength="126" x="76" y="614.4097">forgingEnableAll(*, cb)</text><rect fill="#F24D5C" height="6" style="stroke: #C82930; stroke-width: 1.0;" width="6" x="64" y="621.9063"/><text fill="#000000" font-family="sans-serif" font-size="11" lengthAdjust="spacingAndGlyphs" textLength="130" x="76" y="627.2144">forgingDisableAll(*, cb)</text><line style="stroke: #00008B; stroke-width: 1.0; stroke-dasharray: 1.0,2.0;" x1="57" x2="206" y1="559.3828" y2="559.3828"/><text fill="#000000" font-family="sans-serif" font-size="11" lengthAdjust="spacingAndGlyphs" textLength="43" x="206" y="562.6909">internal</text><line style="stroke: #00008B; stroke-width: 1.0; stroke-dasharray: 1.0,2.0;" x1="249" x2="398" y1="559.3828" y2="559.3828"/><ellipse cx="67" cy="654.5156" fill="#84BE84" rx="3" ry="3" style="stroke: #038048; stroke-width: 1.0;"/><text fill="#000000" font-family="sans-serif" font-size="11" lengthAdjust="spacingAndGlyphs" textLength="216" x="76" y="656.8237">getDelegate(publicKey, username, cb)</text><ellipse cx="67" cy="667.3203" fill="#84BE84" rx="3" ry="3" style="stroke: #038048; stroke-width: 1.0;"/><text fill="#000000" font-family="sans-serif" font-size="11" lengthAdjust="spacingAndGlyphs" textLength="140" x="76" y="669.6284">getNextForgers(limit, cb)</text><ellipse cx="67" cy="680.125" fill="#84BE84" rx="3" ry="3" style="stroke: #038048; stroke-width: 1.0;"/><text fill="#000000" font-family="sans-serif" font-size="11" lengthAdjust="spacingAndGlyphs" textLength="160" x="76" y="682.4331">search(orderBy, q, limit, cb)</text><ellipse cx="67" cy="692.9297" fill="#84BE84" rx="3" ry="3" style="stroke: #038048; stroke-width: 1.0;"/><text fill="#000000" font-family="sans-serif" font-size="11" lengthAdjust="spacingAndGlyphs" textLength="66" x="76" y="695.2378">count(*, cb)</text><ellipse cx="67" cy="705.7344" fill="#84BE84" rx="3" ry="3" style="stroke: #038048; stroke-width: 1.0;"/><text fill="#000000" font-family="sans-serif" font-size="11" lengthAdjust="spacingAndGlyphs" textLength="137" x="76" y="708.0425">getVoters(publicKey, cb)</text><ellipse cx="67" cy="718.5391" fill="#84BE84" rx="3" ry="3" style="stroke: #038048; stroke-width: 1.0;"/><text fill="#000000" font-family="sans-serif" font-size="11" lengthAdjust="spacingAndGlyphs" textLength="149" x="76" y="720.8472">getDelegates(schema, cb)</text><ellipse cx="67" cy="731.3438" fill="#84BE84" rx="3" ry="3" style="stroke: #038048; stroke-width: 1.0;"/><text fill="#000000" font-family="sans-serif" font-size="11" lengthAdjust="spacingAndGlyphs" textLength="73" x="76" y="733.6519">getFee(*, cb)</text><ellipse cx="67" cy="744.1484" fill="#84BE84" rx="3" ry="3" style="stroke: #038048; stroke-width: 1.0;"/><text fill="#000000" font-family="sans-serif" font-size="11" lengthAdjust="spacingAndGlyphs" textLength="317" x="76" y="746.4565">getForgedByAccount(start, end, generatorPublicKey, cb)</text><ellipse cx="67" cy="756.9531" fill="#84BE84" rx="3" ry="3" style="stroke: #038048; stroke-width: 1.0;"/><text fill="#000000" font-family="sans-serif" font-size="11" lengthAdjust="spacingAndGlyphs" textLength="197" x="76" y="759.2612">addDelegate(secret, publicKey, cb)</text><line style="stroke: #00008B; stroke-width: 1.0; stroke-dasharray: 1.0,2.0;" x1="57" x2="207.5" y1="640.2109" y2="640.2109"/><text fill="#000000" font-family="sans-serif" font-size="11" lengthAdjust="spacingAndGlyphs" textLength="40" x="207.5" y="643.519">shared</text><line style="stroke: #00008B; stroke-width: 1.0; stroke-dasharray: 1.0,2.0;" x1="247.5" x2="398" y1="640.2109" y2="640.2109"/><!--class Delegate--><rect fill="url(#g173mzztb3w1oh0)" filter="url(#f173mzztb3w1oh)" height="333.7031" id="Delegate" style="stroke: #00008B; stroke-width: 1.5;" width="221" x="6" y="844"/><ellipse cx="63.25" cy="860" fill="#ADD1B2" rx="11" ry="11" style="stroke: #00008B; stroke-width: 1.0;"/><path d="M66.2188,865.6406 Q65.6406,865.9375 65,866.0859 Q64.3594,866.2344 63.6563,866.2344 Q61.1563,866.2344 59.8359,864.5859 Q58.5156,862.9375 58.5156,859.8125 Q58.5156,856.6875 59.8359,855.0313 Q61.1563,853.375 63.6563,853.375 Q64.3594,853.375 65.0078,853.5313 Q65.6563,853.6875 66.2188,853.9844 L66.2188,856.7031 Q65.5938,856.125 65,855.8516 Q64.4063,855.5781 63.7813,855.5781 Q62.4375,855.5781 61.75,856.6484 Q61.0625,857.7188 61.0625,859.8125 Q61.0625,861.9063 61.75,862.9766 Q62.4375,864.0469 63.7813,864.0469 Q64.4063,864.0469 65,863.7734 Q65.5938,863.5 66.2188,862.9219 L66.2188,865.6406 Z "/><text fill="#000000" font-family="sans-serif" font-size="12" lengthAdjust="spacingAndGlyphs" textLength="57" x="83.75" y="864.1543">Delegate</text><rect fill="#FFFFFF" height="15.9688" style="stroke: #000000; stroke-width: 1.0; stroke-dasharray: 2.0,2.0;" width="39" x="191" y="841"/><text fill="#000000" font-family="sans-serif" font-size="12" font-style="italic" lengthAdjust="spacingAndGlyphs" textLength="29" x="196" y="853.1387">logic</text><line style="stroke: #00008B; stroke-width: 1.5;" x1="7" x2="226" y1="876" y2="876"/><rect fill="none" height="6" style="stroke: #C82930; stroke-width: 1.0;" width="6" x="14" y="884.9023"/><text fill="#000000" font-family="sans-serif" font-size="11" lengthAdjust="spacingAndGlyphs" textLength="36" x="26" y="890.2104">library</text><rect fill="none" height="6" style="stroke: #C82930; stroke-width: 1.0;" width="6" x="14" y="897.707"/><text fill="#000000" font-family="sans-serif" font-size="11" lengthAdjust="spacingAndGlyphs" textLength="49" x="26" y="903.0151">modules</text><rect fill="none" height="6" style="stroke: #C82930; stroke-width: 1.0;" width="6" x="14" y="927.3164"/><text fill="#000000" font-family="sans-serif" font-size="11" lengthAdjust="spacingAndGlyphs" textLength="45" x="26" y="932.6245">schema</text><line style="stroke: #00008B; stroke-width: 1.0; stroke-dasharray: 1.0,2.0;" x1="7" x2="98.5" y1="916.0117" y2="916.0117"/><text fill="#000000" font-family="sans-serif" font-size="11" lengthAdjust="spacingAndGlyphs" textLength="36" x="98.5" y="919.3198">library</text><line style="stroke: #00008B; stroke-width: 1.0; stroke-dasharray: 1.0,2.0;" x1="134.5" x2="226" y1="916.0117" y2="916.0117"/><rect fill="none" height="6" style="stroke: #C82930; stroke-width: 1.0;" width="6" x="14" y="956.9258"/><text fill="#000000" font-family="sans-serif" font-size="11" lengthAdjust="spacingAndGlyphs" textLength="51" x="26" y="962.2339">accounts</text><line style="stroke: #00008B; stroke-width: 1.0; stroke-dasharray: 1.0,2.0;" x1="7" x2="92" y1="945.6211" y2="945.6211"/><text fill="#000000" font-family="sans-serif" font-size="11" lengthAdjust="spacingAndGlyphs" textLength="49" x="92" y="948.9292">modules</text><line style="stroke: #00008B; stroke-width: 1.0; stroke-dasharray: 1.0,2.0;" x1="141" x2="226" y1="945.6211" y2="945.6211"/><ellipse cx="17" cy="989.5352" fill="#84BE84" rx="3" ry="3" style="stroke: #038048; stroke-width: 1.0;"/><text fill="#000000" font-family="sans-serif" font-size="11" lengthAdjust="spacingAndGlyphs" textLength="107" x="26" y="991.8433">Delegate (schema)</text><ellipse cx="17" cy="1002.3398" fill="#84BE84" rx="3" ry="3" style="stroke: #038048; stroke-width: 1.0;"/><text fill="#000000" font-family="sans-serif" font-size="11" lengthAdjust="spacingAndGlyphs" textLength="87" x="26" y="1004.6479">bind (accounts)</text><ellipse cx="17" cy="1015.1445" fill="#84BE84" rx="3" ry="3" style="stroke: #038048; stroke-width: 1.0;"/><text fill="#000000" font-family="sans-serif" font-size="11" lengthAdjust="spacingAndGlyphs" textLength="93" x="26" y="1017.4526">create(data, trs)</text><ellipse cx="17" cy="1027.9492" fill="#84BE84" rx="3" ry="3" style="stroke: #038048; stroke-width: 1.0;"/><text fill="#000000" font-family="sans-serif" font-size="11" lengthAdjust="spacingAndGlyphs" textLength="142" x="26" y="1030.2573">calculateFee(trs, sender)</text><ellipse cx="17" cy="1040.7539" fill="#84BE84" rx="3" ry="3" style="stroke: #038048; stroke-width: 1.0;"/><text fill="#000000" font-family="sans-serif" font-size="11" lengthAdjust="spacingAndGlyphs" textLength="124" x="26" y="1043.062">verify(trs, sender, cb)</text><ellipse cx="17" cy="1053.5586" fill="#84BE84" rx="3" ry="3" style="stroke: #038048; stroke-width: 1.0;"/><text fill="#000000" font-family="sans-serif" font-size="11" lengthAdjust="spacingAndGlyphs" textLength="139" x="26" y="1055.8667">process(trs, sender, cb)</text><ellipse cx="17" cy="1066.3633" fill="#84BE84" rx="3" ry="3" style="stroke: #038048; stroke-width: 1.0;"/><text fill="#000000" font-family="sans-serif" font-size="11" lengthAdjust="spacingAndGlyphs" textLength="74" x="26" y="1068.6714">getBytes(trs)</text><ellipse cx="17" cy="1079.168" fill="#84BE84" rx="3" ry="3" style="stroke: #038048; stroke-width: 1.0;"/><text fill="#000000" font-family="sans-serif" font-size="11" lengthAdjust="spacingAndGlyphs" textLength="160" x="26" y="1081.4761">apply(trs, block, sender, cb)</text><ellipse cx="17" cy="1091.9727" fill="#84BE84" rx="3" ry="3" style="stroke: #038048; stroke-width: 1.0;"/><text fill="#000000" font-family="sans-serif" font-size="11" lengthAdjust="spacingAndGlyphs" textLength="158" x="26" y="1094.2808">undo(trs, block, sender, cb)</text><ellipse cx="17" cy="1104.7773" fill="#84BE84" rx="3" ry="3" style="stroke: #038048; stroke-width: 1.0;"/><text fill="#000000" font-family="sans-serif" font-size="11" lengthAdjust="spacingAndGlyphs" textLength="195" x="26" y="1107.0854">applyUnconfirmed(trs, sender, cb)</text><ellipse cx="17" cy="1117.582" fill="#84BE84" rx="3" ry="3" style="stroke: #038048; stroke-width: 1.0;"/><text fill="#000000" font-family="sans-serif" font-size="11" lengthAdjust="spacingAndGlyphs" textLength="193" x="26" y="1119.8901">undoUnconfirmed(trs, sender, cb)</text><ellipse cx="17" cy="1130.3867" fill="#84BE84" rx="3" ry="3" style="stroke: #038048; stroke-width: 1.0;"/><text fill="#000000" font-family="sans-serif" font-size="11" lengthAdjust="spacingAndGlyphs" textLength="114" x="26" y="1132.6948">objectNormalize(trs)</text><ellipse cx="17" cy="1143.1914" fill="#84BE84" rx="3" ry="3" style="stroke: #038048; stroke-width: 1.0;"/><text fill="#000000" font-family="sans-serif" font-size="11" lengthAdjust="spacingAndGlyphs" textLength="71" x="26" y="1145.4995">dbRead(raw)</text><ellipse cx="17" cy="1155.9961" fill="#84BE84" rx="3" ry="3" style="stroke: #038048; stroke-width: 1.0;"/><text fill="#000000" font-family="sans-serif" font-size="11" lengthAdjust="spacingAndGlyphs" textLength="66" x="26" y="1158.3042">dbSave(trs)</text><ellipse cx="17" cy="1168.8008" fill="#84BE84" rx="3" ry="3" style="stroke: #038048; stroke-width: 1.0;"/><text fill="#000000" font-family="sans-serif" font-size="11" lengthAdjust="spacingAndGlyphs" textLength="104" x="26" y="1171.1089">ready(trs, sender)</text><line style="stroke: #00008B; stroke-width: 1.0;" x1="7" x2="92.5" y1="975.2305" y2="975.2305"/><text fill="#000000" font-family="sans-serif" font-size="11" lengthAdjust="spacingAndGlyphs" textLength="48" x="92.5" y="978.5386">Methods</text><line style="stroke: #00008B; stroke-width: 1.0;" x1="140.5" x2="226" y1="975.2305" y2="975.2305"/><!--class BlockReward--><rect fill="url(#g173mzztb3w1oh0)" filter="url(#f173mzztb3w1oh)" height="188.8516" id="BlockReward" style="stroke: #00008B; stroke-width: 1.5;" width="152" x="262.25" y="916.5"/><ellipse cx="277.25" cy="932.5" fill="#ADD1B2" rx="11" ry="11" style="stroke: #00008B; stroke-width: 1.0;"/><path d="M280.2188,938.1406 Q279.6406,938.4375 279,938.5859 Q278.3594,938.7344 277.6563,938.7344 Q275.1563,938.7344 273.8359,937.0859 Q272.5156,935.4375 272.5156,932.3125 Q272.5156,929.1875 273.8359,927.5313 Q275.1563,925.875 277.6563,925.875 Q278.3594,925.875 279.0078,926.0313 Q279.6563,926.1875 280.2188,926.4844 L280.2188,929.2031 Q279.5938,928.625 279,928.3516 Q278.4063,928.0781 277.7813,928.0781 Q276.4375,928.0781 275.75,929.1484 Q275.0625,930.2188 275.0625,932.3125 Q275.0625,934.4063 275.75,935.4766 Q276.4375,936.5469 277.7813,936.5469 Q278.4063,936.5469 279,936.2734 Q279.5938,936 280.2188,935.4219 L280.2188,938.1406 Z "/><text fill="#000000" font-family="sans-serif" font-size="12" lengthAdjust="spacingAndGlyphs" textLength="79" x="291.25" y="936.6543">BlockReward</text><rect fill="#FFFFFF" height="15.9688" style="stroke: #000000; stroke-width: 1.0; stroke-dasharray: 2.0,2.0;" width="39" x="378.25" y="913.5"/><text fill="#000000" font-family="sans-serif" font-size="12" font-style="italic" lengthAdjust="spacingAndGlyphs" textLength="29" x="383.25" y="925.6387">logic</text><line style="stroke: #00008B; stroke-width: 1.5;" x1="263.25" x2="413.25" y1="948.5" y2="948.5"/><rect fill="none" height="6" style="stroke: #C82930; stroke-width: 1.0;" width="6" x="270.25" y="957.4023"/><text fill="#000000" font-family="sans-serif" font-size="11" lengthAdjust="spacingAndGlyphs" textLength="73" x="282.25" y="962.7104">__private: {}</text><ellipse cx="273.25" cy="973.207" fill="none" rx="3" ry="3" style="stroke: #038048; stroke-width: 1.0;"/><text fill="#000000" font-family="sans-serif" font-size="11" lengthAdjust="spacingAndGlyphs" textLength="63" x="282.25" y="975.5151">milestones</text><ellipse cx="273.25" cy="986.0117" fill="none" rx="3" ry="3" style="stroke: #038048; stroke-width: 1.0;"/><text fill="#000000" font-family="sans-serif" font-size="11" lengthAdjust="spacingAndGlyphs" textLength="48" x="282.25" y="988.3198">distance</text><ellipse cx="273.25" cy="998.8164" fill="none" rx="3" ry="3" style="stroke: #038048; stroke-width: 1.0;"/><text fill="#000000" font-family="sans-serif" font-size="11" lengthAdjust="spacingAndGlyphs" textLength="75" x="282.25" y="1001.1245">rewardOffset</text><ellipse cx="273.25" cy="1028.4258" fill="#84BE84" rx="3" ry="3" style="stroke: #038048; stroke-width: 1.0;"/><text fill="#000000" font-family="sans-serif" font-size="11" lengthAdjust="spacingAndGlyphs" textLength="84" x="282.25" y="1030.7339">BlockReward ()</text><ellipse cx="273.25" cy="1041.2305" fill="#84BE84" rx="3" ry="3" style="stroke: #038048; stroke-width: 1.0;"/><text fill="#000000" font-family="sans-serif" font-size="11" lengthAdjust="spacingAndGlyphs" textLength="119" x="282.25" y="1043.5386">calcMilestone(height)</text><ellipse cx="273.25" cy="1054.0352" fill="#84BE84" rx="3" ry="3" style="stroke: #038048; stroke-width: 1.0;"/><text fill="#000000" font-family="sans-serif" font-size="11" lengthAdjust="spacingAndGlyphs" textLength="107" x="282.25" y="1056.3433">calcReward(height)</text><ellipse cx="273.25" cy="1066.8398" fill="#84BE84" rx="3" ry="3" style="stroke: #038048; stroke-width: 1.0;"/><text fill="#000000" font-family="sans-serif" font-size="11" lengthAdjust="spacingAndGlyphs" textLength="103" x="282.25" y="1069.1479">calcSupply(height)</text><line style="stroke: #00008B; stroke-width: 1.0;" x1="263.25" x2="314.25" y1="1014.1211" y2="1014.1211"/><text fill="#000000" font-family="sans-serif" font-size="11" lengthAdjust="spacingAndGlyphs" textLength="48" x="314.25" y="1017.4292">Methods</text><line style="stroke: #00008B; stroke-width: 1.0;" x1="362.25" x2="413.25" y1="1014.1211" y2="1014.1211"/><rect fill="#F24D5C" height="6" style="stroke: #C82930; stroke-width: 1.0;" width="6" x="270.25" y="1093.4492"/><text fill="#000000" font-family="sans-serif" font-size="11" lengthAdjust="spacingAndGlyphs" textLength="112" x="282.25" y="1098.7573">parseHeight(height)</text><line style="stroke: #00008B; stroke-width: 1.0; stroke-dasharray: 1.0,2.0;" x1="263.25" x2="312.75" y1="1082.1445" y2="1082.1445"/><text fill="#000000" font-family="sans-serif" font-size="11" lengthAdjust="spacingAndGlyphs" textLength="51" x="312.75" y="1085.4526">__private</text><line style="stroke: #00008B; stroke-width: 1.0; stroke-dasharray: 1.0,2.0;" x1="363.75" x2="413.25" y1="1082.1445" y2="1082.1445"/><!--link Delegates to Delegate--><path d="M156.161,786.355 C152.628,806.152 149.187,825.435 145.901,843.846 " fill="none" id="Delegates-Delegate" style="stroke: #000000; stroke-width: 1.0;"/><polygon fill="none" points="149.317,784.859,159.722,766.4,163.099,787.319,149.317,784.859" style="stroke: #000000; stroke-width: 1.0;"/><text fill="#000000" font-family="sans-serif" font-size="13" lengthAdjust="spacingAndGlyphs" textLength="25" x="153.25" y="809.0669">new</text><!--link Delegates to BlockReward--><path d="M298.293,786.098 C306.889,834.264 314.943,879.397 321.537,916.346 " fill="none" id="Delegates-BlockReward" style="stroke: #000000; stroke-width: 1.0;"/><polygon fill="none" points="291.401,787.319,294.778,766.4,305.183,784.859,291.401,787.319" style="stroke: #000000; stroke-width: 1.0;"/><text fill="#000000" font-family="sans-serif" font-size="13" lengthAdjust="spacingAndGlyphs" textLength="25" x="304.25" y="809.0669">new</text><!--
@startuml
skinparam class {
	BackgroundColor AliceBlue|LightBlue
	ArrowColor Black
	BorderColor DarkBlue
}
class Delegates < module > {
  - assetTypes[2]: new Delegate(schema)
  - __private: {}
  - self: this
  .. library..
  - logger
  - sequence
  - ed
  - db
  - network
  - schema
  - balancesSequence
  - logic.transaction
  - config.forging.secret
  - config.forging.access.whiteList
  .. modules..
  - loader
  - rounds
  - accounts
  - blocks
  - transport
  - transactions
  - delegates
  - - Methods - -
  + Delegates(cb, scope)
  - getKeysSortByVote(cb)
  - getBlockSlotData(slot, height, cb
  - forge(cb)
  - checkDelegates(publicKey, votes, state, cb)
  - loadDelegates(cb)
  + generateDelegateList(height, cb)
  + getDelegates(query, cb)
  + checkConfirmedDelegates(publicKey, votes, cb)
  + checkUnconfirmedDelegates(publicKey, votes, cb)
  + fork(block, cause)
  + validateBlockSlot(block, cb)
  + sandboxApi(call, args, cb)
  + onBind(scope)
  - - API - -
  .. internal ..
  - forgingEnable(secret, publicKey, cb)
  - forgingDisable(secret, publicKey,cb)
  - forgingStatus(publicKey, cb)
  - forgingEnableAll(*, cb)
  - forgingDisableAll(*, cb)
  .. shared ..
  + getDelegate(publicKey, username, cb)
  + getNextForgers(limit, cb)
  + search(orderBy, q, limit, cb)
  + count(*, cb)
  + getVoters(publicKey, cb)
  + getDelegates(schema, cb)
  + getFee(*, cb)
  + getForgedByAccount(start, end, generatorPublicKey, cb)
  + addDelegate(secret, publicKey, cb)
}
class Delegate < logic > {
  - library
  - modules
  .. library ..
  - schema
  .. modules ..
  - accounts
  - - Methods - -
  + Delegate (schema)
  + bind (accounts)
  + create(data, trs)
  + calculateFee(trs, sender)
  + verify(trs, sender, cb)
  + process(trs, sender, cb)
  + getBytes(trs)
  + apply(trs, block, sender, cb)
  + undo(trs, block, sender, cb)
  + applyUnconfirmed(trs, sender, cb)
  + undoUnconfirmed(trs, sender, cb)
  + objectNormalize(trs)
  + dbRead(raw)
  + dbSave(trs)
  + ready(trs, sender)
}
class BlockReward < logic > {
  - __private: {}
  + milestones
  + distance
  + rewardOffset
  - - Methods - -
  + BlockReward ()
  + calcMilestone(height)
  + calcReward(height)
  + calcSupply(height)
  .. __private ..
  - parseHeight(height)
}

Delegates ^- - Delegate: new
Delegates ^- - BlockReward: new
@enduml

PlantUML version 1.2017.12(Wed Apr 26 13:06:36 ART 2017)
(GPL source distribution)
Java Runtime: Java(TM) SE Runtime Environment
JVM: Java HotSpot(TM) 64-Bit Server VM
Java Version: 1.8.0_131-b11
Operating System: Linux
OS Version: 3.13.0-119-generic
Default Encoding: UTF-8
Language: en
Country: US
--></g></svg>