<?xml version="1.0" encoding="UTF-8" standalone="no"?><svg xmlns="http://www.w3.org/2000/svg" xmlns:xlink="http://www.w3.org/1999/xlink" contentScriptType="application/ecmascript" contentStyleType="text/css" height="1146px" preserveAspectRatio="none" style="width:603px;height:1146px;" version="1.1" viewBox="0 0 603 1146" width="603px" zoomAndPan="magnify"><defs><linearGradient id="gisja20hl39w90" x1="0%" x2="100%" y1="50%" y2="50%"><stop offset="0%" stop-color="#F0F8FF"/><stop offset="100%" stop-color="#ADD8E6"/></linearGradient><filter height="300%" id="fisja20hl39w9" width="300%" x="-1" y="-1"><feGaussianBlur result="blurOut" stdDeviation="2.0"/><feColorMatrix in="blurOut" result="blurOut2" type="matrix" values="0 0 0 0 0 0 0 0 0 0 0 0 0 0 0 0 0 0 .4 0"/><feOffset dx="4.0" dy="4.0" in="blurOut2" result="blurOut3"/><feBlend in="SourceGraphic" in2="blurOut3" mode="normal"/></filter></defs><g><!--class Multisignatures--><rect fill="url(#gisja20hl39w90)" filter="url(#fisja20hl39w9)" height="446.543" id="Multisignatures" style="stroke: #00008B; stroke-width: 1.5;" width="275" x="137" y="8.5"/><ellipse cx="193.25" cy="24.5" fill="#ADD1B2" rx="11" ry="11" style="stroke: #00008B; stroke-width: 1.0;"/><path d="M196.2188,30.1406 Q195.6406,30.4375 195,30.5859 Q194.3594,30.7344 193.6563,30.7344 Q191.1563,30.7344 189.8359,29.0859 Q188.5156,27.4375 188.5156,24.3125 Q188.5156,21.1875 189.8359,19.5313 Q191.1563,17.875 193.6563,17.875 Q194.3594,17.875 195.0078,18.0313 Q195.6563,18.1875 196.2188,18.4844 L196.2188,21.2031 Q195.5938,20.625 195,20.3516 Q194.4063,20.0781 193.7813,20.0781 Q192.4375,20.0781 191.75,21.1484 Q191.0625,22.2188 191.0625,24.3125 Q191.0625,26.4063 191.75,27.4766 Q192.4375,28.5469 193.7813,28.5469 Q194.4063,28.5469 195,28.2734 Q195.5938,28 196.2188,27.4219 L196.2188,30.1406 Z "/><text fill="#000000" font-family="sans-serif" font-size="12" lengthAdjust="spacingAndGlyphs" textLength="96" x="213.75" y="28.6543">Multisignatures</text><rect fill="#FFFFFF" height="15.9688" style="stroke: #000000; stroke-width: 1.0; stroke-dasharray: 2.0,2.0;" width="56" x="359" y="5.5"/><text fill="#000000" font-family="sans-serif" font-size="12" font-style="italic" lengthAdjust="spacingAndGlyphs" textLength="46" x="364" y="17.6387">module</text><line style="stroke: #00008B; stroke-width: 1.5;" x1="138" x2="411" y1="40.5" y2="40.5"/><rect fill="none" height="6" style="stroke: #C82930; stroke-width: 1.0;" width="6" x="145" y="49.4023"/><text fill="#000000" font-family="sans-serif" font-size="11" lengthAdjust="spacingAndGlyphs" textLength="74" x="157" y="54.7104">genesisblock</text><rect fill="#F24D5C" height="6" style="stroke: #C82930; stroke-width: 1.0;" width="6" x="145" y="62.207"/><text fill="#000000" font-family="sans-serif" font-size="11" lengthAdjust="spacingAndGlyphs" textLength="249" x="157" y="67.5151">assetTypes[4]: new Multisignature(schema,</text><text fill="#000000" font-family="sans-serif" font-size="11" lengthAdjust="spacingAndGlyphs" textLength="165" x="157" y="80.3198">network, transaction, logger)</text><rect fill="none" height="6" style="stroke: #C82930; stroke-width: 1.0;" width="6" x="145" y="87.8164"/><text fill="#000000" font-family="sans-serif" font-size="11" lengthAdjust="spacingAndGlyphs" textLength="73" x="157" y="93.1245">__private: {}</text><rect fill="none" height="6" style="stroke: #C82930; stroke-width: 1.0;" width="6" x="145" y="100.6211"/><text fill="#000000" font-family="sans-serif" font-size="11" lengthAdjust="spacingAndGlyphs" textLength="50" x="157" y="105.9292">self: this</text><rect fill="none" height="6" style="stroke: #C82930; stroke-width: 1.0;" width="6" x="145" y="130.2305"/><text fill="#000000" font-family="sans-serif" font-size="11" lengthAdjust="spacingAndGlyphs" textLength="36" x="157" y="135.5386">logger</text><rect fill="none" height="6" style="stroke: #C82930; stroke-width: 1.0;" width="6" x="145" y="143.0352"/><text fill="#000000" font-family="sans-serif" font-size="11" lengthAdjust="spacingAndGlyphs" textLength="14" x="157" y="148.3433">db</text><rect fill="none" height="6" style="stroke: #C82930; stroke-width: 1.0;" width="6" x="145" y="155.8398"/><text fill="#000000" font-family="sans-serif" font-size="11" lengthAdjust="spacingAndGlyphs" textLength="45" x="157" y="161.1479">network</text><rect fill="none" height="6" style="stroke: #C82930; stroke-width: 1.0;" width="6" x="145" y="168.6445"/><text fill="#000000" font-family="sans-serif" font-size="11" lengthAdjust="spacingAndGlyphs" textLength="45" x="157" y="173.9526">schema</text><rect fill="none" height="6" style="stroke: #C82930; stroke-width: 1.0;" width="6" x="145" y="181.4492"/><text fill="#000000" font-family="sans-serif" font-size="11" lengthAdjust="spacingAndGlyphs" textLength="14" x="157" y="186.7573">ed</text><rect fill="none" height="6" style="stroke: #C82930; stroke-width: 1.0;" width="6" x="145" y="194.2539"/><text fill="#000000" font-family="sans-serif" font-size="11" lengthAdjust="spacingAndGlyphs" textLength="21" x="157" y="199.562">bus</text><rect fill="none" height="6" style="stroke: #C82930; stroke-width: 1.0;" width="6" x="145" y="207.0586"/><text fill="#000000" font-family="sans-serif" font-size="11" lengthAdjust="spacingAndGlyphs" textLength="107" x="157" y="212.3667">balancesSequence</text><rect fill="none" height="6" style="stroke: #C82930; stroke-width: 1.0;" width="6" x="145" y="219.8633"/><text fill="#000000" font-family="sans-serif" font-size="11" lengthAdjust="spacingAndGlyphs" textLength="94" x="157" y="225.1714">logic.transaction</text><line style="stroke: #00008B; stroke-width: 1.0; stroke-dasharray: 1.0,2.0;" x1="138" x2="256.5" y1="118.9258" y2="118.9258"/><text fill="#000000" font-family="sans-serif" font-size="11" lengthAdjust="spacingAndGlyphs" textLength="36" x="256.5" y="122.2339">library</text><line style="stroke: #00008B; stroke-width: 1.0; stroke-dasharray: 1.0,2.0;" x1="292.5" x2="411" y1="118.9258" y2="118.9258"/><rect fill="none" height="6" style="stroke: #C82930; stroke-width: 1.0;" width="6" x="145" y="249.4727"/><text fill="#000000" font-family="sans-serif" font-size="11" lengthAdjust="spacingAndGlyphs" textLength="71" x="157" y="254.7808">transactions</text><rect fill="none" height="6" style="stroke: #C82930; stroke-width: 1.0;" width="6" x="145" y="262.2773"/><text fill="#000000" font-family="sans-serif" font-size="11" lengthAdjust="spacingAndGlyphs" textLength="51" x="157" y="267.5854">accounts</text><line style="stroke: #00008B; stroke-width: 1.0; stroke-dasharray: 1.0,2.0;" x1="138" x2="250" y1="238.168" y2="238.168"/><text fill="#000000" font-family="sans-serif" font-size="11" lengthAdjust="spacingAndGlyphs" textLength="49" x="250" y="241.4761">modules</text><line style="stroke: #00008B; stroke-width: 1.0; stroke-dasharray: 1.0,2.0;" x1="299" x2="411" y1="238.168" y2="238.168"/><ellipse cx="148" cy="294.8867" fill="#84BE84" rx="3" ry="3" style="stroke: #038048; stroke-width: 1.0;"/><text fill="#000000" font-family="sans-serif" font-size="11" lengthAdjust="spacingAndGlyphs" textLength="154" x="157" y="297.1948">Multisignatures (cb, scope)</text><ellipse cx="148" cy="307.6914" fill="#84BE84" rx="3" ry="3" style="stroke: #038048; stroke-width: 1.0;"/><text fill="#000000" font-family="sans-serif" font-size="11" lengthAdjust="spacingAndGlyphs" textLength="144" x="157" y="309.9995">processSignature (tx, cb)</text><ellipse cx="148" cy="320.4961" fill="#84BE84" rx="3" ry="3" style="stroke: #038048; stroke-width: 1.0;"/><text fill="#000000" font-family="sans-serif" font-size="11" lengthAdjust="spacingAndGlyphs" textLength="151" x="157" y="322.8042">sandboxApi (call, args, cb)</text><ellipse cx="148" cy="333.3008" fill="#84BE84" rx="3" ry="3" style="stroke: #038048; stroke-width: 1.0;"/><text fill="#000000" font-family="sans-serif" font-size="11" lengthAdjust="spacingAndGlyphs" textLength="85" x="157" y="335.6089">onBind (scope)</text><ellipse cx="148" cy="346.1055" fill="#84BE84" rx="3" ry="3" style="stroke: #038048; stroke-width: 1.0;"/><text fill="#000000" font-family="sans-serif" font-size="11" lengthAdjust="spacingAndGlyphs" textLength="63" x="157" y="348.4136">isLoaded ()</text><line style="stroke: #00008B; stroke-width: 1.0;" x1="138" x2="250.5" y1="280.582" y2="280.582"/><text fill="#000000" font-family="sans-serif" font-size="11" lengthAdjust="spacingAndGlyphs" textLength="48" x="250.5" y="283.8901">Methods</text><line style="stroke: #00008B; stroke-width: 1.0;" x1="298.5" x2="411" y1="280.582" y2="280.582"/><line style="stroke: #00008B; stroke-width: 1.0;" x1="138" x2="266" y1="361.4102" y2="361.4102"/><text fill="#000000" font-family="sans-serif" font-size="11" lengthAdjust="spacingAndGlyphs" textLength="17" x="266" y="364.7183">API</text><line style="stroke: #00008B; stroke-width: 1.0;" x1="283" x2="411" y1="361.4102" y2="361.4102"/><ellipse cx="148" cy="394.9219" fill="#84BE84" rx="3" ry="3" style="stroke: #038048; stroke-width: 1.0;"/><text fill="#000000" font-family="sans-serif" font-size="11" lengthAdjust="spacingAndGlyphs" textLength="155" x="157" y="397.23">getAccounts (publicKey, cb)</text><ellipse cx="148" cy="407.7266" fill="#84BE84" rx="3" ry="3" style="stroke: #038048; stroke-width: 1.0;"/><text fill="#000000" font-family="sans-serif" font-size="11" lengthAdjust="spacingAndGlyphs" textLength="131" x="157" y="410.0347">pending (publicKey, cb)</text><ellipse cx="148" cy="420.5313" fill="#84BE84" rx="3" ry="3" style="stroke: #038048; stroke-width: 1.0;"/><text fill="#000000" font-family="sans-serif" font-size="11" lengthAdjust="spacingAndGlyphs" textLength="236" x="157" y="422.8394">sign (transactionId, secret, publicKey, cb)</text><ellipse cx="148" cy="433.3359" fill="#84BE84" rx="3" ry="3" style="stroke: #038048; stroke-width: 1.0;"/><text fill="#000000" font-family="sans-serif" font-size="11" lengthAdjust="spacingAndGlyphs" textLength="210" x="157" y="435.644">addMultisignature (secret, publicKey,</text><text fill="#000000" font-family="sans-serif" font-size="11" lengthAdjust="spacingAndGlyphs" textLength="249" x="157" y="448.4487">secondSecret, min, keysgroup, lifetime, cb)</text><line style="stroke: #00008B; stroke-width: 1.0; stroke-dasharray: 1.0,2.0;" x1="138" x2="254.5" y1="380.6172" y2="380.6172"/><text fill="#000000" font-family="sans-serif" font-size="11" lengthAdjust="spacingAndGlyphs" textLength="40" x="254.5" y="383.9253">shared</text><line style="stroke: #00008B; stroke-width: 1.0; stroke-dasharray: 1.0,2.0;" x1="294.5" x2="411" y1="380.6172" y2="380.6172"/><!--class Multisignature--><rect fill="url(#gisja20hl39w90)" filter="url(#fisja20hl39w9)" height="461.75" id="Multisignature" style="stroke: #00008B; stroke-width: 1.5;" width="225" x="6" y="605"/><ellipse cx="49.35" cy="621" fill="#ADD1B2" rx="11" ry="11" style="stroke: #00008B; stroke-width: 1.0;"/><path d="M52.3188,626.6406 Q51.7406,626.9375 51.1,627.0859 Q50.4594,627.2344 49.7563,627.2344 Q47.2563,627.2344 45.9359,625.5859 Q44.6156,623.9375 44.6156,620.8125 Q44.6156,617.6875 45.9359,616.0313 Q47.2563,614.375 49.7563,614.375 Q50.4594,614.375 51.1078,614.5313 Q51.7563,614.6875 52.3188,614.9844 L52.3188,617.7031 Q51.6938,617.125 51.1,616.8516 Q50.5063,616.5781 49.8813,616.5781 Q48.5375,616.5781 47.85,617.6484 Q47.1625,618.7188 47.1625,620.8125 Q47.1625,622.9063 47.85,623.9766 Q48.5375,625.0469 49.8813,625.0469 Q50.5063,625.0469 51.1,624.7734 Q51.6938,624.5 52.3188,623.9219 L52.3188,626.6406 Z "/><text fill="#000000" font-family="sans-serif" font-size="12" lengthAdjust="spacingAndGlyphs" textLength="89" x="69.65" y="625.1543">Multisignature</text><rect fill="#FFFFFF" height="15.9688" style="stroke: #000000; stroke-width: 1.0; stroke-dasharray: 2.0,2.0;" width="39" x="195" y="602"/><text fill="#000000" font-family="sans-serif" font-size="12" font-style="italic" lengthAdjust="spacingAndGlyphs" textLength="29" x="200" y="614.1387">logic</text><line style="stroke: #00008B; stroke-width: 1.5;" x1="7" x2="230" y1="637" y2="637"/><rect fill="none" height="6" style="stroke: #C82930; stroke-width: 1.0;" width="6" x="14" y="645.9023"/><text fill="#000000" font-family="sans-serif" font-size="11" lengthAdjust="spacingAndGlyphs" textLength="73" x="26" y="651.2104">__private: {}</text><rect fill="none" height="6" style="stroke: #C82930; stroke-width: 1.0;" width="6" x="14" y="658.707"/><text fill="#000000" font-family="sans-serif" font-size="11" lengthAdjust="spacingAndGlyphs" textLength="49" x="26" y="664.0151">modules</text><rect fill="none" height="6" style="stroke: #C82930; stroke-width: 1.0;" width="6" x="14" y="671.5117"/><text fill="#000000" font-family="sans-serif" font-size="11" lengthAdjust="spacingAndGlyphs" textLength="36" x="26" y="676.8198">library</text><ellipse cx="17" cy="687.3164" fill="none" rx="3" ry="3" style="stroke: #038048; stroke-width: 1.0;"/><text fill="#000000" font-family="sans-serif" font-size="11" lengthAdjust="spacingAndGlyphs" textLength="45" x="26" y="689.6245">schema</text><ellipse cx="17" cy="700.1211" fill="none" rx="3" ry="3" style="stroke: #038048; stroke-width: 1.0;"/><text fill="#000000" font-family="sans-serif" font-size="11" lengthAdjust="spacingAndGlyphs" textLength="142" x="26" y="702.4292">dbTable: multisignatures</text><ellipse cx="17" cy="712.9258" fill="none" rx="3" ry="3" style="stroke: #038048; stroke-width: 1.0;"/><text fill="#000000" font-family="sans-serif" font-size="11" lengthAdjust="spacingAndGlyphs" textLength="47" x="26" y="715.2339">dbFields</text><rect fill="none" height="6" style="stroke: #C82930; stroke-width: 1.0;" width="6" x="14" y="739.5352"/><text fill="#000000" font-family="sans-serif" font-size="11" lengthAdjust="spacingAndGlyphs" textLength="36" x="26" y="744.8433">logger</text><rect fill="none" height="6" style="stroke: #C82930; stroke-width: 1.0;" width="6" x="14" y="752.3398"/><text fill="#000000" font-family="sans-serif" font-size="11" lengthAdjust="spacingAndGlyphs" textLength="45" x="26" y="757.6479">schema</text><rect fill="none" height="6" style="stroke: #C82930; stroke-width: 1.0;" width="6" x="14" y="765.1445"/><text fill="#000000" font-family="sans-serif" font-size="11" lengthAdjust="spacingAndGlyphs" textLength="45" x="26" y="770.4526">network</text><rect fill="none" height="6" style="stroke: #C82930; stroke-width: 1.0;" width="6" x="14" y="777.9492"/><text fill="#000000" font-family="sans-serif" font-size="11" lengthAdjust="spacingAndGlyphs" textLength="94" x="26" y="783.2573">logic.transaction</text><line style="stroke: #00008B; stroke-width: 1.0; stroke-dasharray: 1.0,2.0;" x1="7" x2="100.5" y1="728.2305" y2="728.2305"/><text fill="#000000" font-family="sans-serif" font-size="11" lengthAdjust="spacingAndGlyphs" textLength="36" x="100.5" y="731.5386">library</text><line style="stroke: #00008B; stroke-width: 1.0; stroke-dasharray: 1.0,2.0;" x1="136.5" x2="230" y1="728.2305" y2="728.2305"/><rect fill="none" height="6" style="stroke: #C82930; stroke-width: 1.0;" width="6" x="14" y="807.5586"/><text fill="#000000" font-family="sans-serif" font-size="11" lengthAdjust="spacingAndGlyphs" textLength="40" x="26" y="812.8667">rounds</text><rect fill="none" height="6" style="stroke: #C82930; stroke-width: 1.0;" width="6" x="14" y="820.3633"/><text fill="#000000" font-family="sans-serif" font-size="11" lengthAdjust="spacingAndGlyphs" textLength="51" x="26" y="825.6714">accounts</text><line style="stroke: #00008B; stroke-width: 1.0; stroke-dasharray: 1.0,2.0;" x1="7" x2="75" y1="796.2539" y2="796.2539"/><text fill="#000000" font-family="sans-serif" font-size="11" lengthAdjust="spacingAndGlyphs" textLength="87" x="75" y="799.562">modules object</text><line style="stroke: #00008B; stroke-width: 1.0; stroke-dasharray: 1.0,2.0;" x1="162" x2="230" y1="796.2539" y2="796.2539"/><ellipse cx="17" cy="852.9727" fill="#84BE84" rx="3" ry="3" style="stroke: #038048; stroke-width: 1.0;"/><text fill="#000000" font-family="sans-serif" font-size="11" lengthAdjust="spacingAndGlyphs" textLength="190" x="26" y="855.2808">Multisignature (schema, network,</text><text fill="#000000" font-family="sans-serif" font-size="11" lengthAdjust="spacingAndGlyphs" textLength="112" x="26" y="868.0854">transaction, logger)</text><ellipse cx="17" cy="878.582" fill="#84BE84" rx="3" ry="3" style="stroke: #038048; stroke-width: 1.0;"/><text fill="#000000" font-family="sans-serif" font-size="11" lengthAdjust="spacingAndGlyphs" textLength="135" x="26" y="880.8901">bind (rounds, accounts)</text><ellipse cx="17" cy="891.3867" fill="#84BE84" rx="3" ry="3" style="stroke: #038048; stroke-width: 1.0;"/><text fill="#000000" font-family="sans-serif" font-size="11" lengthAdjust="spacingAndGlyphs" textLength="97" x="26" y="893.6948">create (data, trs)</text><ellipse cx="17" cy="904.1914" fill="#84BE84" rx="3" ry="3" style="stroke: #038048; stroke-width: 1.0;"/><text fill="#000000" font-family="sans-serif" font-size="11" lengthAdjust="spacingAndGlyphs" textLength="146" x="26" y="906.4995">calculateFee (trs, sender)</text><ellipse cx="17" cy="916.9961" fill="#84BE84" rx="3" ry="3" style="stroke: #038048; stroke-width: 1.0;"/><text fill="#000000" font-family="sans-serif" font-size="11" lengthAdjust="spacingAndGlyphs" textLength="128" x="26" y="919.3042">verify (trs, sender, cb)</text><ellipse cx="17" cy="929.8008" fill="#84BE84" rx="3" ry="3" style="stroke: #038048; stroke-width: 1.0;"/><text fill="#000000" font-family="sans-serif" font-size="11" lengthAdjust="spacingAndGlyphs" textLength="143" x="26" y="932.1089">process (trs, sender, cb)</text><ellipse cx="17" cy="942.6055" fill="#84BE84" rx="3" ry="3" style="stroke: #038048; stroke-width: 1.0;"/><text fill="#000000" font-family="sans-serif" font-size="11" lengthAdjust="spacingAndGlyphs" textLength="109" x="26" y="944.9136">getBytes (trs, skip)</text><ellipse cx="17" cy="955.4102" fill="#84BE84" rx="3" ry="3" style="stroke: #038048; stroke-width: 1.0;"/><text fill="#000000" font-family="sans-serif" font-size="11" lengthAdjust="spacingAndGlyphs" textLength="164" x="26" y="957.7183">apply (trs, block, sender, cb)</text><ellipse cx="17" cy="968.2148" fill="#84BE84" rx="3" ry="3" style="stroke: #038048; stroke-width: 1.0;"/><text fill="#000000" font-family="sans-serif" font-size="11" lengthAdjust="spacingAndGlyphs" textLength="162" x="26" y="970.5229">undo (trs, block, sender, cb)</text><ellipse cx="17" cy="981.0195" fill="#84BE84" rx="3" ry="3" style="stroke: #038048; stroke-width: 1.0;"/><text fill="#000000" font-family="sans-serif" font-size="11" lengthAdjust="spacingAndGlyphs" textLength="199" x="26" y="983.3276">applyUnconfirmed (trs, sender, cb)</text><ellipse cx="17" cy="993.8242" fill="#84BE84" rx="3" ry="3" style="stroke: #038048; stroke-width: 1.0;"/><text fill="#000000" font-family="sans-serif" font-size="11" lengthAdjust="spacingAndGlyphs" textLength="197" x="26" y="996.1323">undoUnconfirmed (trs, sender, cb)</text><ellipse cx="17" cy="1006.6289" fill="#84BE84" rx="3" ry="3" style="stroke: #038048; stroke-width: 1.0;"/><text fill="#000000" font-family="sans-serif" font-size="11" lengthAdjust="spacingAndGlyphs" textLength="118" x="26" y="1008.937">objectNormalize (trs)</text><ellipse cx="17" cy="1019.4336" fill="#84BE84" rx="3" ry="3" style="stroke: #038048; stroke-width: 1.0;"/><text fill="#000000" font-family="sans-serif" font-size="11" lengthAdjust="spacingAndGlyphs" textLength="75" x="26" y="1021.7417">dbRead (raw)</text><ellipse cx="17" cy="1032.2383" fill="#84BE84" rx="3" ry="3" style="stroke: #038048; stroke-width: 1.0;"/><text fill="#000000" font-family="sans-serif" font-size="11" lengthAdjust="spacingAndGlyphs" textLength="70" x="26" y="1034.5464">dbSave (trs)</text><ellipse cx="17" cy="1045.043" fill="#84BE84" rx="3" ry="3" style="stroke: #038048; stroke-width: 1.0;"/><text fill="#000000" font-family="sans-serif" font-size="11" lengthAdjust="spacingAndGlyphs" textLength="104" x="26" y="1047.3511">afterSave (trs, cb)</text><ellipse cx="17" cy="1057.8477" fill="#84BE84" rx="3" ry="3" style="stroke: #038048; stroke-width: 1.0;"/><text fill="#000000" font-family="sans-serif" font-size="11" lengthAdjust="spacingAndGlyphs" textLength="108" x="26" y="1060.1558">ready (trs, sender)</text><line style="stroke: #00008B; stroke-width: 1.0;" x1="7" x2="94.5" y1="838.668" y2="838.668"/><text fill="#000000" font-family="sans-serif" font-size="11" lengthAdjust="spacingAndGlyphs" textLength="48" x="94.5" y="841.9761">Methods</text><line style="stroke: #00008B; stroke-width: 1.0;" x1="142.5" x2="230" y1="838.668" y2="838.668"/><!--class Transaction--><rect fill="url(#gisja20hl39w90)" filter="url(#fisja20hl39w9)" height="602.6016" id="Transaction" style="stroke: #00008B; stroke-width: 1.5;" width="328" x="266.25" y="534.5"/><ellipse cx="368.5" cy="550.5" fill="#ADD1B2" rx="11" ry="11" style="stroke: #00008B; stroke-width: 1.0;"/><path d="M371.4688,556.1406 Q370.8906,556.4375 370.25,556.5859 Q369.6094,556.7344 368.9063,556.7344 Q366.4063,556.7344 365.0859,555.0859 Q363.7656,553.4375 363.7656,550.3125 Q363.7656,547.1875 365.0859,545.5313 Q366.4063,543.875 368.9063,543.875 Q369.6094,543.875 370.2578,544.0313 Q370.9063,544.1875 371.4688,544.4844 L371.4688,547.2031 Q370.8438,546.625 370.25,546.3516 Q369.6563,546.0781 369.0313,546.0781 Q367.6875,546.0781 367,547.1484 Q366.3125,548.2188 366.3125,550.3125 Q366.3125,552.4063 367,553.4766 Q367.6875,554.5469 369.0313,554.5469 Q369.6563,554.5469 370.25,554.2734 Q370.8438,554 371.4688,553.4219 L371.4688,556.1406 Z "/><text fill="#000000" font-family="sans-serif" font-size="12" lengthAdjust="spacingAndGlyphs" textLength="74" x="389" y="554.6543">Transaction</text><rect fill="#FFFFFF" height="15.9688" style="stroke: #000000; stroke-width: 1.0; stroke-dasharray: 2.0,2.0;" width="39" x="558.25" y="531.5"/><text fill="#000000" font-family="sans-serif" font-size="12" font-style="italic" lengthAdjust="spacingAndGlyphs" textLength="29" x="563.25" y="543.6387">logic</text><line style="stroke: #00008B; stroke-width: 1.5;" x1="267.25" x2="593.25" y1="566.5" y2="566.5"/><rect fill="none" height="6" style="stroke: #C82930; stroke-width: 1.0;" width="6" x="274.25" y="575.4023"/><text fill="#000000" font-family="sans-serif" font-size="11" lengthAdjust="spacingAndGlyphs" textLength="73" x="286.25" y="580.7104">__private: {}</text><rect fill="none" height="6" style="stroke: #C82930; stroke-width: 1.0;" width="6" x="274.25" y="588.207"/><text fill="#000000" font-family="sans-serif" font-size="11" lengthAdjust="spacingAndGlyphs" textLength="50" x="286.25" y="593.5151">self: this</text><rect fill="none" height="6" style="stroke: #C82930; stroke-width: 1.0;" width="6" x="274.25" y="601.0117"/><text fill="#000000" font-family="sans-serif" font-size="11" lengthAdjust="spacingAndGlyphs" textLength="49" x="286.25" y="606.3198">modules</text><ellipse cx="277.25" cy="616.8164" fill="none" rx="3" ry="3" style="stroke: #038048; stroke-width: 1.0;"/><text fill="#000000" font-family="sans-serif" font-size="11" lengthAdjust="spacingAndGlyphs" textLength="69" x="286.25" y="619.1245">dbTable: trs</text><ellipse cx="277.25" cy="629.6211" fill="none" rx="3" ry="3" style="stroke: #038048; stroke-width: 1.0;"/><text fill="#000000" font-family="sans-serif" font-size="11" lengthAdjust="spacingAndGlyphs" textLength="47" x="286.25" y="631.9292">dbFields</text><ellipse cx="277.25" cy="642.4258" fill="none" rx="3" ry="3" style="stroke: #038048; stroke-width: 1.0;"/><text fill="#000000" font-family="sans-serif" font-size="11" lengthAdjust="spacingAndGlyphs" textLength="120" x="286.25" y="644.7339">schema: Transaction</text><rect fill="none" height="6" style="stroke: #C82930; stroke-width: 1.0;" width="6" x="274.25" y="669.0352"/><text fill="#000000" font-family="sans-serif" font-size="11" lengthAdjust="spacingAndGlyphs" textLength="14" x="286.25" y="674.3433">db</text><rect fill="none" height="6" style="stroke: #C82930; stroke-width: 1.0;" width="6" x="274.25" y="681.8398"/><text fill="#000000" font-family="sans-serif" font-size="11" lengthAdjust="spacingAndGlyphs" textLength="14" x="286.25" y="687.1479">ed</text><rect fill="none" height="6" style="stroke: #C82930; stroke-width: 1.0;" width="6" x="274.25" y="694.6445"/><text fill="#000000" font-family="sans-serif" font-size="11" lengthAdjust="spacingAndGlyphs" textLength="45" x="286.25" y="699.9526">schema</text><rect fill="none" height="6" style="stroke: #C82930; stroke-width: 1.0;" width="6" x="274.25" y="707.4492"/><text fill="#000000" font-family="sans-serif" font-size="11" lengthAdjust="spacingAndGlyphs" textLength="74" x="286.25" y="712.7573">genesisblock</text><rect fill="none" height="6" style="stroke: #C82930; stroke-width: 1.0;" width="6" x="274.25" y="720.2539"/><text fill="#000000" font-family="sans-serif" font-size="11" lengthAdjust="spacingAndGlyphs" textLength="44" x="286.25" y="725.562">account</text><rect fill="none" height="6" style="stroke: #C82930; stroke-width: 1.0;" width="6" x="274.25" y="733.0586"/><text fill="#000000" font-family="sans-serif" font-size="11" lengthAdjust="spacingAndGlyphs" textLength="36" x="286.25" y="738.3667">logger</text><line style="stroke: #00008B; stroke-width: 1.0; stroke-dasharray: 1.0,2.0;" x1="267.25" x2="400.75" y1="657.7305" y2="657.7305"/><text fill="#000000" font-family="sans-serif" font-size="11" lengthAdjust="spacingAndGlyphs" textLength="59" x="400.75" y="661.0386">this.scope</text><line style="stroke: #00008B; stroke-width: 1.0; stroke-dasharray: 1.0,2.0;" x1="459.75" x2="593.25" y1="657.7305" y2="657.7305"/><rect fill="none" height="6" style="stroke: #C82930; stroke-width: 1.0;" width="6" x="274.25" y="762.668"/><text fill="#000000" font-family="sans-serif" font-size="11" lengthAdjust="spacingAndGlyphs" textLength="40" x="286.25" y="767.9761">rounds</text><line style="stroke: #00008B; stroke-width: 1.0; stroke-dasharray: 1.0,2.0;" x1="267.25" x2="386.75" y1="751.3633" y2="751.3633"/><text fill="#000000" font-family="sans-serif" font-size="11" lengthAdjust="spacingAndGlyphs" textLength="87" x="386.75" y="754.6714">modules object</text><line style="stroke: #00008B; stroke-width: 1.0; stroke-dasharray: 1.0,2.0;" x1="473.75" x2="593.25" y1="751.3633" y2="751.3633"/><ellipse cx="277.25" cy="795.2773" fill="#84BE84" rx="3" ry="3" style="stroke: #038048; stroke-width: 1.0;"/><text fill="#000000" font-family="sans-serif" font-size="11" lengthAdjust="spacingAndGlyphs" textLength="302" x="286.25" y="797.5854">Transaction (db, ed, schema, genesisblock, account,</text><text fill="#000000" font-family="sans-serif" font-size="11" lengthAdjust="spacingAndGlyphs" textLength="61" x="286.25" y="810.3901">logger, cb)</text><ellipse cx="277.25" cy="820.8867" fill="#84BE84" rx="3" ry="3" style="stroke: #038048; stroke-width: 1.0;"/><text fill="#000000" font-family="sans-serif" font-size="11" lengthAdjust="spacingAndGlyphs" textLength="73" x="286.25" y="823.1948">create (data)</text><ellipse cx="277.25" cy="833.6914" fill="#84BE84" rx="3" ry="3" style="stroke: #038048; stroke-width: 1.0;"/><text fill="#000000" font-family="sans-serif" font-size="11" lengthAdjust="spacingAndGlyphs" textLength="196" x="286.25" y="835.9995">attachAssetType (typeId, instance)</text><ellipse cx="277.25" cy="846.4961" fill="#84BE84" rx="3" ry="3" style="stroke: #038048; stroke-width: 1.0;"/><text fill="#000000" font-family="sans-serif" font-size="11" lengthAdjust="spacingAndGlyphs" textLength="101" x="286.25" y="848.8042">sign (keypair, trs)</text><ellipse cx="277.25" cy="859.3008" fill="#84BE84" rx="3" ry="3" style="stroke: #038048; stroke-width: 1.0;"/><text fill="#000000" font-family="sans-serif" font-size="11" lengthAdjust="spacingAndGlyphs" textLength="129" x="286.25" y="861.6089">multisign (keypair, trs)</text><ellipse cx="277.25" cy="872.1055" fill="#84BE84" rx="3" ry="3" style="stroke: #038048; stroke-width: 1.0;"/><text fill="#000000" font-family="sans-serif" font-size="11" lengthAdjust="spacingAndGlyphs" textLength="56" x="286.25" y="874.4136">getId (trs)</text><ellipse cx="277.25" cy="884.9102" fill="#84BE84" rx="3" ry="3" style="stroke: #038048; stroke-width: 1.0;"/><text fill="#000000" font-family="sans-serif" font-size="11" lengthAdjust="spacingAndGlyphs" textLength="75" x="286.25" y="887.2183">getHash (trs)</text><ellipse cx="277.25" cy="897.7148" fill="#84BE84" rx="3" ry="3" style="stroke: #038048; stroke-width: 1.0;"/><text fill="#000000" font-family="sans-serif" font-size="11" lengthAdjust="spacingAndGlyphs" textLength="292" x="286.25" y="900.0229">getBytes (trs, skipSignature, skipSecondSignature)</text><ellipse cx="277.25" cy="910.5195" fill="#84BE84" rx="3" ry="3" style="stroke: #038048; stroke-width: 1.0;"/><text fill="#000000" font-family="sans-serif" font-size="11" lengthAdjust="spacingAndGlyphs" textLength="108" x="286.25" y="912.8276">ready (trs, sender)</text><ellipse cx="277.25" cy="923.3242" fill="#84BE84" rx="3" ry="3" style="stroke: #038048; stroke-width: 1.0;"/><text fill="#000000" font-family="sans-serif" font-size="11" lengthAdjust="spacingAndGlyphs" textLength="104" x="286.25" y="925.6323">countById (trs, cb)</text><ellipse cx="277.25" cy="936.1289" fill="#84BE84" rx="3" ry="3" style="stroke: #038048; stroke-width: 1.0;"/><text fill="#000000" font-family="sans-serif" font-size="11" lengthAdjust="spacingAndGlyphs" textLength="140" x="286.25" y="938.437">checkConfirmed (trs, cb)</text><ellipse cx="277.25" cy="948.9336" fill="#84BE84" rx="3" ry="3" style="stroke: #038048; stroke-width: 1.0;"/><text fill="#000000" font-family="sans-serif" font-size="11" lengthAdjust="spacingAndGlyphs" textLength="256" x="286.25" y="951.2417">checkBalance (amount, balance, trs, sender)</text><ellipse cx="277.25" cy="961.7383" fill="#84BE84" rx="3" ry="3" style="stroke: #038048; stroke-width: 1.0;"/><text fill="#000000" font-family="sans-serif" font-size="11" lengthAdjust="spacingAndGlyphs" textLength="207" x="286.25" y="964.0464">process (trs, sender, requester, cb)</text><ellipse cx="277.25" cy="974.543" fill="#84BE84" rx="3" ry="3" style="stroke: #038048; stroke-width: 1.0;"/><text fill="#000000" font-family="sans-serif" font-size="11" lengthAdjust="spacingAndGlyphs" textLength="192" x="286.25" y="976.8511">verify (trs, sender, requester, cb)</text><ellipse cx="277.25" cy="987.3477" fill="#84BE84" rx="3" ry="3" style="stroke: #038048; stroke-width: 1.0;"/><text fill="#000000" font-family="sans-serif" font-size="11" lengthAdjust="spacingAndGlyphs" textLength="237" x="286.25" y="989.6558">verifySignature (trs, publicKey, signature)</text><ellipse cx="277.25" cy="1000.1523" fill="#84BE84" rx="3" ry="3" style="stroke: #038048; stroke-width: 1.0;"/><text fill="#000000" font-family="sans-serif" font-size="11" lengthAdjust="spacingAndGlyphs" textLength="279" x="286.25" y="1002.4604">verifySecondSignature (trs, publicKey, signature)</text><ellipse cx="277.25" cy="1012.957" fill="#84BE84" rx="3" ry="3" style="stroke: #038048; stroke-width: 1.0;"/><text fill="#000000" font-family="sans-serif" font-size="11" lengthAdjust="spacingAndGlyphs" textLength="229" x="286.25" y="1015.2651">verifyBytes (bytes, publicKey, signature)</text><ellipse cx="277.25" cy="1025.7617" fill="#84BE84" rx="3" ry="3" style="stroke: #038048; stroke-width: 1.0;"/><text fill="#000000" font-family="sans-serif" font-size="11" lengthAdjust="spacingAndGlyphs" textLength="164" x="286.25" y="1028.0698">apply (trs, block, sender, cb)</text><ellipse cx="277.25" cy="1038.5664" fill="#84BE84" rx="3" ry="3" style="stroke: #038048; stroke-width: 1.0;"/><text fill="#000000" font-family="sans-serif" font-size="11" lengthAdjust="spacingAndGlyphs" textLength="162" x="286.25" y="1040.8745">undo (trs, block, sender, cb)</text><ellipse cx="277.25" cy="1051.3711" fill="#84BE84" rx="3" ry="3" style="stroke: #038048; stroke-width: 1.0;"/><text fill="#000000" font-family="sans-serif" font-size="11" lengthAdjust="spacingAndGlyphs" textLength="263" x="286.25" y="1053.6792">applyUnconfirmed (trs, sender, requester, cb)</text><ellipse cx="277.25" cy="1064.1758" fill="#84BE84" rx="3" ry="3" style="stroke: #038048; stroke-width: 1.0;"/><text fill="#000000" font-family="sans-serif" font-size="11" lengthAdjust="spacingAndGlyphs" textLength="197" x="286.25" y="1066.4839">undoUnconfirmed (trs, sender, cb)</text><ellipse cx="277.25" cy="1076.9805" fill="#84BE84" rx="3" ry="3" style="stroke: #038048; stroke-width: 1.0;"/><text fill="#000000" font-family="sans-serif" font-size="11" lengthAdjust="spacingAndGlyphs" textLength="70" x="286.25" y="1079.2886">dbSave (trs)</text><ellipse cx="277.25" cy="1089.7852" fill="#84BE84" rx="3" ry="3" style="stroke: #038048; stroke-width: 1.0;"/><text fill="#000000" font-family="sans-serif" font-size="11" lengthAdjust="spacingAndGlyphs" textLength="104" x="286.25" y="1092.0933">afterSave (trs, cb)</text><ellipse cx="277.25" cy="1102.5898" fill="#84BE84" rx="3" ry="3" style="stroke: #038048; stroke-width: 1.0;"/><text fill="#000000" font-family="sans-serif" font-size="11" lengthAdjust="spacingAndGlyphs" textLength="118" x="286.25" y="1104.8979">objectNormalize (trs)</text><ellipse cx="277.25" cy="1115.3945" fill="#84BE84" rx="3" ry="3" style="stroke: #038048; stroke-width: 1.0;"/><text fill="#000000" font-family="sans-serif" font-size="11" lengthAdjust="spacingAndGlyphs" textLength="75" x="286.25" y="1117.7026">dbRead (raw)</text><ellipse cx="277.25" cy="1128.1992" fill="#84BE84" rx="3" ry="3" style="stroke: #038048; stroke-width: 1.0;"/><text fill="#000000" font-family="sans-serif" font-size="11" lengthAdjust="spacingAndGlyphs" textLength="117" x="286.25" y="1130.5073">bindModules (scope)</text><line style="stroke: #00008B; stroke-width: 1.0;" x1="267.25" x2="406.25" y1="780.9727" y2="780.9727"/><text fill="#000000" font-family="sans-serif" font-size="11" lengthAdjust="spacingAndGlyphs" textLength="48" x="406.25" y="784.2808">Methods</text><line style="stroke: #00008B; stroke-width: 1.0;" x1="454.25" x2="593.25" y1="780.9727" y2="780.9727"/><!--link Multisignatures to Multisignature--><path d="M211.437,475.396 C200.357,518.152 188.852,562.549 177.863,604.953 " fill="none" id="Multisignatures-Multisignature" style="stroke: #000000; stroke-width: 1.0;"/><polygon fill="none" points="204.701,473.484,216.494,455.88,218.253,476.996,204.701,473.484" style="stroke: #000000; stroke-width: 1.0;"/><text fill="#000000" font-family="sans-serif" font-size="13" lengthAdjust="spacingAndGlyphs" textLength="25" x="207.25" y="499.0669">new</text><!--link Multisignatures to Transaction--><path d="M337.099,475.531 C342.119,494.907 347.228,514.619 352.335,534.329 " fill="none" id="Multisignatures-Transaction" style="stroke: #000000; stroke-width: 1.0; stroke-dasharray: 7.0,7.0;"/><polygon fill="none" points="330.247,476.996,332.006,455.88,343.799,473.484,330.247,476.996" style="stroke: #000000; stroke-width: 1.0;"/><text fill="#000000" font-family="sans-serif" font-size="13" lengthAdjust="spacingAndGlyphs" textLength="76" x="344.25" y="499.0669">implements</text><!--
@startuml
skinparam class {
	BackgroundColor AliceBlue|LightBlue
	ArrowColor Black
	BorderColor DarkBlue
}
class Multisignatures < module > {
  - genesisblock
  - assetTypes[4]: new Multisignature(schema,
  network, transaction, logger)
  - __private: {}
  - self: this
  .. library ..
  - logger
  - db
  - network
  - schema
  - ed
  - bus
  - balancesSequence
  - logic.transaction
  .. modules ..
  - transactions
  - accounts
  - - Methods - -
  + Multisignatures (cb, scope)
  + processSignature (tx, cb)
  + sandboxApi (call, args, cb)
  + onBind (scope)
  + isLoaded ()
  - - API - -
  .. shared ..
  + getAccounts (publicKey, cb)
  + pending (publicKey, cb)
  + sign (transactionId, secret, publicKey, cb)
  + addMultisignature (secret, publicKey,
  secondSecret, min, keysgroup, lifetime, cb)
}
class Multisignature < logic > {
  - __private: {}
  - modules
  - library
  + schema
  + dbTable: multisignatures
  + dbFields
  .. library ..
  - logger
  - schema
  - network
  - logic.transaction
  .. modules object ..
  - rounds
  - accounts
  - - Methods - -
  + Multisignature (schema, network,
  transaction, logger)
  + bind (rounds, accounts)
  + create (data, trs)
  + calculateFee (trs, sender)
  + verify (trs, sender, cb)
  + process (trs, sender, cb)
  + getBytes (trs, skip)
  + apply (trs, block, sender, cb)
  + undo (trs, block, sender, cb)
  + applyUnconfirmed (trs, sender, cb)
  + undoUnconfirmed (trs, sender, cb)
  + objectNormalize (trs)
  + dbRead (raw)
  + dbSave (trs)
  + afterSave (trs, cb)
  + ready (trs, sender)
}
class Transaction < logic > {
  - __private: {}
  - self: this
  - modules
  + dbTable: trs
  + dbFields
  + schema: Transaction
  .. this.scope ..
  - db
  - ed
  - schema
  - genesisblock
  - account
  - logger
  .. modules object ..
  - rounds
  - - Methods - -
  + Transaction (db, ed, schema, genesisblock, account,
  logger, cb)
  + create (data)
  + attachAssetType (typeId, instance)
  + sign (keypair, trs)
  + multisign (keypair, trs)
  + getId (trs)
  + getHash (trs)
  + getBytes (trs, skipSignature, skipSecondSignature)
  + ready (trs, sender)
  + countById (trs, cb)
  + checkConfirmed (trs, cb)
  + checkBalance (amount, balance, trs, sender)
  + process (trs, sender, requester, cb)
  + verify (trs, sender, requester, cb)
  + verifySignature (trs, publicKey, signature)
  + verifySecondSignature (trs, publicKey, signature)
  + verifyBytes (bytes, publicKey, signature)
  + apply (trs, block, sender, cb)
  + undo (trs, block, sender, cb)
  + applyUnconfirmed (trs, sender, requester, cb)
  + undoUnconfirmed (trs, sender, cb)
  + dbSave (trs)
  + afterSave (trs, cb)
  + objectNormalize (trs)
  + dbRead (raw)
  + bindModules (scope)
}

Multisignatures ^- - Multisignature: new
Multisignatures ^.. Transaction: implements
@enduml

PlantUML version 1.2017.12(Wed Apr 26 13:06:36 ART 2017)
(GPL source distribution)
Java Runtime: Java(TM) SE Runtime Environment
JVM: Java HotSpot(TM) 64-Bit Server VM
Java Version: 1.8.0_131-b11
Operating System: Linux
OS Version: 3.13.0-119-generic
Default Encoding: UTF-8
Language: en
Country: US
--></g></svg>