<?xml version="1.0" encoding="UTF-8" standalone="no"?><svg xmlns="http://www.w3.org/2000/svg" xmlns:xlink="http://www.w3.org/1999/xlink" contentScriptType="application/ecmascript" contentStyleType="text/css" height="1075px" preserveAspectRatio="none" style="width:192px;height:1075px;" version="1.1" viewBox="0 0 192 1075" width="192px" zoomAndPan="magnify"><defs><linearGradient id="gnriwa5i75udc0" x1="0%" x2="100%" y1="50%" y2="50%"><stop offset="0%" stop-color="#F0F8FF"/><stop offset="100%" stop-color="#ADD8E6"/></linearGradient><filter height="300%" id="fnriwa5i75udc" width="300%" x="-1" y="-1"><feGaussianBlur result="blurOut" stdDeviation="2.0"/><feColorMatrix in="blurOut" result="blurOut2" type="matrix" values="0 0 0 0 0 0 0 0 0 0 0 0 0 0 0 0 0 0 .4 0"/><feOffset dx="4.0" dy="4.0" in="blurOut2" result="blurOut3"/><feBlend in="SourceGraphic" in2="blurOut3" mode="normal"/></filter></defs><g><!--class Peers--><rect fill="url(#gnriwa5i75udc0)" filter="url(#fnriwa5i75udc)" height="613.0039" id="Peers" style="stroke: #00008B; stroke-width: 1.5;" width="177" x="6" y="8.5"/><ellipse cx="43.95" cy="24.5" fill="#ADD1B2" rx="11" ry="11" style="stroke: #00008B; stroke-width: 1.0;"/><path d="M46.9188,30.1406 Q46.3406,30.4375 45.7,30.5859 Q45.0594,30.7344 44.3563,30.7344 Q41.8563,30.7344 40.5359,29.0859 Q39.2156,27.4375 39.2156,24.3125 Q39.2156,21.1875 40.5359,19.5313 Q41.8563,17.875 44.3563,17.875 Q45.0594,17.875 45.7078,18.0313 Q46.3563,18.1875 46.9188,18.4844 L46.9188,21.2031 Q46.2938,20.625 45.7,20.3516 Q45.1063,20.0781 44.4813,20.0781 Q43.1375,20.0781 42.45,21.1484 Q41.7625,22.2188 41.7625,24.3125 Q41.7625,26.4063 42.45,27.4766 Q43.1375,28.5469 44.4813,28.5469 Q45.1063,28.5469 45.7,28.2734 Q46.2938,28 46.9188,27.4219 L46.9188,30.1406 Z "/><text fill="#000000" font-family="sans-serif" font-size="12" lengthAdjust="spacingAndGlyphs" textLength="36" x="63.05" y="28.6543">Peers</text><rect fill="#FFFFFF" height="15.9688" style="stroke: #000000; stroke-width: 1.0; stroke-dasharray: 2.0,2.0;" width="56" x="130" y="5.5"/><text fill="#000000" font-family="sans-serif" font-size="12" font-style="italic" lengthAdjust="spacingAndGlyphs" textLength="46" x="135" y="17.6387">module</text><line style="stroke: #00008B; stroke-width: 1.5;" x1="7" x2="182" y1="40.5" y2="40.5"/><rect fill="none" height="6" style="stroke: #C82930; stroke-width: 1.0;" width="6" x="14" y="49.4023"/><text fill="#000000" font-family="sans-serif" font-size="11" lengthAdjust="spacingAndGlyphs" textLength="73" x="26" y="54.7104">__private: {}</text><rect fill="none" height="6" style="stroke: #C82930; stroke-width: 1.0;" width="6" x="14" y="62.207"/><text fill="#000000" font-family="sans-serif" font-size="11" lengthAdjust="spacingAndGlyphs" textLength="50" x="26" y="67.5151">self: this</text><rect fill="none" height="6" style="stroke: #C82930; stroke-width: 1.0;" width="6" x="14" y="91.8164"/><text fill="#000000" font-family="sans-serif" font-size="11" lengthAdjust="spacingAndGlyphs" textLength="36" x="26" y="97.1245">logger</text><rect fill="none" height="6" style="stroke: #C82930; stroke-width: 1.0;" width="6" x="14" y="104.6211"/><text fill="#000000" font-family="sans-serif" font-size="11" lengthAdjust="spacingAndGlyphs" textLength="14" x="26" y="109.9292">db</text><rect fill="none" height="6" style="stroke: #C82930; stroke-width: 1.0;" width="6" x="14" y="117.4258"/><text fill="#000000" font-family="sans-serif" font-size="11" lengthAdjust="spacingAndGlyphs" textLength="45" x="26" y="122.7339">schema</text><rect fill="none" height="6" style="stroke: #C82930; stroke-width: 1.0;" width="6" x="14" y="130.2305"/><text fill="#000000" font-family="sans-serif" font-size="11" lengthAdjust="spacingAndGlyphs" textLength="21" x="26" y="135.5386">bus</text><rect fill="none" height="6" style="stroke: #C82930; stroke-width: 1.0;" width="6" x="14" y="143.0352"/><text fill="#000000" font-family="sans-serif" font-size="11" lengthAdjust="spacingAndGlyphs" textLength="34" x="26" y="148.3433">nonce</text><rect fill="none" height="6" style="stroke: #C82930; stroke-width: 1.0;" width="6" x="14" y="155.8398"/><text fill="#000000" font-family="sans-serif" font-size="11" lengthAdjust="spacingAndGlyphs" textLength="27" x="26" y="161.1479">build</text><rect fill="none" height="6" style="stroke: #C82930; stroke-width: 1.0;" width="6" x="14" y="168.6445"/><text fill="#000000" font-family="sans-serif" font-size="11" lengthAdjust="spacingAndGlyphs" textLength="65" x="26" y="173.9526">lastCommit</text><rect fill="none" height="6" style="stroke: #C82930; stroke-width: 1.0;" width="6" x="14" y="181.4492"/><text fill="#000000" font-family="sans-serif" font-size="11" lengthAdjust="spacingAndGlyphs" textLength="63" x="26" y="186.7573">logic.peers</text><rect fill="none" height="6" style="stroke: #C82930; stroke-width: 1.0;" width="6" x="14" y="194.2539"/><text fill="#000000" font-family="sans-serif" font-size="11" lengthAdjust="spacingAndGlyphs" textLength="71" x="26" y="199.562">config.peers</text><rect fill="none" height="6" style="stroke: #C82930; stroke-width: 1.0;" width="6" x="14" y="207.0586"/><text fill="#000000" font-family="sans-serif" font-size="11" lengthAdjust="spacingAndGlyphs" textLength="80" x="26" y="212.3667">config.version</text><line style="stroke: #00008B; stroke-width: 1.0; stroke-dasharray: 1.0,2.0;" x1="7" x2="57.5" y1="80.5117" y2="80.5117"/><text fill="#000000" font-family="sans-serif" font-size="11" lengthAdjust="spacingAndGlyphs" textLength="74" x="57.5" y="83.8198">library object</text><line style="stroke: #00008B; stroke-width: 1.0; stroke-dasharray: 1.0,2.0;" x1="131.5" x2="182" y1="80.5117" y2="80.5117"/><rect fill="none" height="6" style="stroke: #C82930; stroke-width: 1.0;" width="6" x="14" y="236.668"/><text fill="#000000" font-family="sans-serif" font-size="11" lengthAdjust="spacingAndGlyphs" textLength="53" x="26" y="241.9761">transport</text><rect fill="none" height="6" style="stroke: #C82930; stroke-width: 1.0;" width="6" x="14" y="249.4727"/><text fill="#000000" font-family="sans-serif" font-size="11" lengthAdjust="spacingAndGlyphs" textLength="42" x="26" y="254.7808">system</text><line style="stroke: #00008B; stroke-width: 1.0; stroke-dasharray: 1.0,2.0;" x1="7" x2="70" y1="225.3633" y2="225.3633"/><text fill="#000000" font-family="sans-serif" font-size="11" lengthAdjust="spacingAndGlyphs" textLength="49" x="70" y="228.6714">modules</text><line style="stroke: #00008B; stroke-width: 1.0; stroke-dasharray: 1.0,2.0;" x1="119" x2="182" y1="225.3633" y2="225.3633"/><ellipse cx="17" cy="282.082" fill="#84BE84" rx="3" ry="3" style="stroke: #038048; stroke-width: 1.0;"/><text fill="#000000" font-family="sans-serif" font-size="11" lengthAdjust="spacingAndGlyphs" textLength="100" x="26" y="284.3901">Peers (cb, scope)</text><rect fill="#F24D5C" height="6" style="stroke: #C82930; stroke-width: 1.0;" width="6" x="14" y="291.8867"/><text fill="#000000" font-family="sans-serif" font-size="11" lengthAdjust="spacingAndGlyphs" textLength="132" x="26" y="297.1948">countByFilter (filter, cb)</text><rect fill="#F24D5C" height="6" style="stroke: #C82930; stroke-width: 1.0;" width="6" x="14" y="304.6914"/><text fill="#000000" font-family="sans-serif" font-size="11" lengthAdjust="spacingAndGlyphs" textLength="119" x="26" y="309.9995">getByFilter (filter, cb)</text><rect fill="#F24D5C" height="6" style="stroke: #C82930; stroke-width: 1.0;" width="6" x="14" y="317.4961"/><text fill="#000000" font-family="sans-serif" font-size="11" lengthAdjust="spacingAndGlyphs" textLength="97" x="26" y="322.8042">removeBans (cb)</text><rect fill="#F24D5C" height="6" style="stroke: #C82930; stroke-width: 1.0;" width="6" x="14" y="330.3008"/><text fill="#000000" font-family="sans-serif" font-size="11" lengthAdjust="spacingAndGlyphs" textLength="94" x="26" y="335.6089">insertSeeds (cb)</text><rect fill="#F24D5C" height="6" style="stroke: #C82930; stroke-width: 1.0;" width="6" x="14" y="343.1055"/><text fill="#000000" font-family="sans-serif" font-size="11" lengthAdjust="spacingAndGlyphs" textLength="66" x="26" y="348.4136">dbLoad (cb)</text><rect fill="#F24D5C" height="6" style="stroke: #C82930; stroke-width: 1.0;" width="6" x="14" y="355.9102"/><text fill="#000000" font-family="sans-serif" font-size="11" lengthAdjust="spacingAndGlyphs" textLength="67" x="26" y="361.2183">dbSave (cb)</text><ellipse cx="17" cy="371.7148" fill="#84BE84" rx="3" ry="3" style="stroke: #038048; stroke-width: 1.0;"/><text fill="#000000" font-family="sans-serif" font-size="11" lengthAdjust="spacingAndGlyphs" textLength="151" x="26" y="374.0229">sandboxApi (call, args, cb)</text><ellipse cx="17" cy="384.5195" fill="#84BE84" rx="3" ry="3" style="stroke: #038048; stroke-width: 1.0;"/><text fill="#000000" font-family="sans-serif" font-size="11" lengthAdjust="spacingAndGlyphs" textLength="77" x="26" y="386.8276">update (peer)</text><ellipse cx="17" cy="397.3242" fill="#84BE84" rx="3" ry="3" style="stroke: #038048; stroke-width: 1.0;"/><text fill="#000000" font-family="sans-serif" font-size="11" lengthAdjust="spacingAndGlyphs" textLength="103" x="26" y="399.6323">remove (pip, port)</text><ellipse cx="17" cy="410.1289" fill="#84BE84" rx="3" ry="3" style="stroke: #038048; stroke-width: 1.0;"/><text fill="#000000" font-family="sans-serif" font-size="11" lengthAdjust="spacingAndGlyphs" textLength="137" x="26" y="412.437">ban (pip, port, seconds)</text><ellipse cx="17" cy="422.9336" fill="#84BE84" rx="3" ry="3" style="stroke: #038048; stroke-width: 1.0;"/><text fill="#000000" font-family="sans-serif" font-size="11" lengthAdjust="spacingAndGlyphs" textLength="83" x="26" y="425.2417">ping (peer, cb)</text><ellipse cx="17" cy="435.7383" fill="#84BE84" rx="3" ry="3" style="stroke: #038048; stroke-width: 1.0;"/><text fill="#000000" font-family="sans-serif" font-size="11" lengthAdjust="spacingAndGlyphs" textLength="73" x="26" y="438.0464">discover (cb)</text><ellipse cx="17" cy="448.543" fill="#84BE84" rx="3" ry="3" style="stroke: #038048; stroke-width: 1.0;"/><text fill="#000000" font-family="sans-serif" font-size="11" lengthAdjust="spacingAndGlyphs" textLength="106" x="26" y="450.8511">acceptable (peers)</text><ellipse cx="17" cy="461.3477" fill="#84BE84" rx="3" ry="3" style="stroke: #038048; stroke-width: 1.0;"/><text fill="#000000" font-family="sans-serif" font-size="11" lengthAdjust="spacingAndGlyphs" textLength="92" x="26" y="463.6558">list (options, cb)</text><ellipse cx="17" cy="474.1523" fill="#84BE84" rx="3" ry="3" style="stroke: #038048; stroke-width: 1.0;"/><text fill="#000000" font-family="sans-serif" font-size="11" lengthAdjust="spacingAndGlyphs" textLength="85" x="26" y="476.4604">onBind (scope)</text><ellipse cx="17" cy="486.957" fill="#84BE84" rx="3" ry="3" style="stroke: #038048; stroke-width: 1.0;"/><text fill="#000000" font-family="sans-serif" font-size="11" lengthAdjust="spacingAndGlyphs" textLength="120" x="26" y="489.2651">onBlockchainReady ()</text><ellipse cx="17" cy="499.7617" fill="#84BE84" rx="3" ry="3" style="stroke: #038048; stroke-width: 1.0;"/><text fill="#000000" font-family="sans-serif" font-size="11" lengthAdjust="spacingAndGlyphs" textLength="93" x="26" y="502.0698">onPeersReady ()</text><ellipse cx="17" cy="512.5664" fill="#84BE84" rx="3" ry="3" style="stroke: #038048; stroke-width: 1.0;"/><text fill="#000000" font-family="sans-serif" font-size="11" lengthAdjust="spacingAndGlyphs" textLength="56" x="26" y="514.8745">cleanup ()</text><ellipse cx="17" cy="525.3711" fill="#84BE84" rx="3" ry="3" style="stroke: #038048; stroke-width: 1.0;"/><text fill="#000000" font-family="sans-serif" font-size="11" lengthAdjust="spacingAndGlyphs" textLength="63" x="26" y="527.6792">isLoaded ()</text><line style="stroke: #00008B; stroke-width: 1.0;" x1="7" x2="70.5" y1="267.7773" y2="267.7773"/><text fill="#000000" font-family="sans-serif" font-size="11" lengthAdjust="spacingAndGlyphs" textLength="48" x="70.5" y="271.0854">Methods</text><line style="stroke: #00008B; stroke-width: 1.0;" x1="118.5" x2="182" y1="267.7773" y2="267.7773"/><line style="stroke: #00008B; stroke-width: 1.0;" x1="7" x2="86" y1="540.6758" y2="540.6758"/><text fill="#000000" font-family="sans-serif" font-size="11" lengthAdjust="spacingAndGlyphs" textLength="17" x="86" y="543.9839">API</text><line style="stroke: #00008B; stroke-width: 1.0;" x1="103" x2="182" y1="540.6758" y2="540.6758"/><ellipse cx="17" cy="574.1875" fill="#84BE84" rx="3" ry="3" style="stroke: #038048; stroke-width: 1.0;"/><text fill="#000000" font-family="sans-serif" font-size="11" lengthAdjust="spacingAndGlyphs" textLength="70" x="26" y="576.4956">count (*, cb)</text><ellipse cx="17" cy="586.9922" fill="#84BE84" rx="3" ry="3" style="stroke: #038048; stroke-width: 1.0;"/><text fill="#000000" font-family="sans-serif" font-size="11" lengthAdjust="spacingAndGlyphs" textLength="110" x="26" y="589.3003">getPeers (filter, cb)</text><ellipse cx="17" cy="599.7969" fill="#84BE84" rx="3" ry="3" style="stroke: #038048; stroke-width: 1.0;"/><text fill="#000000" font-family="sans-serif" font-size="11" lengthAdjust="spacingAndGlyphs" textLength="118" x="26" y="602.105">getPeer (ip, port, cb)</text><ellipse cx="17" cy="612.6016" fill="#84BE84" rx="3" ry="3" style="stroke: #038048; stroke-width: 1.0;"/><text fill="#000000" font-family="sans-serif" font-size="11" lengthAdjust="spacingAndGlyphs" textLength="81" x="26" y="614.9097">version (*, cb)</text><line style="stroke: #00008B; stroke-width: 1.0; stroke-dasharray: 1.0,2.0;" x1="7" x2="74.5" y1="559.8828" y2="559.8828"/><text fill="#000000" font-family="sans-serif" font-size="11" lengthAdjust="spacingAndGlyphs" textLength="40" x="74.5" y="563.1909">shared</text><line style="stroke: #00008B; stroke-width: 1.0; stroke-dasharray: 1.0,2.0;" x1="114.5" x2="182" y1="559.8828" y2="559.8828"/><!--class Peers_--><rect fill="url(#gnriwa5i75udc0)" filter="url(#fnriwa5i75udc)" height="240.0703" id="Peers_" style="stroke: #00008B; stroke-width: 1.5;" width="167" x="11" y="700"/><ellipse cx="49.4" cy="716" fill="#ADD1B2" rx="11" ry="11" style="stroke: #00008B; stroke-width: 1.0;"/><path d="M52.3688,721.6406 Q51.7906,721.9375 51.15,722.0859 Q50.5094,722.2344 49.8063,722.2344 Q47.3063,722.2344 45.9859,720.5859 Q44.6656,718.9375 44.6656,715.8125 Q44.6656,712.6875 45.9859,711.0313 Q47.3063,709.375 49.8063,709.375 Q50.5094,709.375 51.1578,709.5313 Q51.8063,709.6875 52.3688,709.9844 L52.3688,712.7031 Q51.7438,712.125 51.15,711.8516 Q50.5563,711.5781 49.9313,711.5781 Q48.5875,711.5781 47.9,712.6484 Q47.2125,713.7188 47.2125,715.8125 Q47.2125,717.9063 47.9,718.9766 Q48.5875,720.0469 49.9313,720.0469 Q50.5563,720.0469 51.15,719.7734 Q51.7438,719.5 52.3688,718.9219 L52.3688,721.6406 Z "/><text fill="#000000" font-family="sans-serif" font-size="12" lengthAdjust="spacingAndGlyphs" textLength="42" x="68.6" y="720.1543">Peers_</text><rect fill="#FFFFFF" height="15.9688" style="stroke: #000000; stroke-width: 1.0; stroke-dasharray: 2.0,2.0;" width="39" x="142" y="697"/><text fill="#000000" font-family="sans-serif" font-size="12" font-style="italic" lengthAdjust="spacingAndGlyphs" textLength="29" x="147" y="709.1387">logic</text><line style="stroke: #00008B; stroke-width: 1.5;" x1="12" x2="177" y1="732" y2="732"/><rect fill="none" height="6" style="stroke: #C82930; stroke-width: 1.0;" width="6" x="19" y="740.9023"/><text fill="#000000" font-family="sans-serif" font-size="11" lengthAdjust="spacingAndGlyphs" textLength="73" x="31" y="746.2104">__private: {}</text><rect fill="none" height="6" style="stroke: #C82930; stroke-width: 1.0;" width="6" x="19" y="753.707"/><text fill="#000000" font-family="sans-serif" font-size="11" lengthAdjust="spacingAndGlyphs" textLength="50" x="31" y="759.0151">self: this</text><rect fill="none" height="6" style="stroke: #C82930; stroke-width: 1.0;" width="6" x="19" y="783.3164"/><text fill="#000000" font-family="sans-serif" font-size="11" lengthAdjust="spacingAndGlyphs" textLength="36" x="31" y="788.6245">logger</text><line style="stroke: #00008B; stroke-width: 1.0; stroke-dasharray: 1.0,2.0;" x1="12" x2="57.5" y1="772.0117" y2="772.0117"/><text fill="#000000" font-family="sans-serif" font-size="11" lengthAdjust="spacingAndGlyphs" textLength="74" x="57.5" y="775.3198">library object</text><line style="stroke: #00008B; stroke-width: 1.0; stroke-dasharray: 1.0,2.0;" x1="131.5" x2="177" y1="772.0117" y2="772.0117"/><ellipse cx="22" cy="815.9258" fill="#84BE84" rx="3" ry="3" style="stroke: #038048; stroke-width: 1.0;"/><text fill="#000000" font-family="sans-serif" font-size="11" lengthAdjust="spacingAndGlyphs" textLength="102" x="31" y="818.2339">Peers (logger, cb)</text><ellipse cx="22" cy="828.7305" fill="#84BE84" rx="3" ry="3" style="stroke: #038048; stroke-width: 1.0;"/><text fill="#000000" font-family="sans-serif" font-size="11" lengthAdjust="spacingAndGlyphs" textLength="74" x="31" y="831.0386">create (peer)</text><ellipse cx="22" cy="841.5352" fill="#84BE84" rx="3" ry="3" style="stroke: #038048; stroke-width: 1.0;"/><text fill="#000000" font-family="sans-serif" font-size="11" lengthAdjust="spacingAndGlyphs" textLength="72" x="31" y="843.8433">exists (peer)</text><ellipse cx="22" cy="854.3398" fill="#84BE84" rx="3" ry="3" style="stroke: #038048; stroke-width: 1.0;"/><text fill="#000000" font-family="sans-serif" font-size="11" lengthAdjust="spacingAndGlyphs" textLength="56" x="31" y="856.6479">get (peer)</text><ellipse cx="22" cy="867.1445" fill="#84BE84" rx="3" ry="3" style="stroke: #038048; stroke-width: 1.0;"/><text fill="#000000" font-family="sans-serif" font-size="11" lengthAdjust="spacingAndGlyphs" textLength="141" x="31" y="869.4526">upsert (peer, insertOnly)</text><ellipse cx="22" cy="879.9492" fill="#84BE84" rx="3" ry="3" style="stroke: #038048; stroke-width: 1.0;"/><text fill="#000000" font-family="sans-serif" font-size="11" lengthAdjust="spacingAndGlyphs" textLength="130" x="31" y="882.2573">ban (ip, port, seconds)</text><ellipse cx="22" cy="892.7539" fill="#84BE84" rx="3" ry="3" style="stroke: #038048; stroke-width: 1.0;"/><text fill="#000000" font-family="sans-serif" font-size="11" lengthAdjust="spacingAndGlyphs" textLength="73" x="31" y="895.062">unban (peer)</text><ellipse cx="22" cy="905.5586" fill="#84BE84" rx="3" ry="3" style="stroke: #038048; stroke-width: 1.0;"/><text fill="#000000" font-family="sans-serif" font-size="11" lengthAdjust="spacingAndGlyphs" textLength="81" x="31" y="907.8667">remove (peer)</text><ellipse cx="22" cy="918.3633" fill="#84BE84" rx="3" ry="3" style="stroke: #038048; stroke-width: 1.0;"/><text fill="#000000" font-family="sans-serif" font-size="11" lengthAdjust="spacingAndGlyphs" textLength="84" x="31" y="920.6714">list (normalize)</text><ellipse cx="22" cy="931.168" fill="#84BE84" rx="3" ry="3" style="stroke: #038048; stroke-width: 1.0;"/><text fill="#000000" font-family="sans-serif" font-size="11" lengthAdjust="spacingAndGlyphs" textLength="70" x="31" y="933.4761">bind (scope)</text><line style="stroke: #00008B; stroke-width: 1.0;" x1="12" x2="70.5" y1="801.6211" y2="801.6211"/><text fill="#000000" font-family="sans-serif" font-size="11" lengthAdjust="spacingAndGlyphs" textLength="48" x="70.5" y="804.9292">Methods</text><line style="stroke: #00008B; stroke-width: 1.0;" x1="118.5" x2="177" y1="801.6211" y2="801.6211"/><!--class Peer--><rect fill="url(#gnriwa5i75udc0)" filter="url(#fnriwa5i75udc)" height="48" id="Peer" style="stroke: #00008B; stroke-width: 1.5;" width="61" x="64" y="1018"/><ellipse cx="79" cy="1034" fill="#ADD1B2" rx="11" ry="11" style="stroke: #00008B; stroke-width: 1.0;"/><path d="M81.9688,1039.6406 Q81.3906,1039.9375 80.75,1040.0859 Q80.1094,1040.2344 79.4063,1040.2344 Q76.9063,1040.2344 75.5859,1038.5859 Q74.2656,1036.9375 74.2656,1033.8125 Q74.2656,1030.6875 75.5859,1029.0313 Q76.9063,1027.375 79.4063,1027.375 Q80.1094,1027.375 80.7578,1027.5313 Q81.4063,1027.6875 81.9688,1027.9844 L81.9688,1030.7031 Q81.3438,1030.125 80.75,1029.8516 Q80.1563,1029.5781 79.5313,1029.5781 Q78.1875,1029.5781 77.5,1030.6484 Q76.8125,1031.7188 76.8125,1033.8125 Q76.8125,1035.9063 77.5,1036.9766 Q78.1875,1038.0469 79.5313,1038.0469 Q80.1563,1038.0469 80.75,1037.7734 Q81.3438,1037.5 81.9688,1036.9219 L81.9688,1039.6406 Z "/><text fill="#000000" font-family="sans-serif" font-size="12" lengthAdjust="spacingAndGlyphs" textLength="29" x="93" y="1038.1543">Peer</text><line style="stroke: #00008B; stroke-width: 1.5;" x1="65" x2="124" y1="1050" y2="1050"/><line style="stroke: #00008B; stroke-width: 1.5;" x1="65" x2="124" y1="1058" y2="1058"/><!--link Peers_ to Peer--><path d="M94.25,960.346 C94.25,982.5773 94.25,1003.0836 94.25,1017.8558 " fill="none" id="Peers_-Peer" style="stroke: #000000; stroke-width: 1.0;"/><polygon fill="none" points="87.2501,960.014,94.25,940.014,101.2501,960.014,87.2501,960.014" style="stroke: #000000; stroke-width: 1.0;"/><text fill="#000000" font-family="sans-serif" font-size="13" lengthAdjust="spacingAndGlyphs" textLength="25" x="95.25" y="983.0669">new</text><!--link Peers to Peers_--><path d="M94.25,641.735 C94.25,662.041 94.25,681.637 94.25,699.927 " fill="none" id="Peers-Peers_" style="stroke: #000000; stroke-width: 1.0; stroke-dasharray: 7.0,7.0;"/><polygon fill="none" points="87.2501,641.645,94.25,621.645,101.2501,641.645,87.2501,641.645" style="stroke: #000000; stroke-width: 1.0;"/><text fill="#000000" font-family="sans-serif" font-size="13" lengthAdjust="spacingAndGlyphs" textLength="76" x="95.25" y="665.0669">implements</text><!--
@startuml
skinparam class {
	BackgroundColor AliceBlue|LightBlue
	ArrowColor Black
	BorderColor DarkBlue
}
class Peers < module > {
  - __private: {}
  - self: this
  .. library object ..
  - logger
  - db
  - schema
  - bus
  - nonce
  - build
  - lastCommit
  - logic.peers
  - config.peers
  - config.version
  .. modules ..
  - transport
  - system
  - - Methods - -
  + Peers (cb, scope)
  - countByFilter (filter, cb)
  - getByFilter (filter, cb)
  - removeBans (cb)
  - insertSeeds (cb)
  - dbLoad (cb)
  - dbSave (cb)
  + sandboxApi (call, args, cb)
  + update (peer)
  + remove (pip, port)
  + ban (pip, port, seconds)
  + ping (peer, cb)
  + discover (cb)
  + acceptable (peers)
  + list (options, cb)
  + onBind (scope)
  + onBlockchainReady ()
  + onPeersReady ()
  + cleanup ()
  + isLoaded ()
  - - API - -
  .. shared ..
  + count (*, cb)
  + getPeers (filter, cb)
  + getPeer (ip, port, cb)
  + version (*, cb)
}
class Peers_ < logic > {
  - __private: {}
  - self: this
  .. library object ..
  - logger
  - - Methods - -
  + Peers (logger, cb)
  + create (peer)
  + exists (peer)
  + get (peer)
  + upsert (peer, insertOnly)
  + ban (ip, port, seconds)
  + unban (peer)
  + remove (peer)
  + list (normalize)
  + bind (scope)
}

Peers_ ^- - Peer: new


Peers ^.. Peers_ : implements
@enduml

PlantUML version 1.2017.12(Wed Apr 26 13:06:36 ART 2017)
(GPL source distribution)
Java Runtime: Java(TM) SE Runtime Environment
JVM: Java HotSpot(TM) 64-Bit Server VM
Java Version: 1.8.0_131-b11
Operating System: Linux
OS Version: 3.13.0-119-generic
Default Encoding: UTF-8
Language: en
Country: US
--></g></svg>