<?xml version="1.0" encoding="UTF-8" standalone="no"?><svg xmlns="http://www.w3.org/2000/svg" xmlns:xlink="http://www.w3.org/1999/xlink" contentScriptType="application/ecmascript" contentStyleType="text/css" height="824px" preserveAspectRatio="none" style="width:240px;height:824px;" version="1.1" viewBox="0 0 240 824" width="240px" zoomAndPan="magnify"><defs><linearGradient id="ghyu1c1rvqxaa0" x1="0%" x2="100%" y1="50%" y2="50%"><stop offset="0%" stop-color="#F0F8FF"/><stop offset="100%" stop-color="#ADD8E6"/></linearGradient><filter height="300%" id="fhyu1c1rvqxaa" width="300%" x="-1" y="-1"><feGaussianBlur result="blurOut" stdDeviation="2.0"/><feColorMatrix in="blurOut" result="blurOut2" type="matrix" values="0 0 0 0 0 0 0 0 0 0 0 0 0 0 0 0 0 0 .4 0"/><feOffset dx="4.0" dy="4.0" in="blurOut2" result="blurOut3"/><feBlend in="SourceGraphic" in2="blurOut3" mode="normal"/></filter></defs><g><!--class Signatures--><rect fill="url(#ghyu1c1rvqxaa0)" filter="url(#fhyu1c1rvqxaa)" height="344.1055" id="Signatures" style="stroke: #00008B; stroke-width: 1.5;" width="211" x="13" y="8"/><ellipse cx="49.15" cy="24" fill="#ADD1B2" rx="11" ry="11" style="stroke: #00008B; stroke-width: 1.0;"/><path d="M52.1188,29.6406 Q51.5406,29.9375 50.9,30.0859 Q50.2594,30.2344 49.5563,30.2344 Q47.0563,30.2344 45.7359,28.5859 Q44.4156,26.9375 44.4156,23.8125 Q44.4156,20.6875 45.7359,19.0313 Q47.0563,17.375 49.5563,17.375 Q50.2594,17.375 50.9078,17.5313 Q51.5563,17.6875 52.1188,17.9844 L52.1188,20.7031 Q51.4938,20.125 50.9,19.8516 Q50.3063,19.5781 49.6813,19.5781 Q48.3375,19.5781 47.65,20.6484 Q46.9625,21.7188 46.9625,23.8125 Q46.9625,25.9063 47.65,26.9766 Q48.3375,28.0469 49.6813,28.0469 Q50.3063,28.0469 50.9,27.7734 Q51.4938,27.5 52.1188,26.9219 L52.1188,29.6406 Z "/><text fill="#000000" font-family="sans-serif" font-size="12" lengthAdjust="spacingAndGlyphs" textLength="68" x="67.85" y="28.1543">Signatures</text><rect fill="#FFFFFF" height="15.9688" style="stroke: #000000; stroke-width: 1.0; stroke-dasharray: 2.0,2.0;" width="62" x="165" y="5"/><text fill="#000000" font-family="sans-serif" font-size="12" font-style="italic" lengthAdjust="spacingAndGlyphs" textLength="52" x="170" y="17.1387">modules</text><line style="stroke: #00008B; stroke-width: 1.5;" x1="14" x2="223" y1="40" y2="40"/><rect fill="#F24D5C" height="6" style="stroke: #C82930; stroke-width: 1.0;" width="6" x="21" y="48.9023"/><text fill="#000000" font-family="sans-serif" font-size="11" lengthAdjust="spacingAndGlyphs" textLength="179" x="33" y="54.2104">assetTypes[1]: new Signature()</text><rect fill="none" height="6" style="stroke: #C82930; stroke-width: 1.0;" width="6" x="21" y="61.707"/><text fill="#000000" font-family="sans-serif" font-size="11" lengthAdjust="spacingAndGlyphs" textLength="73" x="33" y="67.0151">__private: {}</text><rect fill="none" height="6" style="stroke: #C82930; stroke-width: 1.0;" width="6" x="21" y="74.5117"/><text fill="#000000" font-family="sans-serif" font-size="11" lengthAdjust="spacingAndGlyphs" textLength="50" x="33" y="79.8198">self: this</text><rect fill="none" height="6" style="stroke: #C82930; stroke-width: 1.0;" width="6" x="21" y="104.1211"/><text fill="#000000" font-family="sans-serif" font-size="11" lengthAdjust="spacingAndGlyphs" textLength="45" x="33" y="109.4292">schema</text><rect fill="none" height="6" style="stroke: #C82930; stroke-width: 1.0;" width="6" x="21" y="116.9258"/><text fill="#000000" font-family="sans-serif" font-size="11" lengthAdjust="spacingAndGlyphs" textLength="14" x="33" y="122.2339">ed</text><rect fill="none" height="6" style="stroke: #C82930; stroke-width: 1.0;" width="6" x="21" y="129.7305"/><text fill="#000000" font-family="sans-serif" font-size="11" lengthAdjust="spacingAndGlyphs" textLength="107" x="33" y="135.0386">balancesSequence</text><rect fill="none" height="6" style="stroke: #C82930; stroke-width: 1.0;" width="6" x="21" y="142.5352"/><text fill="#000000" font-family="sans-serif" font-size="11" lengthAdjust="spacingAndGlyphs" textLength="94" x="33" y="147.8433">logic.transaction</text><line style="stroke: #00008B; stroke-width: 1.0; stroke-dasharray: 1.0,2.0;" x1="14" x2="100.5" y1="92.8164" y2="92.8164"/><text fill="#000000" font-family="sans-serif" font-size="11" lengthAdjust="spacingAndGlyphs" textLength="36" x="100.5" y="96.1245">library</text><line style="stroke: #00008B; stroke-width: 1.0; stroke-dasharray: 1.0,2.0;" x1="136.5" x2="223" y1="92.8164" y2="92.8164"/><rect fill="none" height="6" style="stroke: #C82930; stroke-width: 1.0;" width="6" x="21" y="172.1445"/><text fill="#000000" font-family="sans-serif" font-size="11" lengthAdjust="spacingAndGlyphs" textLength="51" x="33" y="177.4526">accounts</text><rect fill="none" height="6" style="stroke: #C82930; stroke-width: 1.0;" width="6" x="21" y="184.9492"/><text fill="#000000" font-family="sans-serif" font-size="11" lengthAdjust="spacingAndGlyphs" textLength="71" x="33" y="190.2573">transactions</text><line style="stroke: #00008B; stroke-width: 1.0; stroke-dasharray: 1.0,2.0;" x1="14" x2="94" y1="160.8398" y2="160.8398"/><text fill="#000000" font-family="sans-serif" font-size="11" lengthAdjust="spacingAndGlyphs" textLength="49" x="94" y="164.1479">modules</text><line style="stroke: #00008B; stroke-width: 1.0; stroke-dasharray: 1.0,2.0;" x1="143" x2="223" y1="160.8398" y2="160.8398"/><ellipse cx="24" cy="217.5586" fill="#84BE84" rx="3" ry="3" style="stroke: #038048; stroke-width: 1.0;"/><text fill="#000000" font-family="sans-serif" font-size="11" lengthAdjust="spacingAndGlyphs" textLength="129" x="33" y="219.8667">Signatures (cb, scope)</text><ellipse cx="24" cy="230.3633" fill="#84BE84" rx="3" ry="3" style="stroke: #038048; stroke-width: 1.0;"/><text fill="#000000" font-family="sans-serif" font-size="11" lengthAdjust="spacingAndGlyphs" textLength="63" x="33" y="232.6714">isLoaded ()</text><ellipse cx="24" cy="243.168" fill="#84BE84" rx="3" ry="3" style="stroke: #038048; stroke-width: 1.0;"/><text fill="#000000" font-family="sans-serif" font-size="11" lengthAdjust="spacingAndGlyphs" textLength="151" x="33" y="245.4761">sandboxApi (call, args, cb)</text><ellipse cx="24" cy="255.9727" fill="#84BE84" rx="3" ry="3" style="stroke: #038048; stroke-width: 1.0;"/><text fill="#000000" font-family="sans-serif" font-size="11" lengthAdjust="spacingAndGlyphs" textLength="85" x="33" y="258.2808">onBind (scope)</text><line style="stroke: #00008B; stroke-width: 1.0;" x1="14" x2="94.5" y1="203.2539" y2="203.2539"/><text fill="#000000" font-family="sans-serif" font-size="11" lengthAdjust="spacingAndGlyphs" textLength="48" x="94.5" y="206.562">Methods</text><line style="stroke: #00008B; stroke-width: 1.0;" x1="142.5" x2="223" y1="203.2539" y2="203.2539"/><line style="stroke: #00008B; stroke-width: 1.0;" x1="14" x2="110" y1="271.2773" y2="271.2773"/><text fill="#000000" font-family="sans-serif" font-size="11" lengthAdjust="spacingAndGlyphs" textLength="17" x="110" y="274.5854">API</text><line style="stroke: #00008B; stroke-width: 1.0;" x1="127" x2="223" y1="271.2773" y2="271.2773"/><ellipse cx="24" cy="304.7891" fill="#84BE84" rx="3" ry="3" style="stroke: #038048; stroke-width: 1.0;"/><text fill="#000000" font-family="sans-serif" font-size="11" lengthAdjust="spacingAndGlyphs" textLength="77" x="33" y="307.0972">getFee (*, cb)</text><ellipse cx="24" cy="317.5938" fill="#84BE84" rx="3" ry="3" style="stroke: #038048; stroke-width: 1.0;"/><text fill="#000000" font-family="sans-serif" font-size="11" lengthAdjust="spacingAndGlyphs" textLength="185" x="33" y="319.9019">addSignature (secret, publicKey,</text><text fill="#000000" font-family="sans-serif" font-size="11" lengthAdjust="spacingAndGlyphs" textLength="146" x="33" y="332.7065">multisigAccountPublicKey,</text><text fill="#000000" font-family="sans-serif" font-size="11" lengthAdjust="spacingAndGlyphs" textLength="103" x="33" y="345.5112">secondSecret, cb)</text><line style="stroke: #00008B; stroke-width: 1.0; stroke-dasharray: 1.0,2.0;" x1="14" x2="98.5" y1="290.4844" y2="290.4844"/><text fill="#000000" font-family="sans-serif" font-size="11" lengthAdjust="spacingAndGlyphs" textLength="40" x="98.5" y="293.7925">shared</text><line style="stroke: #00008B; stroke-width: 1.0; stroke-dasharray: 1.0,2.0;" x1="138.5" x2="223" y1="290.4844" y2="290.4844"/><!--class Signature--><rect fill="url(#ghyu1c1rvqxaa0)" filter="url(#fhyu1c1rvqxaa)" height="384.9219" id="Signature" style="stroke: #00008B; stroke-width: 1.5;" width="225" x="6" y="430.5"/><ellipse cx="63.25" cy="446.5" fill="#ADD1B2" rx="11" ry="11" style="stroke: #00008B; stroke-width: 1.0;"/><path d="M66.2188,452.1406 Q65.6406,452.4375 65,452.5859 Q64.3594,452.7344 63.6563,452.7344 Q61.1563,452.7344 59.8359,451.0859 Q58.5156,449.4375 58.5156,446.3125 Q58.5156,443.1875 59.8359,441.5313 Q61.1563,439.875 63.6563,439.875 Q64.3594,439.875 65.0078,440.0313 Q65.6563,440.1875 66.2188,440.4844 L66.2188,443.2031 Q65.5938,442.625 65,442.3516 Q64.4063,442.0781 63.7813,442.0781 Q62.4375,442.0781 61.75,443.1484 Q61.0625,444.2188 61.0625,446.3125 Q61.0625,448.4063 61.75,449.4766 Q62.4375,450.5469 63.7813,450.5469 Q64.4063,450.5469 65,450.2734 Q65.5938,450 66.2188,449.4219 L66.2188,452.1406 Z "/><text fill="#000000" font-family="sans-serif" font-size="12" lengthAdjust="spacingAndGlyphs" textLength="61" x="83.75" y="450.6543">Signature</text><rect fill="#FFFFFF" height="15.9688" style="stroke: #000000; stroke-width: 1.0; stroke-dasharray: 2.0,2.0;" width="39" x="195" y="427.5"/><text fill="#000000" font-family="sans-serif" font-size="12" font-style="italic" lengthAdjust="spacingAndGlyphs" textLength="29" x="200" y="439.6387">logic</text><line style="stroke: #00008B; stroke-width: 1.5;" x1="7" x2="230" y1="462.5" y2="462.5"/><rect fill="none" height="6" style="stroke: #C82930; stroke-width: 1.0;" width="6" x="14" y="471.4023"/><text fill="#000000" font-family="sans-serif" font-size="11" lengthAdjust="spacingAndGlyphs" textLength="49" x="26" y="476.7104">modules</text><rect fill="none" height="6" style="stroke: #C82930; stroke-width: 1.0;" width="6" x="14" y="484.207"/><text fill="#000000" font-family="sans-serif" font-size="11" lengthAdjust="spacingAndGlyphs" textLength="36" x="26" y="489.5151">library</text><ellipse cx="17" cy="500.0117" fill="none" rx="3" ry="3" style="stroke: #038048; stroke-width: 1.0;"/><text fill="#000000" font-family="sans-serif" font-size="11" lengthAdjust="spacingAndGlyphs" textLength="45" x="26" y="502.3198">schema</text><ellipse cx="17" cy="512.8164" fill="none" rx="3" ry="3" style="stroke: #038048; stroke-width: 1.0;"/><text fill="#000000" font-family="sans-serif" font-size="11" lengthAdjust="spacingAndGlyphs" textLength="120" x="26" y="515.1245">dbTable: 'signatures'</text><ellipse cx="17" cy="525.6211" fill="none" rx="3" ry="3" style="stroke: #038048; stroke-width: 1.0;"/><text fill="#000000" font-family="sans-serif" font-size="11" lengthAdjust="spacingAndGlyphs" textLength="47" x="26" y="527.9292">dbFields</text><rect fill="none" height="6" style="stroke: #C82930; stroke-width: 1.0;" width="6" x="14" y="552.2305"/><text fill="#000000" font-family="sans-serif" font-size="11" lengthAdjust="spacingAndGlyphs" textLength="45" x="26" y="557.5386">schema</text><rect fill="none" height="6" style="stroke: #C82930; stroke-width: 1.0;" width="6" x="14" y="565.0352"/><text fill="#000000" font-family="sans-serif" font-size="11" lengthAdjust="spacingAndGlyphs" textLength="36" x="26" y="570.3433">logger</text><line style="stroke: #00008B; stroke-width: 1.0; stroke-dasharray: 1.0,2.0;" x1="7" x2="100.5" y1="540.9258" y2="540.9258"/><text fill="#000000" font-family="sans-serif" font-size="11" lengthAdjust="spacingAndGlyphs" textLength="36" x="100.5" y="544.2339">library</text><line style="stroke: #00008B; stroke-width: 1.0; stroke-dasharray: 1.0,2.0;" x1="136.5" x2="230" y1="540.9258" y2="540.9258"/><rect fill="none" height="6" style="stroke: #C82930; stroke-width: 1.0;" width="6" x="14" y="594.6445"/><text fill="#000000" font-family="sans-serif" font-size="11" lengthAdjust="spacingAndGlyphs" textLength="51" x="26" y="599.9526">accounts</text><line style="stroke: #00008B; stroke-width: 1.0; stroke-dasharray: 1.0,2.0;" x1="7" x2="94" y1="583.3398" y2="583.3398"/><text fill="#000000" font-family="sans-serif" font-size="11" lengthAdjust="spacingAndGlyphs" textLength="49" x="94" y="586.6479">modules</text><line style="stroke: #00008B; stroke-width: 1.0; stroke-dasharray: 1.0,2.0;" x1="143" x2="230" y1="583.3398" y2="583.3398"/><ellipse cx="17" cy="627.2539" fill="#84BE84" rx="3" ry="3" style="stroke: #038048; stroke-width: 1.0;"/><text fill="#000000" font-family="sans-serif" font-size="11" lengthAdjust="spacingAndGlyphs" textLength="156" x="26" y="629.562">Signature (schema, logger)</text><ellipse cx="17" cy="640.0586" fill="#84BE84" rx="3" ry="3" style="stroke: #038048; stroke-width: 1.0;"/><text fill="#000000" font-family="sans-serif" font-size="11" lengthAdjust="spacingAndGlyphs" textLength="87" x="26" y="642.3667">bind (accounts)</text><ellipse cx="17" cy="652.8633" fill="#84BE84" rx="3" ry="3" style="stroke: #038048; stroke-width: 1.0;"/><text fill="#000000" font-family="sans-serif" font-size="11" lengthAdjust="spacingAndGlyphs" textLength="97" x="26" y="655.1714">create (data, trs)</text><ellipse cx="17" cy="665.668" fill="#84BE84" rx="3" ry="3" style="stroke: #038048; stroke-width: 1.0;"/><text fill="#000000" font-family="sans-serif" font-size="11" lengthAdjust="spacingAndGlyphs" textLength="146" x="26" y="667.9761">calculateFee (trs, sender)</text><ellipse cx="17" cy="678.4727" fill="#84BE84" rx="3" ry="3" style="stroke: #038048; stroke-width: 1.0;"/><text fill="#000000" font-family="sans-serif" font-size="11" lengthAdjust="spacingAndGlyphs" textLength="128" x="26" y="680.7808">verify (trs, sender, cb)</text><ellipse cx="17" cy="691.2773" fill="#84BE84" rx="3" ry="3" style="stroke: #038048; stroke-width: 1.0;"/><text fill="#000000" font-family="sans-serif" font-size="11" lengthAdjust="spacingAndGlyphs" textLength="143" x="26" y="693.5854">process (trs, sender, cb)</text><ellipse cx="17" cy="704.082" fill="#84BE84" rx="3" ry="3" style="stroke: #038048; stroke-width: 1.0;"/><text fill="#000000" font-family="sans-serif" font-size="11" lengthAdjust="spacingAndGlyphs" textLength="78" x="26" y="706.3901">getBytes (trs)</text><ellipse cx="17" cy="716.8867" fill="#84BE84" rx="3" ry="3" style="stroke: #038048; stroke-width: 1.0;"/><text fill="#000000" font-family="sans-serif" font-size="11" lengthAdjust="spacingAndGlyphs" textLength="164" x="26" y="719.1948">apply (trs, block, sender, cb)</text><ellipse cx="17" cy="729.6914" fill="#84BE84" rx="3" ry="3" style="stroke: #038048; stroke-width: 1.0;"/><text fill="#000000" font-family="sans-serif" font-size="11" lengthAdjust="spacingAndGlyphs" textLength="162" x="26" y="731.9995">undo (trs, block, sender, cb)</text><ellipse cx="17" cy="742.4961" fill="#84BE84" rx="3" ry="3" style="stroke: #038048; stroke-width: 1.0;"/><text fill="#000000" font-family="sans-serif" font-size="11" lengthAdjust="spacingAndGlyphs" textLength="199" x="26" y="744.8042">applyUnconfirmed (trs, sender, cb)</text><ellipse cx="17" cy="755.3008" fill="#84BE84" rx="3" ry="3" style="stroke: #038048; stroke-width: 1.0;"/><text fill="#000000" font-family="sans-serif" font-size="11" lengthAdjust="spacingAndGlyphs" textLength="197" x="26" y="757.6089">undoUnconfirmed (trs, sender, cb)</text><ellipse cx="17" cy="768.1055" fill="#84BE84" rx="3" ry="3" style="stroke: #038048; stroke-width: 1.0;"/><text fill="#000000" font-family="sans-serif" font-size="11" lengthAdjust="spacingAndGlyphs" textLength="118" x="26" y="770.4136">objectNormalize (trs)</text><ellipse cx="17" cy="780.9102" fill="#84BE84" rx="3" ry="3" style="stroke: #038048; stroke-width: 1.0;"/><text fill="#000000" font-family="sans-serif" font-size="11" lengthAdjust="spacingAndGlyphs" textLength="75" x="26" y="783.2183">dbRead (raw)</text><ellipse cx="17" cy="793.7148" fill="#84BE84" rx="3" ry="3" style="stroke: #038048; stroke-width: 1.0;"/><text fill="#000000" font-family="sans-serif" font-size="11" lengthAdjust="spacingAndGlyphs" textLength="70" x="26" y="796.0229">dbSave (trs)</text><ellipse cx="17" cy="806.5195" fill="#84BE84" rx="3" ry="3" style="stroke: #038048; stroke-width: 1.0;"/><text fill="#000000" font-family="sans-serif" font-size="11" lengthAdjust="spacingAndGlyphs" textLength="108" x="26" y="808.8276">ready (trs, sender)</text><line style="stroke: #00008B; stroke-width: 1.0;" x1="7" x2="94.5" y1="612.9492" y2="612.9492"/><text fill="#000000" font-family="sans-serif" font-size="11" lengthAdjust="spacingAndGlyphs" textLength="48" x="94.5" y="616.2573">Methods</text><line style="stroke: #00008B; stroke-width: 1.0;" x1="142.5" x2="230" y1="612.9492" y2="612.9492"/><!--link Signatures to Signature--><path d="M118.25,372.145 C118.25,391.479 118.25,411.119 118.25,430.457 " fill="none" id="Signatures-Signature" style="stroke: #000000; stroke-width: 1.0;"/><polygon fill="none" points="111.25,372.133,118.25,352.133,125.25,372.133,111.25,372.133" style="stroke: #000000; stroke-width: 1.0;"/><text fill="#000000" font-family="sans-serif" font-size="13" lengthAdjust="spacingAndGlyphs" textLength="25" x="119.25" y="395.0669">new</text><!--
@startuml
skinparam class {
	BackgroundColor AliceBlue|LightBlue
	ArrowColor Black
	BorderColor DarkBlue
}
class Signatures < modules > {
  - assetTypes[1]: new Signature()
  - __private: {}
  - self: this
  .. library ..
  - schema
  - ed
  - balancesSequence
  - logic.transaction
  .. modules ..
  - accounts
  - transactions
  - - Methods - -
  + Signatures (cb, scope)
  + isLoaded ()
  + sandboxApi (call, args, cb)
  + onBind (scope)
  - - API - -
  .. shared ..
  + getFee (*, cb)
  + addSignature (secret, publicKey,
  multisigAccountPublicKey,
  secondSecret, cb)
}
class Signature < logic > {
  - modules
  - library
  + schema
  + dbTable: 'signatures'
  + dbFields
  .. library ..
  - schema
  - logger
  .. modules ..
  - accounts
  - - Methods - -
  + Signature (schema, logger)
  + bind (accounts)
  + create (data, trs)
  + calculateFee (trs, sender)
  + verify (trs, sender, cb)
  + process (trs, sender, cb)
  + getBytes (trs)
  + apply (trs, block, sender, cb)
  + undo (trs, block, sender, cb)
  + applyUnconfirmed (trs, sender, cb)
  + undoUnconfirmed (trs, sender, cb)
  + objectNormalize (trs)
  + dbRead (raw)
  + dbSave (trs)
  + ready (trs, sender)
}

Signatures ^- - Signature : new
@enduml

PlantUML version 1.2017.12(Wed Apr 26 13:06:36 ART 2017)
(GPL source distribution)
Java Runtime: Java(TM) SE Runtime Environment
JVM: Java HotSpot(TM) 64-Bit Server VM
Java Version: 1.8.0_131-b11
Operating System: Linux
OS Version: 3.13.0-119-generic
Default Encoding: UTF-8
Language: en
Country: US
--></g></svg>