<?xml version="1.0" encoding="UTF-8" standalone="no"?><svg xmlns="http://www.w3.org/2000/svg" xmlns:xlink="http://www.w3.org/1999/xlink" contentScriptType="application/ecmascript" contentStyleType="text/css" height="1508px" preserveAspectRatio="none" style="width:632px;height:1508px;" version="1.1" viewBox="0 0 632 1508" width="632px" zoomAndPan="magnify"><defs><linearGradient id="g1oc5ztlsvffdd0" x1="0%" x2="100%" y1="50%" y2="50%"><stop offset="0%" stop-color="#F0F8FF"/><stop offset="100%" stop-color="#ADD8E6"/></linearGradient><filter height="300%" id="f1oc5ztlsvffdd" width="300%" x="-1" y="-1"><feGaussianBlur result="blurOut" stdDeviation="2.0"/><feColorMatrix in="blurOut" result="blurOut2" type="matrix" values="0 0 0 0 0 0 0 0 0 0 0 0 0 0 0 0 0 0 .4 0"/><feOffset dx="4.0" dy="4.0" in="blurOut2" result="blurOut3"/><feBlend in="SourceGraphic" in2="blurOut3" mode="normal"/></filter></defs><g><!--class Transactions--><rect fill="url(#g1oc5ztlsvffdd0)" filter="url(#f1oc5ztlsvffdd)" height="809.0742" id="Transactions" style="stroke: #00008B; stroke-width: 1.5;" width="375" x="248.75" y="8.5"/><ellipse cx="362.5" cy="24.5" fill="#ADD1B2" rx="11" ry="11" style="stroke: #00008B; stroke-width: 1.0;"/><path d="M365.4688,30.1406 Q364.8906,30.4375 364.25,30.5859 Q363.6094,30.7344 362.9063,30.7344 Q360.4063,30.7344 359.0859,29.0859 Q357.7656,27.4375 357.7656,24.3125 Q357.7656,21.1875 359.0859,19.5313 Q360.4063,17.875 362.9063,17.875 Q363.6094,17.875 364.2578,18.0313 Q364.9063,18.1875 365.4688,18.4844 L365.4688,21.2031 Q364.8438,20.625 364.25,20.3516 Q363.6563,20.0781 363.0313,20.0781 Q361.6875,20.0781 361,21.1484 Q360.3125,22.2188 360.3125,24.3125 Q360.3125,26.4063 361,27.4766 Q361.6875,28.5469 363.0313,28.5469 Q363.6563,28.5469 364.25,28.2734 Q364.8438,28 365.4688,27.4219 L365.4688,30.1406 Z "/><text fill="#000000" font-family="sans-serif" font-size="12" lengthAdjust="spacingAndGlyphs" textLength="81" x="383" y="28.6543">Transactions</text><rect fill="#FFFFFF" height="15.9688" style="stroke: #000000; stroke-width: 1.0; stroke-dasharray: 2.0,2.0;" width="56" x="570.75" y="5.5"/><text fill="#000000" font-family="sans-serif" font-size="12" font-style="italic" lengthAdjust="spacingAndGlyphs" textLength="46" x="575.75" y="17.6387">module</text><line style="stroke: #00008B; stroke-width: 1.5;" x1="249.75" x2="622.75" y1="40.5" y2="40.5"/><rect fill="none" height="6" style="stroke: #C82930; stroke-width: 1.0;" width="6" x="256.75" y="49.4023"/><text fill="#000000" font-family="sans-serif" font-size="11" lengthAdjust="spacingAndGlyphs" textLength="74" x="268.75" y="54.7104">genesisblock</text><rect fill="none" height="6" style="stroke: #C82930; stroke-width: 1.0;" width="6" x="256.75" y="62.207"/><text fill="#000000" font-family="sans-serif" font-size="11" lengthAdjust="spacingAndGlyphs" textLength="50" x="268.75" y="67.5151">self: this</text><rect fill="#F24D5C" height="6" style="stroke: #C82930; stroke-width: 1.0;" width="6" x="256.75" y="91.8164"/><text fill="#000000" font-family="sans-serif" font-size="11" lengthAdjust="spacingAndGlyphs" textLength="173" x="268.75" y="97.1245">assetTypes[0]: new Transfer()</text><rect fill="#F24D5C" height="6" style="stroke: #C82930; stroke-width: 1.0;" width="6" x="256.75" y="104.6211"/><text fill="#000000" font-family="sans-serif" font-size="11" lengthAdjust="spacingAndGlyphs" textLength="325" x="268.75" y="109.9292">transactionPool: new TransactionPool (broadcastInterval,</text><text fill="#000000" font-family="sans-serif" font-size="11" lengthAdjust="spacingAndGlyphs" textLength="219" x="268.75" y="122.7339">releaseLimit, transaction, bus, logger)</text><line style="stroke: #00008B; stroke-width: 1.0; stroke-dasharray: 1.0,2.0;" x1="249.75" x2="410.75" y1="80.5117" y2="80.5117"/><text fill="#000000" font-family="sans-serif" font-size="11" lengthAdjust="spacingAndGlyphs" textLength="51" x="410.75" y="83.8198">__private</text><line style="stroke: #00008B; stroke-width: 1.0; stroke-dasharray: 1.0,2.0;" x1="461.75" x2="622.75" y1="80.5117" y2="80.5117"/><rect fill="none" height="6" style="stroke: #C82930; stroke-width: 1.0;" width="6" x="256.75" y="147.0352"/><text fill="#000000" font-family="sans-serif" font-size="11" lengthAdjust="spacingAndGlyphs" textLength="36" x="268.75" y="152.3433">logger</text><rect fill="none" height="6" style="stroke: #C82930; stroke-width: 1.0;" width="6" x="256.75" y="159.8398"/><text fill="#000000" font-family="sans-serif" font-size="11" lengthAdjust="spacingAndGlyphs" textLength="14" x="268.75" y="165.1479">db</text><rect fill="none" height="6" style="stroke: #C82930; stroke-width: 1.0;" width="6" x="256.75" y="172.6445"/><text fill="#000000" font-family="sans-serif" font-size="11" lengthAdjust="spacingAndGlyphs" textLength="45" x="268.75" y="177.9526">schema</text><rect fill="none" height="6" style="stroke: #C82930; stroke-width: 1.0;" width="6" x="256.75" y="185.4492"/><text fill="#000000" font-family="sans-serif" font-size="11" lengthAdjust="spacingAndGlyphs" textLength="14" x="268.75" y="190.7573">ed</text><rect fill="none" height="6" style="stroke: #C82930; stroke-width: 1.0;" width="6" x="256.75" y="198.2539"/><text fill="#000000" font-family="sans-serif" font-size="11" lengthAdjust="spacingAndGlyphs" textLength="107" x="268.75" y="203.562">balancesSequence</text><rect fill="none" height="6" style="stroke: #C82930; stroke-width: 1.0;" width="6" x="256.75" y="211.0586"/><text fill="#000000" font-family="sans-serif" font-size="11" lengthAdjust="spacingAndGlyphs" textLength="94" x="268.75" y="216.3667">logic.transaction</text><line style="stroke: #00008B; stroke-width: 1.0; stroke-dasharray: 1.0,2.0;" x1="249.75" x2="418.25" y1="135.7305" y2="135.7305"/><text fill="#000000" font-family="sans-serif" font-size="11" lengthAdjust="spacingAndGlyphs" textLength="36" x="418.25" y="139.0386">library</text><line style="stroke: #00008B; stroke-width: 1.0; stroke-dasharray: 1.0,2.0;" x1="454.25" x2="622.75" y1="135.7305" y2="135.7305"/><rect fill="none" height="6" style="stroke: #C82930; stroke-width: 1.0;" width="6" x="256.75" y="240.668"/><text fill="#000000" font-family="sans-serif" font-size="11" lengthAdjust="spacingAndGlyphs" textLength="51" x="268.75" y="245.9761">accounts</text><rect fill="none" height="6" style="stroke: #C82930; stroke-width: 1.0;" width="6" x="256.75" y="253.4727"/><text fill="#000000" font-family="sans-serif" font-size="11" lengthAdjust="spacingAndGlyphs" textLength="71" x="268.75" y="258.7808">transactions</text><line style="stroke: #00008B; stroke-width: 1.0; stroke-dasharray: 1.0,2.0;" x1="249.75" x2="411.75" y1="229.3633" y2="229.3633"/><text fill="#000000" font-family="sans-serif" font-size="11" lengthAdjust="spacingAndGlyphs" textLength="49" x="411.75" y="232.6714">modules</text><line style="stroke: #00008B; stroke-width: 1.0; stroke-dasharray: 1.0,2.0;" x1="460.75" x2="622.75" y1="229.3633" y2="229.3633"/><ellipse cx="259.75" cy="286.082" fill="#84BE84" rx="3" ry="3" style="stroke: #038048; stroke-width: 1.0;"/><text fill="#000000" font-family="sans-serif" font-size="11" lengthAdjust="spacingAndGlyphs" textLength="223" x="268.75" y="288.3901">Transactions (cb, genesisblock, scope)</text><rect fill="#F24D5C" height="6" style="stroke: #C82930; stroke-width: 1.0;" width="6" x="256.75" y="295.8867"/><text fill="#000000" font-family="sans-serif" font-size="11" lengthAdjust="spacingAndGlyphs" textLength="76" x="268.75" y="301.1948">list (filter, cb)</text><rect fill="#F24D5C" height="6" style="stroke: #C82930; stroke-width: 1.0;" width="6" x="256.75" y="308.6914"/><text fill="#000000" font-family="sans-serif" font-size="11" lengthAdjust="spacingAndGlyphs" textLength="85" x="268.75" y="313.9995">getById (id, cb)</text><rect fill="#F24D5C" height="6" style="stroke: #C82930; stroke-width: 1.0;" width="6" x="256.75" y="321.4961"/><text fill="#000000" font-family="sans-serif" font-size="11" lengthAdjust="spacingAndGlyphs" textLength="171" x="268.75" y="326.8042">getVotesById (transaction, cb)</text><rect fill="#F24D5C" height="6" style="stroke: #C82930; stroke-width: 1.0;" width="6" x="256.75" y="334.3008"/><text fill="#000000" font-family="sans-serif" font-size="11" lengthAdjust="spacingAndGlyphs" textLength="226" x="268.75" y="339.6089">getPooledTransaction (method, req, cb)</text><ellipse cx="259.75" cy="350.1055" fill="#84BE84" rx="3" ry="3" style="stroke: #038048; stroke-width: 1.0;"/><text fill="#000000" font-family="sans-serif" font-size="11" lengthAdjust="spacingAndGlyphs" textLength="233" x="268.75" y="352.4136">getPooledTransactions (method, req, cb)</text><ellipse cx="259.75" cy="362.9102" fill="#84BE84" rx="3" ry="3" style="stroke: #038048; stroke-width: 1.0;"/><text fill="#000000" font-family="sans-serif" font-size="11" lengthAdjust="spacingAndGlyphs" textLength="120" x="268.75" y="365.2183">transactionInPool (id)</text><ellipse cx="259.75" cy="375.7148" fill="#84BE84" rx="3" ry="3" style="stroke: #038048; stroke-width: 1.0;"/><text fill="#000000" font-family="sans-serif" font-size="11" lengthAdjust="spacingAndGlyphs" textLength="179" x="268.75" y="378.0229">getUnconfirmedTransaction (id)</text><ellipse cx="259.75" cy="388.5195" fill="#84BE84" rx="3" ry="3" style="stroke: #038048; stroke-width: 1.0;"/><text fill="#000000" font-family="sans-serif" font-size="11" lengthAdjust="spacingAndGlyphs" textLength="151" x="268.75" y="390.8276">getQueuedTransaction (id)</text><ellipse cx="259.75" cy="401.3242" fill="#84BE84" rx="3" ry="3" style="stroke: #038048; stroke-width: 1.0;"/><text fill="#000000" font-family="sans-serif" font-size="11" lengthAdjust="spacingAndGlyphs" textLength="187" x="268.75" y="403.6323">getMultisignatureTransaction (id)</text><ellipse cx="259.75" cy="414.1289" fill="#84BE84" rx="3" ry="3" style="stroke: #038048; stroke-width: 1.0;"/><text fill="#000000" font-family="sans-serif" font-size="11" lengthAdjust="spacingAndGlyphs" textLength="265" x="268.75" y="416.437">getUnconfirmedTransactionList (reverse, limit)</text><ellipse cx="259.75" cy="426.9336" fill="#84BE84" rx="3" ry="3" style="stroke: #038048; stroke-width: 1.0;"/><text fill="#000000" font-family="sans-serif" font-size="11" lengthAdjust="spacingAndGlyphs" textLength="237" x="268.75" y="429.2417">getQueuedTransactionList (reverse, limit)</text><ellipse cx="259.75" cy="439.7383" fill="#84BE84" rx="3" ry="3" style="stroke: #038048; stroke-width: 1.0;"/><text fill="#000000" font-family="sans-serif" font-size="11" lengthAdjust="spacingAndGlyphs" textLength="273" x="268.75" y="442.0464">getMultisignatureTransactionList (reverse, limit)</text><ellipse cx="259.75" cy="452.543" fill="#84BE84" rx="3" ry="3" style="stroke: #038048; stroke-width: 1.0;"/><text fill="#000000" font-family="sans-serif" font-size="11" lengthAdjust="spacingAndGlyphs" textLength="235" x="268.75" y="454.8511">getMergedTransactionList (reverse, limit)</text><ellipse cx="259.75" cy="465.3477" fill="#84BE84" rx="3" ry="3" style="stroke: #038048; stroke-width: 1.0;"/><text fill="#000000" font-family="sans-serif" font-size="11" lengthAdjust="spacingAndGlyphs" textLength="204" x="268.75" y="467.6558">removeUnconfirmedTransaction (id)</text><ellipse cx="259.75" cy="478.1523" fill="#84BE84" rx="3" ry="3" style="stroke: #038048; stroke-width: 1.0;"/><text fill="#000000" font-family="sans-serif" font-size="11" lengthAdjust="spacingAndGlyphs" textLength="347" x="268.75" y="480.4604">processUnconfirmedTransaction (transaction, broadcast, cb)</text><ellipse cx="259.75" cy="490.957" fill="#84BE84" rx="3" ry="3" style="stroke: #038048; stroke-width: 1.0;"/><text fill="#000000" font-family="sans-serif" font-size="11" lengthAdjust="spacingAndGlyphs" textLength="147" x="268.75" y="493.2651">applyUnconfirmedList (cb)</text><ellipse cx="259.75" cy="503.7617" fill="#84BE84" rx="3" ry="3" style="stroke: #038048; stroke-width: 1.0;"/><text fill="#000000" font-family="sans-serif" font-size="11" lengthAdjust="spacingAndGlyphs" textLength="169" x="268.75" y="506.0698">applyUnconfirmedIds (ids, cb)</text><ellipse cx="259.75" cy="516.5664" fill="#84BE84" rx="3" ry="3" style="stroke: #038048; stroke-width: 1.0;"/><text fill="#000000" font-family="sans-serif" font-size="11" lengthAdjust="spacingAndGlyphs" textLength="145" x="268.75" y="518.8745">undoUnconfirmedList (cb)</text><ellipse cx="259.75" cy="529.3711" fill="#84BE84" rx="3" ry="3" style="stroke: #038048; stroke-width: 1.0;"/><text fill="#000000" font-family="sans-serif" font-size="11" lengthAdjust="spacingAndGlyphs" textLength="212" x="268.75" y="531.6792">apply (transaction, block, sender, cb)</text><ellipse cx="259.75" cy="542.1758" fill="#84BE84" rx="3" ry="3" style="stroke: #038048; stroke-width: 1.0;"/><text fill="#000000" font-family="sans-serif" font-size="11" lengthAdjust="spacingAndGlyphs" textLength="210" x="268.75" y="544.4839">undo (transaction, block, sender, cb)</text><ellipse cx="259.75" cy="554.9805" fill="#84BE84" rx="3" ry="3" style="stroke: #038048; stroke-width: 1.0;"/><text fill="#000000" font-family="sans-serif" font-size="11" lengthAdjust="spacingAndGlyphs" textLength="247" x="268.75" y="557.2886">applyUnconfirmed (transaction, sender, cb)</text><ellipse cx="259.75" cy="567.7852" fill="#84BE84" rx="3" ry="3" style="stroke: #038048; stroke-width: 1.0;"/><text fill="#000000" font-family="sans-serif" font-size="11" lengthAdjust="spacingAndGlyphs" textLength="197" x="268.75" y="570.0933">undoUnconfirmed (transaction, cb)</text><ellipse cx="259.75" cy="580.5898" fill="#84BE84" rx="3" ry="3" style="stroke: #038048; stroke-width: 1.0;"/><text fill="#000000" font-family="sans-serif" font-size="11" lengthAdjust="spacingAndGlyphs" textLength="284" x="268.75" y="582.8979">receiveTransactions (transactions, broadcast, cb)</text><ellipse cx="259.75" cy="593.3945" fill="#84BE84" rx="3" ry="3" style="stroke: #038048; stroke-width: 1.0;"/><text fill="#000000" font-family="sans-serif" font-size="11" lengthAdjust="spacingAndGlyphs" textLength="62" x="268.75" y="595.7026">fillPool (cb)</text><ellipse cx="259.75" cy="606.1992" fill="#84BE84" rx="3" ry="3" style="stroke: #038048; stroke-width: 1.0;"/><text fill="#000000" font-family="sans-serif" font-size="11" lengthAdjust="spacingAndGlyphs" textLength="151" x="268.75" y="608.5073">sandboxApi (call, args, cb)</text><ellipse cx="259.75" cy="619.0039" fill="#84BE84" rx="3" ry="3" style="stroke: #038048; stroke-width: 1.0;"/><text fill="#000000" font-family="sans-serif" font-size="11" lengthAdjust="spacingAndGlyphs" textLength="63" x="268.75" y="621.312">isLoaded ()</text><ellipse cx="259.75" cy="631.8086" fill="#84BE84" rx="3" ry="3" style="stroke: #038048; stroke-width: 1.0;"/><text fill="#000000" font-family="sans-serif" font-size="11" lengthAdjust="spacingAndGlyphs" textLength="85" x="268.75" y="634.1167">onBind (scope)</text><line style="stroke: #00008B; stroke-width: 1.0;" x1="249.75" x2="412.25" y1="271.7773" y2="271.7773"/><text fill="#000000" font-family="sans-serif" font-size="11" lengthAdjust="spacingAndGlyphs" textLength="48" x="412.25" y="275.0854">Methods</text><line style="stroke: #00008B; stroke-width: 1.0;" x1="460.25" x2="622.75" y1="271.7773" y2="271.7773"/><line style="stroke: #00008B; stroke-width: 1.0;" x1="249.75" x2="427.75" y1="647.1133" y2="647.1133"/><text fill="#000000" font-family="sans-serif" font-size="11" lengthAdjust="spacingAndGlyphs" textLength="17" x="427.75" y="650.4214">API</text><line style="stroke: #00008B; stroke-width: 1.0;" x1="444.75" x2="622.75" y1="647.1133" y2="647.1133"/><ellipse cx="259.75" cy="680.625" fill="#84BE84" rx="3" ry="3" style="stroke: #038048; stroke-width: 1.0;"/><text fill="#000000" font-family="sans-serif" font-size="11" lengthAdjust="spacingAndGlyphs" textLength="144" x="268.75" y="682.9331">getTransactions (req, cb)</text><ellipse cx="259.75" cy="693.4297" fill="#84BE84" rx="3" ry="3" style="stroke: #038048; stroke-width: 1.0;"/><text fill="#000000" font-family="sans-serif" font-size="11" lengthAdjust="spacingAndGlyphs" textLength="128" x="268.75" y="695.7378">getTransaction (id, cb)</text><ellipse cx="259.75" cy="706.2344" fill="#84BE84" rx="3" ry="3" style="stroke: #038048; stroke-width: 1.0;"/><text fill="#000000" font-family="sans-serif" font-size="11" lengthAdjust="spacingAndGlyphs" textLength="164" x="268.75" y="708.5425">getTransactionsCount (*, cb)</text><ellipse cx="259.75" cy="719.0391" fill="#84BE84" rx="3" ry="3" style="stroke: #038048; stroke-width: 1.0;"/><text fill="#000000" font-family="sans-serif" font-size="11" lengthAdjust="spacingAndGlyphs" textLength="172" x="268.75" y="721.3472">getQueuedTransaction (id, cb)</text><ellipse cx="259.75" cy="731.8438" fill="#84BE84" rx="3" ry="3" style="stroke: #038048; stroke-width: 1.0;"/><text fill="#000000" font-family="sans-serif" font-size="11" lengthAdjust="spacingAndGlyphs" textLength="317" x="268.75" y="734.1519">getQueuedTransactions (senderPublicKey, address, cb)</text><ellipse cx="259.75" cy="744.6484" fill="#84BE84" rx="3" ry="3" style="stroke: #038048; stroke-width: 1.0;"/><text fill="#000000" font-family="sans-serif" font-size="11" lengthAdjust="spacingAndGlyphs" textLength="208" x="268.75" y="746.9565">getMultisignatureTransaction (id, cb)</text><ellipse cx="259.75" cy="757.4531" fill="#84BE84" rx="3" ry="3" style="stroke: #038048; stroke-width: 1.0;"/><text fill="#000000" font-family="sans-serif" font-size="11" lengthAdjust="spacingAndGlyphs" textLength="349" x="268.75" y="759.7612">getMultisignatureTransactions (senderPublicKey, address,cb)</text><ellipse cx="259.75" cy="770.2578" fill="#84BE84" rx="3" ry="3" style="stroke: #038048; stroke-width: 1.0;"/><text fill="#000000" font-family="sans-serif" font-size="11" lengthAdjust="spacingAndGlyphs" textLength="200" x="268.75" y="772.5659">getUnconfirmedTransaction (id, cb)</text><ellipse cx="259.75" cy="783.0625" fill="#84BE84" rx="3" ry="3" style="stroke: #038048; stroke-width: 1.0;"/><text fill="#000000" font-family="sans-serif" font-size="11" lengthAdjust="spacingAndGlyphs" textLength="345" x="268.75" y="785.3706">getUnconfirmedTransactions (senderPublicKey, address, cb)</text><ellipse cx="259.75" cy="795.8672" fill="#84BE84" rx="3" ry="3" style="stroke: #038048; stroke-width: 1.0;"/><text fill="#000000" font-family="sans-serif" font-size="11" lengthAdjust="spacingAndGlyphs" textLength="271" x="268.75" y="798.1753">addTransactions (secret, publicKey, recipientId,</text><text fill="#000000" font-family="sans-serif" font-size="11" lengthAdjust="spacingAndGlyphs" textLength="304" x="268.75" y="810.98">multisigAccountPublicKey, secondSecret, amount, cb)</text><line style="stroke: #00008B; stroke-width: 1.0; stroke-dasharray: 1.0,2.0;" x1="249.75" x2="416.25" y1="666.3203" y2="666.3203"/><text fill="#000000" font-family="sans-serif" font-size="11" lengthAdjust="spacingAndGlyphs" textLength="40" x="416.25" y="669.6284">shared</text><line style="stroke: #00008B; stroke-width: 1.0; stroke-dasharray: 1.0,2.0;" x1="456.25" x2="622.75" y1="666.3203" y2="666.3203"/><!--class Transaction--><rect fill="url(#g1oc5ztlsvffdd0)" filter="url(#f1oc5ztlsvffdd)" height="602.6016" id="Transaction" style="stroke: #00008B; stroke-width: 1.5;" width="328" x="6" y="896.5"/><ellipse cx="108.25" cy="912.5" fill="#ADD1B2" rx="11" ry="11" style="stroke: #00008B; stroke-width: 1.0;"/><path d="M111.2188,918.1406 Q110.6406,918.4375 110,918.5859 Q109.3594,918.7344 108.6563,918.7344 Q106.1563,918.7344 104.8359,917.0859 Q103.5156,915.4375 103.5156,912.3125 Q103.5156,909.1875 104.8359,907.5313 Q106.1563,905.875 108.6563,905.875 Q109.3594,905.875 110.0078,906.0313 Q110.6563,906.1875 111.2188,906.4844 L111.2188,909.2031 Q110.5938,908.625 110,908.3516 Q109.4063,908.0781 108.7813,908.0781 Q107.4375,908.0781 106.75,909.1484 Q106.0625,910.2188 106.0625,912.3125 Q106.0625,914.4063 106.75,915.4766 Q107.4375,916.5469 108.7813,916.5469 Q109.4063,916.5469 110,916.2734 Q110.5938,916 111.2188,915.4219 L111.2188,918.1406 Z "/><text fill="#000000" font-family="sans-serif" font-size="12" lengthAdjust="spacingAndGlyphs" textLength="74" x="128.75" y="916.6543">Transaction</text><rect fill="#FFFFFF" height="15.9688" style="stroke: #000000; stroke-width: 1.0; stroke-dasharray: 2.0,2.0;" width="39" x="298" y="893.5"/><text fill="#000000" font-family="sans-serif" font-size="12" font-style="italic" lengthAdjust="spacingAndGlyphs" textLength="29" x="303" y="905.6387">logic</text><line style="stroke: #00008B; stroke-width: 1.5;" x1="7" x2="333" y1="928.5" y2="928.5"/><rect fill="none" height="6" style="stroke: #C82930; stroke-width: 1.0;" width="6" x="14" y="937.4023"/><text fill="#000000" font-family="sans-serif" font-size="11" lengthAdjust="spacingAndGlyphs" textLength="73" x="26" y="942.7104">__private: {}</text><rect fill="none" height="6" style="stroke: #C82930; stroke-width: 1.0;" width="6" x="14" y="950.207"/><text fill="#000000" font-family="sans-serif" font-size="11" lengthAdjust="spacingAndGlyphs" textLength="50" x="26" y="955.5151">self: this</text><rect fill="none" height="6" style="stroke: #C82930; stroke-width: 1.0;" width="6" x="14" y="963.0117"/><text fill="#000000" font-family="sans-serif" font-size="11" lengthAdjust="spacingAndGlyphs" textLength="49" x="26" y="968.3198">modules</text><ellipse cx="17" cy="978.8164" fill="none" rx="3" ry="3" style="stroke: #038048; stroke-width: 1.0;"/><text fill="#000000" font-family="sans-serif" font-size="11" lengthAdjust="spacingAndGlyphs" textLength="69" x="26" y="981.1245">dbTable: trs</text><ellipse cx="17" cy="991.6211" fill="none" rx="3" ry="3" style="stroke: #038048; stroke-width: 1.0;"/><text fill="#000000" font-family="sans-serif" font-size="11" lengthAdjust="spacingAndGlyphs" textLength="47" x="26" y="993.9292">dbFields</text><ellipse cx="17" cy="1004.4258" fill="none" rx="3" ry="3" style="stroke: #038048; stroke-width: 1.0;"/><text fill="#000000" font-family="sans-serif" font-size="11" lengthAdjust="spacingAndGlyphs" textLength="120" x="26" y="1006.7339">schema: Transaction</text><rect fill="none" height="6" style="stroke: #C82930; stroke-width: 1.0;" width="6" x="14" y="1031.0352"/><text fill="#000000" font-family="sans-serif" font-size="11" lengthAdjust="spacingAndGlyphs" textLength="14" x="26" y="1036.3433">db</text><rect fill="none" height="6" style="stroke: #C82930; stroke-width: 1.0;" width="6" x="14" y="1043.8398"/><text fill="#000000" font-family="sans-serif" font-size="11" lengthAdjust="spacingAndGlyphs" textLength="14" x="26" y="1049.1479">ed</text><rect fill="none" height="6" style="stroke: #C82930; stroke-width: 1.0;" width="6" x="14" y="1056.6445"/><text fill="#000000" font-family="sans-serif" font-size="11" lengthAdjust="spacingAndGlyphs" textLength="45" x="26" y="1061.9526">schema</text><rect fill="none" height="6" style="stroke: #C82930; stroke-width: 1.0;" width="6" x="14" y="1069.4492"/><text fill="#000000" font-family="sans-serif" font-size="11" lengthAdjust="spacingAndGlyphs" textLength="74" x="26" y="1074.7573">genesisblock</text><rect fill="none" height="6" style="stroke: #C82930; stroke-width: 1.0;" width="6" x="14" y="1082.2539"/><text fill="#000000" font-family="sans-serif" font-size="11" lengthAdjust="spacingAndGlyphs" textLength="44" x="26" y="1087.562">account</text><rect fill="none" height="6" style="stroke: #C82930; stroke-width: 1.0;" width="6" x="14" y="1095.0586"/><text fill="#000000" font-family="sans-serif" font-size="11" lengthAdjust="spacingAndGlyphs" textLength="36" x="26" y="1100.3667">logger</text><line style="stroke: #00008B; stroke-width: 1.0; stroke-dasharray: 1.0,2.0;" x1="7" x2="140.5" y1="1019.7305" y2="1019.7305"/><text fill="#000000" font-family="sans-serif" font-size="11" lengthAdjust="spacingAndGlyphs" textLength="59" x="140.5" y="1023.0386">this.scope</text><line style="stroke: #00008B; stroke-width: 1.0; stroke-dasharray: 1.0,2.0;" x1="199.5" x2="333" y1="1019.7305" y2="1019.7305"/><rect fill="none" height="6" style="stroke: #C82930; stroke-width: 1.0;" width="6" x="14" y="1124.668"/><text fill="#000000" font-family="sans-serif" font-size="11" lengthAdjust="spacingAndGlyphs" textLength="40" x="26" y="1129.9761">rounds</text><line style="stroke: #00008B; stroke-width: 1.0; stroke-dasharray: 1.0,2.0;" x1="7" x2="126.5" y1="1113.3633" y2="1113.3633"/><text fill="#000000" font-family="sans-serif" font-size="11" lengthAdjust="spacingAndGlyphs" textLength="87" x="126.5" y="1116.6714">modules object</text><line style="stroke: #00008B; stroke-width: 1.0; stroke-dasharray: 1.0,2.0;" x1="213.5" x2="333" y1="1113.3633" y2="1113.3633"/><ellipse cx="17" cy="1157.2773" fill="#84BE84" rx="3" ry="3" style="stroke: #038048; stroke-width: 1.0;"/><text fill="#000000" font-family="sans-serif" font-size="11" lengthAdjust="spacingAndGlyphs" textLength="302" x="26" y="1159.5854">Transaction (db, ed, schema, genesisblock, account,</text><text fill="#000000" font-family="sans-serif" font-size="11" lengthAdjust="spacingAndGlyphs" textLength="61" x="26" y="1172.3901">logger, cb)</text><ellipse cx="17" cy="1182.8867" fill="#84BE84" rx="3" ry="3" style="stroke: #038048; stroke-width: 1.0;"/><text fill="#000000" font-family="sans-serif" font-size="11" lengthAdjust="spacingAndGlyphs" textLength="73" x="26" y="1185.1948">create (data)</text><ellipse cx="17" cy="1195.6914" fill="#84BE84" rx="3" ry="3" style="stroke: #038048; stroke-width: 1.0;"/><text fill="#000000" font-family="sans-serif" font-size="11" lengthAdjust="spacingAndGlyphs" textLength="196" x="26" y="1197.9995">attachAssetType (typeId, instance)</text><ellipse cx="17" cy="1208.4961" fill="#84BE84" rx="3" ry="3" style="stroke: #038048; stroke-width: 1.0;"/><text fill="#000000" font-family="sans-serif" font-size="11" lengthAdjust="spacingAndGlyphs" textLength="101" x="26" y="1210.8042">sign (keypair, trs)</text><ellipse cx="17" cy="1221.3008" fill="#84BE84" rx="3" ry="3" style="stroke: #038048; stroke-width: 1.0;"/><text fill="#000000" font-family="sans-serif" font-size="11" lengthAdjust="spacingAndGlyphs" textLength="129" x="26" y="1223.6089">multisign (keypair, trs)</text><ellipse cx="17" cy="1234.1055" fill="#84BE84" rx="3" ry="3" style="stroke: #038048; stroke-width: 1.0;"/><text fill="#000000" font-family="sans-serif" font-size="11" lengthAdjust="spacingAndGlyphs" textLength="56" x="26" y="1236.4136">getId (trs)</text><ellipse cx="17" cy="1246.9102" fill="#84BE84" rx="3" ry="3" style="stroke: #038048; stroke-width: 1.0;"/><text fill="#000000" font-family="sans-serif" font-size="11" lengthAdjust="spacingAndGlyphs" textLength="75" x="26" y="1249.2183">getHash (trs)</text><ellipse cx="17" cy="1259.7148" fill="#84BE84" rx="3" ry="3" style="stroke: #038048; stroke-width: 1.0;"/><text fill="#000000" font-family="sans-serif" font-size="11" lengthAdjust="spacingAndGlyphs" textLength="292" x="26" y="1262.0229">getBytes (trs, skipSignature, skipSecondSignature)</text><ellipse cx="17" cy="1272.5195" fill="#84BE84" rx="3" ry="3" style="stroke: #038048; stroke-width: 1.0;"/><text fill="#000000" font-family="sans-serif" font-size="11" lengthAdjust="spacingAndGlyphs" textLength="108" x="26" y="1274.8276">ready (trs, sender)</text><ellipse cx="17" cy="1285.3242" fill="#84BE84" rx="3" ry="3" style="stroke: #038048; stroke-width: 1.0;"/><text fill="#000000" font-family="sans-serif" font-size="11" lengthAdjust="spacingAndGlyphs" textLength="104" x="26" y="1287.6323">countById (trs, cb)</text><ellipse cx="17" cy="1298.1289" fill="#84BE84" rx="3" ry="3" style="stroke: #038048; stroke-width: 1.0;"/><text fill="#000000" font-family="sans-serif" font-size="11" lengthAdjust="spacingAndGlyphs" textLength="140" x="26" y="1300.437">checkConfirmed (trs, cb)</text><ellipse cx="17" cy="1310.9336" fill="#84BE84" rx="3" ry="3" style="stroke: #038048; stroke-width: 1.0;"/><text fill="#000000" font-family="sans-serif" font-size="11" lengthAdjust="spacingAndGlyphs" textLength="256" x="26" y="1313.2417">checkBalance (amount, balance, trs, sender)</text><ellipse cx="17" cy="1323.7383" fill="#84BE84" rx="3" ry="3" style="stroke: #038048; stroke-width: 1.0;"/><text fill="#000000" font-family="sans-serif" font-size="11" lengthAdjust="spacingAndGlyphs" textLength="207" x="26" y="1326.0464">process (trs, sender, requester, cb)</text><ellipse cx="17" cy="1336.543" fill="#84BE84" rx="3" ry="3" style="stroke: #038048; stroke-width: 1.0;"/><text fill="#000000" font-family="sans-serif" font-size="11" lengthAdjust="spacingAndGlyphs" textLength="192" x="26" y="1338.8511">verify (trs, sender, requester, cb)</text><ellipse cx="17" cy="1349.3477" fill="#84BE84" rx="3" ry="3" style="stroke: #038048; stroke-width: 1.0;"/><text fill="#000000" font-family="sans-serif" font-size="11" lengthAdjust="spacingAndGlyphs" textLength="237" x="26" y="1351.6558">verifySignature (trs, publicKey, signature)</text><ellipse cx="17" cy="1362.1523" fill="#84BE84" rx="3" ry="3" style="stroke: #038048; stroke-width: 1.0;"/><text fill="#000000" font-family="sans-serif" font-size="11" lengthAdjust="spacingAndGlyphs" textLength="279" x="26" y="1364.4604">verifySecondSignature (trs, publicKey, signature)</text><ellipse cx="17" cy="1374.957" fill="#84BE84" rx="3" ry="3" style="stroke: #038048; stroke-width: 1.0;"/><text fill="#000000" font-family="sans-serif" font-size="11" lengthAdjust="spacingAndGlyphs" textLength="229" x="26" y="1377.2651">verifyBytes (bytes, publicKey, signature)</text><ellipse cx="17" cy="1387.7617" fill="#84BE84" rx="3" ry="3" style="stroke: #038048; stroke-width: 1.0;"/><text fill="#000000" font-family="sans-serif" font-size="11" lengthAdjust="spacingAndGlyphs" textLength="164" x="26" y="1390.0698">apply (trs, block, sender, cb)</text><ellipse cx="17" cy="1400.5664" fill="#84BE84" rx="3" ry="3" style="stroke: #038048; stroke-width: 1.0;"/><text fill="#000000" font-family="sans-serif" font-size="11" lengthAdjust="spacingAndGlyphs" textLength="162" x="26" y="1402.8745">undo (trs, block, sender, cb)</text><ellipse cx="17" cy="1413.3711" fill="#84BE84" rx="3" ry="3" style="stroke: #038048; stroke-width: 1.0;"/><text fill="#000000" font-family="sans-serif" font-size="11" lengthAdjust="spacingAndGlyphs" textLength="263" x="26" y="1415.6792">applyUnconfirmed (trs, sender, requester, cb)</text><ellipse cx="17" cy="1426.1758" fill="#84BE84" rx="3" ry="3" style="stroke: #038048; stroke-width: 1.0;"/><text fill="#000000" font-family="sans-serif" font-size="11" lengthAdjust="spacingAndGlyphs" textLength="197" x="26" y="1428.4839">undoUnconfirmed (trs, sender, cb)</text><ellipse cx="17" cy="1438.9805" fill="#84BE84" rx="3" ry="3" style="stroke: #038048; stroke-width: 1.0;"/><text fill="#000000" font-family="sans-serif" font-size="11" lengthAdjust="spacingAndGlyphs" textLength="70" x="26" y="1441.2886">dbSave (trs)</text><ellipse cx="17" cy="1451.7852" fill="#84BE84" rx="3" ry="3" style="stroke: #038048; stroke-width: 1.0;"/><text fill="#000000" font-family="sans-serif" font-size="11" lengthAdjust="spacingAndGlyphs" textLength="104" x="26" y="1454.0933">afterSave (trs, cb)</text><ellipse cx="17" cy="1464.5898" fill="#84BE84" rx="3" ry="3" style="stroke: #038048; stroke-width: 1.0;"/><text fill="#000000" font-family="sans-serif" font-size="11" lengthAdjust="spacingAndGlyphs" textLength="118" x="26" y="1466.8979">objectNormalize (trs)</text><ellipse cx="17" cy="1477.3945" fill="#84BE84" rx="3" ry="3" style="stroke: #038048; stroke-width: 1.0;"/><text fill="#000000" font-family="sans-serif" font-size="11" lengthAdjust="spacingAndGlyphs" textLength="75" x="26" y="1479.7026">dbRead (raw)</text><ellipse cx="17" cy="1490.1992" fill="#84BE84" rx="3" ry="3" style="stroke: #038048; stroke-width: 1.0;"/><text fill="#000000" font-family="sans-serif" font-size="11" lengthAdjust="spacingAndGlyphs" textLength="117" x="26" y="1492.5073">bindModules (scope)</text><line style="stroke: #00008B; stroke-width: 1.0;" x1="7" x2="146" y1="1142.9727" y2="1142.9727"/><text fill="#000000" font-family="sans-serif" font-size="11" lengthAdjust="spacingAndGlyphs" textLength="48" x="146" y="1146.2808">Methods</text><line style="stroke: #00008B; stroke-width: 1.0;" x1="194" x2="333" y1="1142.9727" y2="1142.9727"/><!--class TransactionPool--><rect fill="url(#g1oc5ztlsvffdd0)" filter="url(#f1oc5ztlsvffdd)" height="48" id="TransactionPool" style="stroke: #00008B; stroke-width: 1.5;" width="133" x="369.75" y="1174"/><ellipse cx="384.75" cy="1190" fill="#ADD1B2" rx="11" ry="11" style="stroke: #00008B; stroke-width: 1.0;"/><path d="M387.7188,1195.6406 Q387.1406,1195.9375 386.5,1196.0859 Q385.8594,1196.2344 385.1563,1196.2344 Q382.6563,1196.2344 381.3359,1194.5859 Q380.0156,1192.9375 380.0156,1189.8125 Q380.0156,1186.6875 381.3359,1185.0313 Q382.6563,1183.375 385.1563,1183.375 Q385.8594,1183.375 386.5078,1183.5313 Q387.1563,1183.6875 387.7188,1183.9844 L387.7188,1186.7031 Q387.0938,1186.125 386.5,1185.8516 Q385.9063,1185.5781 385.2813,1185.5781 Q383.9375,1185.5781 383.25,1186.6484 Q382.5625,1187.7188 382.5625,1189.8125 Q382.5625,1191.9063 383.25,1192.9766 Q383.9375,1194.0469 385.2813,1194.0469 Q385.9063,1194.0469 386.5,1193.7734 Q387.0938,1193.5 387.7188,1192.9219 L387.7188,1195.6406 Z "/><text fill="#000000" font-family="sans-serif" font-size="12" lengthAdjust="spacingAndGlyphs" textLength="101" x="398.75" y="1194.1543">TransactionPool</text><line style="stroke: #00008B; stroke-width: 1.5;" x1="370.75" x2="501.75" y1="1206" y2="1206"/><line style="stroke: #00008B; stroke-width: 1.5;" x1="370.75" x2="501.75" y1="1214" y2="1214"/><!--class Transfer--><rect fill="url(#g1oc5ztlsvffdd0)" filter="url(#f1oc5ztlsvffdd)" height="48" id="Transfer" style="stroke: #00008B; stroke-width: 1.5;" width="84" x="538.5" y="1174"/><ellipse cx="553.5" cy="1190" fill="#ADD1B2" rx="11" ry="11" style="stroke: #00008B; stroke-width: 1.0;"/><path d="M556.4688,1195.6406 Q555.8906,1195.9375 555.25,1196.0859 Q554.6094,1196.2344 553.9063,1196.2344 Q551.4063,1196.2344 550.0859,1194.5859 Q548.7656,1192.9375 548.7656,1189.8125 Q548.7656,1186.6875 550.0859,1185.0313 Q551.4063,1183.375 553.9063,1183.375 Q554.6094,1183.375 555.2578,1183.5313 Q555.9063,1183.6875 556.4688,1183.9844 L556.4688,1186.7031 Q555.8438,1186.125 555.25,1185.8516 Q554.6563,1185.5781 554.0313,1185.5781 Q552.6875,1185.5781 552,1186.6484 Q551.3125,1187.7188 551.3125,1189.8125 Q551.3125,1191.9063 552,1192.9766 Q552.6875,1194.0469 554.0313,1194.0469 Q554.6563,1194.0469 555.25,1193.7734 Q555.8438,1193.5 556.4688,1192.9219 L556.4688,1195.6406 Z "/><text fill="#000000" font-family="sans-serif" font-size="12" lengthAdjust="spacingAndGlyphs" textLength="52" x="567.5" y="1194.1543">Transfer</text><line style="stroke: #00008B; stroke-width: 1.5;" x1="539.5" x2="621.5" y1="1206" y2="1206"/><line style="stroke: #00008B; stroke-width: 1.5;" x1="539.5" x2="621.5" y1="1214" y2="1214"/><!--link Transactions to Transaction--><path d="M292.379,836.764 C285.578,856.785 278.813,876.696 272.158,896.286 " fill="none" id="Transactions-Transaction" style="stroke: #000000; stroke-width: 1.0;"/><polygon fill="none" points="285.848,834.227,298.909,817.542,299.104,838.73,285.848,834.227" style="stroke: #000000; stroke-width: 1.0;"/><!--link Transactions to TransactionPool--><path d="M436,837.899 C436,981.953 436,1120.117 436,1173.658 " fill="none" id="Transactions-TransactionPool" style="stroke: #000000; stroke-width: 1.0;"/><polygon fill="none" points="429,837.542,436,817.542,443,837.541,429,837.542" style="stroke: #000000; stroke-width: 1.0;"/><text fill="#000000" font-family="sans-serif" font-size="13" lengthAdjust="spacingAndGlyphs" textLength="25" x="437" y="861.0669">new</text><!--link Transactions to Transfer--><path d="M513.877,837.457 C540.399,981.671 565.851,1120.063 575.707,1173.658 " fill="none" id="Transactions-Transfer" style="stroke: #000000; stroke-width: 1.0;"/><polygon fill="none" points="506.948,838.478,510.215,817.542,520.717,835.945,506.948,838.478" style="stroke: #000000; stroke-width: 1.0;"/><text fill="#000000" font-family="sans-serif" font-size="13" lengthAdjust="spacingAndGlyphs" textLength="25" x="518" y="861.0669">new</text><!--
@startuml
skinparam class {
	BackgroundColor AliceBlue|LightBlue
	ArrowColor Black
	BorderColor DarkBlue
}
class Transactions < module > {
  - genesisblock
  - self: this
  .. __private ..
  - assetTypes[0]: new Transfer()
  - transactionPool: new TransactionPool (broadcastInterval,
  releaseLimit, transaction, bus, logger)
  .. library ..
  - logger
  - db
  - schema
  - ed
  - balancesSequence
  - logic.transaction
  .. modules ..
  - accounts
  - transactions
  - - Methods - -
  + Transactions (cb, genesisblock, scope)
  - list (filter, cb)
  - getById (id, cb)
  - getVotesById (transaction, cb)
  - getPooledTransaction (method, req, cb)
  + getPooledTransactions (method, req, cb)
  + transactionInPool (id)
  + getUnconfirmedTransaction (id)
  + getQueuedTransaction (id)
  + getMultisignatureTransaction (id)
  + getUnconfirmedTransactionList (reverse, limit)
  + getQueuedTransactionList (reverse, limit)
  + getMultisignatureTransactionList (reverse, limit)
  + getMergedTransactionList (reverse, limit)
  + removeUnconfirmedTransaction (id)
  + processUnconfirmedTransaction (transaction, broadcast, cb)
  + applyUnconfirmedList (cb)
  + applyUnconfirmedIds (ids, cb)
  + undoUnconfirmedList (cb)
  + apply (transaction, block, sender, cb)
  + undo (transaction, block, sender, cb)
  + applyUnconfirmed (transaction, sender, cb)
  + undoUnconfirmed (transaction, cb)
  + receiveTransactions (transactions, broadcast, cb)
  + fillPool (cb)
  + sandboxApi (call, args, cb)
  + isLoaded ()
  + onBind (scope)
  - - API - -
  .. shared ..
  + getTransactions (req, cb)
  + getTransaction (id, cb)
  + getTransactionsCount (*, cb)
  + getQueuedTransaction (id, cb)
  + getQueuedTransactions (senderPublicKey, address, cb)
  + getMultisignatureTransaction (id, cb)
  + getMultisignatureTransactions (senderPublicKey, address,cb)
  + getUnconfirmedTransaction (id, cb)
  + getUnconfirmedTransactions (senderPublicKey, address, cb)
  + addTransactions (secret, publicKey, recipientId,
  multisigAccountPublicKey, secondSecret, amount, cb)
}
class Transaction < logic > {
  - __private: {}
  - self: this
  - modules
  + dbTable: trs
  + dbFields
  + schema: Transaction
  .. this.scope ..
  - db
  - ed
  - schema
  - genesisblock
  - account
  - logger
  .. modules object ..
  - rounds
  - - Methods - -
  + Transaction (db, ed, schema, genesisblock, account,
  logger, cb)
  + create (data)
  + attachAssetType (typeId, instance)
  + sign (keypair, trs)
  + multisign (keypair, trs)
  + getId (trs)
  + getHash (trs)
  + getBytes (trs, skipSignature, skipSecondSignature)
  + ready (trs, sender)
  + countById (trs, cb)
  + checkConfirmed (trs, cb)
  + checkBalance (amount, balance, trs, sender)
  + process (trs, sender, requester, cb)
  + verify (trs, sender, requester, cb)
  + verifySignature (trs, publicKey, signature)
  + verifySecondSignature (trs, publicKey, signature)
  + verifyBytes (bytes, publicKey, signature)
  + apply (trs, block, sender, cb)
  + undo (trs, block, sender, cb)
  + applyUnconfirmed (trs, sender, requester, cb)
  + undoUnconfirmed (trs, sender, cb)
  + dbSave (trs)
  + afterSave (trs, cb)
  + objectNormalize (trs)
  + dbRead (raw)
  + bindModules (scope)
}

Transactions ^- - Transaction
Transactions ^- - TransactionPool : new
Transactions ^- - Transfer : new
@enduml

PlantUML version 1.2017.12(Wed Apr 26 13:06:36 ART 2017)
(GPL source distribution)
Java Runtime: Java(TM) SE Runtime Environment
JVM: Java HotSpot(TM) 64-Bit Server VM
Java Version: 1.8.0_131-b11
Operating System: Linux
OS Version: 3.13.0-119-generic
Default Encoding: UTF-8
Language: en
Country: US
--></g></svg>