<?xml version="1.0" encoding="UTF-8" standalone="no"?><svg xmlns="http://www.w3.org/2000/svg" xmlns:xlink="http://www.w3.org/1999/xlink" contentScriptType="application/ecmascript" contentStyleType="text/css" height="472px" preserveAspectRatio="none" style="width:279px;height:472px;" version="1.1" viewBox="0 0 279 472" width="279px" zoomAndPan="magnify"><defs><linearGradient id="gaeuv2jtfipvz0" x1="0%" x2="100%" y1="50%" y2="50%"><stop offset="0%" stop-color="#F0F8FF"/><stop offset="100%" stop-color="#ADD8E6"/></linearGradient><filter height="300%" id="faeuv2jtfipvz" width="300%" x="-1" y="-1"><feGaussianBlur result="blurOut" stdDeviation="2.0"/><feColorMatrix in="blurOut" result="blurOut2" type="matrix" values="0 0 0 0 0 0 0 0 0 0 0 0 0 0 0 0 0 0 .4 0"/><feOffset dx="4.0" dy="4.0" in="blurOut2" result="blurOut3"/><feBlend in="SourceGraphic" in2="blurOut3" mode="normal"/></filter></defs><g><!--class Accounts--><rect fill="url(#gaeuv2jtfipvz0)" filter="url(#faeuv2jtfipvz)" height="454.543" id="Accounts" style="stroke: #00008B; stroke-width: 1.5;" width="264" x="6" y="8.5"/><ellipse cx="72.75" cy="24.5" fill="#ADD1B2" rx="11" ry="11" style="stroke: #00008B; stroke-width: 1.0;"/><path d="M75.7188,30.1406 Q75.1406,30.4375 74.5,30.5859 Q73.8594,30.7344 73.1563,30.7344 Q70.6563,30.7344 69.3359,29.0859 Q68.0156,27.4375 68.0156,24.3125 Q68.0156,21.1875 69.3359,19.5313 Q70.6563,17.875 73.1563,17.875 Q73.8594,17.875 74.5078,18.0313 Q75.1563,18.1875 75.7188,18.4844 L75.7188,21.2031 Q75.0938,20.625 74.5,20.3516 Q73.9063,20.0781 73.2813,20.0781 Q71.9375,20.0781 71.25,21.1484 Q70.5625,22.2188 70.5625,24.3125 Q70.5625,26.4063 71.25,27.4766 Q71.9375,28.5469 73.2813,28.5469 Q73.9063,28.5469 74.5,28.2734 Q75.0938,28 75.7188,27.4219 L75.7188,30.1406 Z "/><text fill="#000000" font-family="sans-serif" font-size="12" lengthAdjust="spacingAndGlyphs" textLength="58" x="93.25" y="28.6543">Accounts</text><rect fill="#FFFFFF" height="15.9688" style="stroke: #000000; stroke-width: 1.0; stroke-dasharray: 2.0,2.0;" width="62" x="211" y="5.5"/><text fill="#000000" font-family="sans-serif" font-size="12" font-style="italic" lengthAdjust="spacingAndGlyphs" textLength="52" x="216" y="17.6387">modules</text><line style="stroke: #00008B; stroke-width: 1.5;" x1="7" x2="269" y1="40.5" y2="40.5"/><rect fill="#F24D5C" height="6" style="stroke: #C82930; stroke-width: 1.0;" width="6" x="14" y="49.4023"/><text fill="#000000" font-family="sans-serif" font-size="11" lengthAdjust="spacingAndGlyphs" textLength="186" x="26" y="54.7104">blockReward: new BlockReward()</text><rect fill="#F24D5C" height="6" style="stroke: #C82930; stroke-width: 1.0;" width="6" x="14" y="62.207"/><text fill="#000000" font-family="sans-serif" font-size="11" lengthAdjust="spacingAndGlyphs" textLength="238" x="26" y="67.5151">assetTypes[3]: new Vote(logger, schema)</text><rect fill="none" height="6" style="stroke: #C82930; stroke-width: 1.0;" width="6" x="14" y="75.0117"/><text fill="#000000" font-family="sans-serif" font-size="11" lengthAdjust="spacingAndGlyphs" textLength="73" x="26" y="80.3198">__private: {}</text><rect fill="none" height="6" style="stroke: #C82930; stroke-width: 1.0;" width="6" x="14" y="87.8164"/><text fill="#000000" font-family="sans-serif" font-size="11" lengthAdjust="spacingAndGlyphs" textLength="62" x="26" y="93.1245">shared: {}</text><rect fill="none" height="6" style="stroke: #C82930; stroke-width: 1.0;" width="6" x="14" y="100.6211"/><text fill="#000000" font-family="sans-serif" font-size="11" lengthAdjust="spacingAndGlyphs" textLength="50" x="26" y="105.9292">self: this</text><rect fill="none" height="6" style="stroke: #C82930; stroke-width: 1.0;" width="6" x="14" y="130.2305"/><text fill="#000000" font-family="sans-serif" font-size="11" lengthAdjust="spacingAndGlyphs" textLength="14" x="26" y="135.5386">ed</text><rect fill="none" height="6" style="stroke: #C82930; stroke-width: 1.0;" width="6" x="14" y="143.0352"/><text fill="#000000" font-family="sans-serif" font-size="11" lengthAdjust="spacingAndGlyphs" textLength="45" x="26" y="148.3433">schema</text><rect fill="none" height="6" style="stroke: #C82930; stroke-width: 1.0;" width="6" x="14" y="155.8398"/><text fill="#000000" font-family="sans-serif" font-size="11" lengthAdjust="spacingAndGlyphs" textLength="107" x="26" y="161.1479">balancesSequence</text><rect fill="none" height="6" style="stroke: #C82930; stroke-width: 1.0;" width="6" x="14" y="168.6445"/><text fill="#000000" font-family="sans-serif" font-size="11" lengthAdjust="spacingAndGlyphs" textLength="74" x="26" y="173.9526">logic.account</text><rect fill="none" height="6" style="stroke: #C82930; stroke-width: 1.0;" width="6" x="14" y="181.4492"/><text fill="#000000" font-family="sans-serif" font-size="11" lengthAdjust="spacingAndGlyphs" textLength="94" x="26" y="186.7573">logic.transaction</text><line style="stroke: #00008B; stroke-width: 1.0; stroke-dasharray: 1.0,2.0;" x1="7" x2="120" y1="118.9258" y2="118.9258"/><text fill="#000000" font-family="sans-serif" font-size="11" lengthAdjust="spacingAndGlyphs" textLength="36" x="120" y="122.2339">library</text><line style="stroke: #00008B; stroke-width: 1.0; stroke-dasharray: 1.0,2.0;" x1="156" x2="269" y1="118.9258" y2="118.9258"/><rect fill="none" height="6" style="stroke: #C82930; stroke-width: 1.0;" width="6" x="14" y="211.0586"/><text fill="#000000" font-family="sans-serif" font-size="11" lengthAdjust="spacingAndGlyphs" textLength="56" x="26" y="216.3667">delegates</text><rect fill="none" height="6" style="stroke: #C82930; stroke-width: 1.0;" width="6" x="14" y="223.8633"/><text fill="#000000" font-family="sans-serif" font-size="11" lengthAdjust="spacingAndGlyphs" textLength="51" x="26" y="229.1714">accounts</text><rect fill="none" height="6" style="stroke: #C82930; stroke-width: 1.0;" width="6" x="14" y="236.668"/><text fill="#000000" font-family="sans-serif" font-size="11" lengthAdjust="spacingAndGlyphs" textLength="71" x="26" y="241.9761">transactions</text><line style="stroke: #00008B; stroke-width: 1.0; stroke-dasharray: 1.0,2.0;" x1="7" x2="113.5" y1="199.7539" y2="199.7539"/><text fill="#000000" font-family="sans-serif" font-size="11" lengthAdjust="spacingAndGlyphs" textLength="49" x="113.5" y="203.062">modules</text><line style="stroke: #00008B; stroke-width: 1.0; stroke-dasharray: 1.0,2.0;" x1="162.5" x2="269" y1="199.7539" y2="199.7539"/><line style="stroke: #00008B; stroke-width: 1.0;" x1="7" x2="269" y1="248.5703" y2="248.5703"/><ellipse cx="17" cy="260.4727" fill="#84BE84" rx="3" ry="3" style="stroke: #038048; stroke-width: 1.0;"/><text fill="#000000" font-family="sans-serif" font-size="11" lengthAdjust="spacingAndGlyphs" textLength="114" x="26" y="262.7808">Accounts(cb, scope)</text><rect fill="#F24D5C" height="6" style="stroke: #C82930; stroke-width: 1.0;" width="6" x="14" y="270.2773"/><text fill="#000000" font-family="sans-serif" font-size="11" lengthAdjust="spacingAndGlyphs" textLength="137" x="26" y="275.5854">openAccount(secret, cb)</text><ellipse cx="17" cy="286.082" fill="#84BE84" rx="3" ry="3" style="stroke: #038048; stroke-width: 1.0;"/><text fill="#000000" font-family="sans-serif" font-size="11" lengthAdjust="spacingAndGlyphs" textLength="226" x="26" y="288.3901">generateAddressByPublicKey(publicKey)</text><ellipse cx="17" cy="298.8867" fill="#84BE84" rx="3" ry="3" style="stroke: #038048; stroke-width: 1.0;"/><text fill="#000000" font-family="sans-serif" font-size="11" lengthAdjust="spacingAndGlyphs" textLength="156" x="26" y="301.1948">getAccount(filter, fields, cb)</text><ellipse cx="17" cy="311.6914" fill="#84BE84" rx="3" ry="3" style="stroke: #038048; stroke-width: 1.0;"/><text fill="#000000" font-family="sans-serif" font-size="11" lengthAdjust="spacingAndGlyphs" textLength="163" x="26" y="313.9995">getAccounts(filter, fields, cb)</text><ellipse cx="17" cy="324.4961" fill="#84BE84" rx="3" ry="3" style="stroke: #038048; stroke-width: 1.0;"/><text fill="#000000" font-family="sans-serif" font-size="11" lengthAdjust="spacingAndGlyphs" textLength="157" x="26" y="326.8042">setAccountAndGet(data, cb)</text><ellipse cx="17" cy="337.3008" fill="#84BE84" rx="3" ry="3" style="stroke: #038048; stroke-width: 1.0;"/><text fill="#000000" font-family="sans-serif" font-size="11" lengthAdjust="spacingAndGlyphs" textLength="176" x="26" y="339.6089">mergeAccountAndGet(data, cb)</text><ellipse cx="17" cy="350.1055" fill="#84BE84" rx="3" ry="3" style="stroke: #038048; stroke-width: 1.0;"/><text fill="#000000" font-family="sans-serif" font-size="11" lengthAdjust="spacingAndGlyphs" textLength="147" x="26" y="352.4136">sandboxApi(call, args, cb)</text><ellipse cx="17" cy="362.9102" fill="#84BE84" rx="3" ry="3" style="stroke: #038048; stroke-width: 1.0;"/><text fill="#000000" font-family="sans-serif" font-size="11" lengthAdjust="spacingAndGlyphs" textLength="81" x="26" y="365.2183">onBind(scope)</text><ellipse cx="17" cy="375.7148" fill="#84BE84" rx="3" ry="3" style="stroke: #038048; stroke-width: 1.0;"/><text fill="#000000" font-family="sans-serif" font-size="11" lengthAdjust="spacingAndGlyphs" textLength="59" x="26" y="378.0229">isLoaded()</text><line style="stroke: #00008B; stroke-width: 1.0;" x1="7" x2="129.5" y1="391.0195" y2="391.0195"/><text fill="#000000" font-family="sans-serif" font-size="11" lengthAdjust="spacingAndGlyphs" textLength="17" x="129.5" y="394.3276">API</text><line style="stroke: #00008B; stroke-width: 1.0;" x1="146.5" x2="269" y1="391.0195" y2="391.0195"/><polygon fill="none" points="17,420.5313,13,426.5313,21,426.5313" style="stroke: #1963A0; stroke-width: 1.0;"/><text fill="#000000" font-family="sans-serif" font-size="11" lengthAdjust="spacingAndGlyphs" textLength="45" x="26" y="426.8394">Pending</text><line style="stroke: #00008B; stroke-width: 1.0; stroke-dasharray: 1.0,2.0;" x1="7" x2="116.5" y1="410.2266" y2="410.2266"/><text fill="#000000" font-family="sans-serif" font-size="11" lengthAdjust="spacingAndGlyphs" textLength="43" x="116.5" y="413.5347">internal</text><line style="stroke: #00008B; stroke-width: 1.0; stroke-dasharray: 1.0,2.0;" x1="159.5" x2="269" y1="410.2266" y2="410.2266"/><polygon fill="none" points="17,450.1406,13,456.1406,21,456.1406" style="stroke: #1963A0; stroke-width: 1.0;"/><text fill="#000000" font-family="sans-serif" font-size="11" lengthAdjust="spacingAndGlyphs" textLength="45" x="26" y="456.4487">Pending</text><line style="stroke: #00008B; stroke-width: 1.0; stroke-dasharray: 1.0,2.0;" x1="7" x2="118" y1="439.8359" y2="439.8359"/><text fill="#000000" font-family="sans-serif" font-size="11" lengthAdjust="spacingAndGlyphs" textLength="40" x="118" y="443.144">shared</text><line style="stroke: #00008B; stroke-width: 1.0; stroke-dasharray: 1.0,2.0;" x1="158" x2="269" y1="439.8359" y2="439.8359"/><!--
@startuml
skinparam class {
	BackgroundColor AliceBlue|LightBlue
	ArrowColor Black
	BorderColor DarkBlue
}
class Accounts < modules > {
  - blockReward: new BlockReward()
  - assetTypes[3]: new Vote(logger, schema)
  - __private: {}
  - shared: {}
  - self: this
  .. library ..
  - ed
  - schema
  - balancesSequence
  - logic.account
  - logic.transaction
  .. modules ..
  - delegates
  - accounts
  - transactions
  - -
  + Accounts(cb, scope)
  - openAccount(secret, cb)
  + generateAddressByPublicKey(publicKey)
  + getAccount(filter, fields, cb)
  + getAccounts(filter, fields, cb)
  + setAccountAndGet(data, cb)
  + mergeAccountAndGet(data, cb)
  + sandboxApi(call, args, cb)
  + onBind(scope)
  + isLoaded()
  - - API - -
  .. internal ..
  ~ Pending
  .. shared ..
  ~ Pending
}
@enduml

PlantUML version 1.2017.12(Wed Apr 26 13:06:36 ART 2017)
(GPL source distribution)
Java Runtime: Java(TM) SE Runtime Environment
JVM: Java HotSpot(TM) 64-Bit Server VM
Java Version: 1.8.0_131-b11
Operating System: Linux
OS Version: 3.13.0-119-generic
Default Encoding: UTF-8
Language: en
Country: US
--></g></svg>