<?xml version="1.0" encoding="UTF-8" standalone="no"?><svg xmlns="http://www.w3.org/2000/svg" xmlns:xlink="http://www.w3.org/1999/xlink" contentScriptType="application/ecmascript" contentStyleType="text/css" height="624px" preserveAspectRatio="none" style="width:1376px;height:624px;" version="1.1" viewBox="0 0 1376 624" width="1376px" zoomAndPan="magnify"><defs><linearGradient id="ghn2kyjvvkve90" x1="0%" x2="100%" y1="50%" y2="50%"><stop offset="0%" stop-color="#F0F8FF"/><stop offset="100%" stop-color="#ADD8E6"/></linearGradient><filter height="300%" id="fhn2kyjvvkve9" width="300%" x="-1" y="-1"><feGaussianBlur result="blurOut" stdDeviation="2.0"/><feColorMatrix in="blurOut" result="blurOut2" type="matrix" values="0 0 0 0 0 0 0 0 0 0 0 0 0 0 0 0 0 0 .4 0"/><feOffset dx="4.0" dy="4.0" in="blurOut2" result="blurOut3"/><feBlend in="SourceGraphic" in2="blurOut3" mode="normal"/></filter></defs><g><!--class API--><rect fill="url(#ghn2kyjvvkve90)" filter="url(#fhn2kyjvvkve9)" height="348.1055" id="API" style="stroke: #00008B; stroke-width: 1.5;" width="281" x="6" y="249"/><ellipse cx="100.75" cy="265" fill="#ADD1B2" rx="11" ry="11" style="stroke: #00008B; stroke-width: 1.0;"/><path d="M103.7188,270.6406 Q103.1406,270.9375 102.5,271.0859 Q101.8594,271.2344 101.1563,271.2344 Q98.6563,271.2344 97.3359,269.5859 Q96.0156,267.9375 96.0156,264.8125 Q96.0156,261.6875 97.3359,260.0313 Q98.6563,258.375 101.1563,258.375 Q101.8594,258.375 102.5078,258.5313 Q103.1563,258.6875 103.7188,258.9844 L103.7188,261.7031 Q103.0938,261.125 102.5,260.8516 Q101.9063,260.5781 101.2813,260.5781 Q99.9375,260.5781 99.25,261.6484 Q98.5625,262.7188 98.5625,264.8125 Q98.5625,266.9063 99.25,267.9766 Q99.9375,269.0469 101.2813,269.0469 Q101.9063,269.0469 102.5,268.7734 Q103.0938,268.5 103.7188,267.9219 L103.7188,270.6406 Z "/><text fill="#000000" font-family="sans-serif" font-size="12" lengthAdjust="spacingAndGlyphs" textLength="19" x="121.25" y="269.1543">API</text><rect fill="#FFFFFF" height="15.9688" style="stroke: #000000; stroke-width: 1.0; stroke-dasharray: 2.0,2.0;" width="62" x="228" y="246"/><text fill="#000000" font-family="sans-serif" font-size="12" font-style="italic" lengthAdjust="spacingAndGlyphs" textLength="52" x="233" y="258.1387">modules</text><line style="stroke: #00008B; stroke-width: 1.5;" x1="7" x2="286" y1="281" y2="281"/><rect fill="none" height="6" style="stroke: #C82930; stroke-width: 1.0;" width="6" x="14" y="289.9023"/><text fill="#000000" font-family="sans-serif" font-size="11" lengthAdjust="spacingAndGlyphs" textLength="21" x="26" y="295.2104">self</text><rect fill="#F24D5C" height="6" style="stroke: #C82930; stroke-width: 1.0;" width="6" x="14" y="302.707"/><text fill="#000000" font-family="sans-serif" font-size="11" lengthAdjust="spacingAndGlyphs" textLength="186" x="26" y="308.0151">blockReward: new BlockReward()</text><rect fill="none" height="6" style="stroke: #C82930; stroke-width: 1.0;" width="6" x="14" y="315.5117"/><text fill="#000000" font-family="sans-serif" font-size="11" lengthAdjust="spacingAndGlyphs" textLength="73" x="26" y="320.8198">__private: {}</text><ellipse cx="17" cy="331.3164" fill="none" rx="3" ry="3" style="stroke: #038048; stroke-width: 1.0;"/><text fill="#000000" font-family="sans-serif" font-size="11" lengthAdjust="spacingAndGlyphs" textLength="55" x="26" y="333.6245">public var</text><rect fill="none" height="6" style="stroke: #C82930; stroke-width: 1.0;" width="6" x="14" y="357.9258"/><text fill="#000000" font-family="sans-serif" font-size="11" lengthAdjust="spacingAndGlyphs" textLength="36" x="26" y="363.2339">logger</text><rect fill="none" height="6" style="stroke: #C82930; stroke-width: 1.0;" width="6" x="14" y="370.7305"/><text fill="#000000" font-family="sans-serif" font-size="11" lengthAdjust="spacingAndGlyphs" textLength="14" x="26" y="376.0386">db</text><rect fill="none" height="6" style="stroke: #C82930; stroke-width: 1.0;" width="6" x="14" y="383.5352"/><text fill="#000000" font-family="sans-serif" font-size="11" lengthAdjust="spacingAndGlyphs" textLength="59" x="26" y="388.8433">logic.block</text><rect fill="none" height="6" style="stroke: #C82930; stroke-width: 1.0;" width="6" x="14" y="396.3398"/><text fill="#000000" font-family="sans-serif" font-size="11" lengthAdjust="spacingAndGlyphs" textLength="45" x="26" y="401.6479">schema</text><rect fill="none" height="6" style="stroke: #C82930; stroke-width: 1.0;" width="6" x="14" y="409.1445"/><text fill="#000000" font-family="sans-serif" font-size="11" lengthAdjust="spacingAndGlyphs" textLength="70" x="26" y="414.4526">dbSequence</text><line style="stroke: #00008B; stroke-width: 1.0; stroke-dasharray: 1.0,2.0;" x1="7" x2="128.5" y1="346.6211" y2="346.6211"/><text fill="#000000" font-family="sans-serif" font-size="11" lengthAdjust="spacingAndGlyphs" textLength="36" x="128.5" y="349.9292">library</text><line style="stroke: #00008B; stroke-width: 1.0; stroke-dasharray: 1.0,2.0;" x1="164.5" x2="286" y1="346.6211" y2="346.6211"/><rect fill="none" height="6" style="stroke: #C82930; stroke-width: 1.0;" width="6" x="14" y="438.7539"/><text fill="#000000" font-family="sans-serif" font-size="11" lengthAdjust="spacingAndGlyphs" textLength="42" x="26" y="444.062">system</text><rect fill="none" height="6" style="stroke: #C82930; stroke-width: 1.0;" width="6" x="14" y="451.5586"/><text fill="#000000" font-family="sans-serif" font-size="11" lengthAdjust="spacingAndGlyphs" textLength="36" x="26" y="456.8667">blocks</text><text fill="#000000" font-family="sans-serif" font-size="11" lengthAdjust="spacingAndGlyphs" textLength="4" x="26" y="469.6714">-</text><line style="stroke: #00008B; stroke-width: 1.0; stroke-dasharray: 1.0,2.0;" x1="7" x2="122" y1="427.4492" y2="427.4492"/><text fill="#000000" font-family="sans-serif" font-size="11" lengthAdjust="spacingAndGlyphs" textLength="49" x="122" y="430.7573">modules</text><line style="stroke: #00008B; stroke-width: 1.0; stroke-dasharray: 1.0,2.0;" x1="171" x2="286" y1="427.4492" y2="427.4492"/><rect fill="#F24D5C" height="6" style="stroke: #C82930; stroke-width: 1.0;" width="6" x="14" y="493.9727"/><text fill="#000000" font-family="sans-serif" font-size="11" lengthAdjust="spacingAndGlyphs" textLength="96" x="26" y="499.2808">method_Private()</text><ellipse cx="17" cy="509.7773" fill="#84BE84" rx="3" ry="3" style="stroke: #038048; stroke-width: 1.0;"/><text fill="#000000" font-family="sans-serif" font-size="11" lengthAdjust="spacingAndGlyphs" textLength="255" x="26" y="512.0854">API (logger, db, block, schema, dbSequence)</text><line style="stroke: #00008B; stroke-width: 1.0;" x1="7" x2="122.5" y1="482.668" y2="482.668"/><text fill="#000000" font-family="sans-serif" font-size="11" lengthAdjust="spacingAndGlyphs" textLength="48" x="122.5" y="485.9761">Methods</text><line style="stroke: #00008B; stroke-width: 1.0;" x1="170.5" x2="286" y1="482.668" y2="482.668"/><line style="stroke: #00008B; stroke-width: 1.0;" x1="7" x2="138" y1="525.082" y2="525.082"/><text fill="#000000" font-family="sans-serif" font-size="11" lengthAdjust="spacingAndGlyphs" textLength="17" x="138" y="528.3901">API</text><line style="stroke: #00008B; stroke-width: 1.0;" x1="155" x2="286" y1="525.082" y2="525.082"/><rect fill="#F24D5C" height="6" style="stroke: #C82930; stroke-width: 1.0;" width="6" x="14" y="555.5938"/><text fill="#000000" font-family="sans-serif" font-size="11" lengthAdjust="spacingAndGlyphs" textLength="70" x="26" y="560.9019">api_Private()</text><line style="stroke: #00008B; stroke-width: 1.0; stroke-dasharray: 1.0,2.0;" x1="7" x2="125" y1="544.2891" y2="544.2891"/><text fill="#000000" font-family="sans-serif" font-size="11" lengthAdjust="spacingAndGlyphs" textLength="43" x="125" y="547.5972">internal</text><line style="stroke: #00008B; stroke-width: 1.0; stroke-dasharray: 1.0,2.0;" x1="168" x2="286" y1="544.2891" y2="544.2891"/><ellipse cx="17" cy="588.2031" fill="#84BE84" rx="3" ry="3" style="stroke: #038048; stroke-width: 1.0;"/><text fill="#000000" font-family="sans-serif" font-size="11" lengthAdjust="spacingAndGlyphs" textLength="64" x="26" y="590.5112">api_Public()</text><line style="stroke: #00008B; stroke-width: 1.0; stroke-dasharray: 1.0,2.0;" x1="7" x2="126.5" y1="573.8984" y2="573.8984"/><text fill="#000000" font-family="sans-serif" font-size="11" lengthAdjust="spacingAndGlyphs" textLength="40" x="126.5" y="577.2065">shared</text><line style="stroke: #00008B; stroke-width: 1.0; stroke-dasharray: 1.0,2.0;" x1="166.5" x2="286" y1="573.8984" y2="573.8984"/><!--class Chain--><rect fill="url(#ghn2kyjvvkve90)" filter="url(#fhn2kyjvvkve9)" height="308.0938" id="Chain" style="stroke: #00008B; stroke-width: 1.5;" width="248" x="322.75" y="269"/><ellipse cx="393" cy="285" fill="#ADD1B2" rx="11" ry="11" style="stroke: #00008B; stroke-width: 1.0;"/><path d="M395.9688,290.6406 Q395.3906,290.9375 394.75,291.0859 Q394.1094,291.2344 393.4063,291.2344 Q390.9063,291.2344 389.5859,289.5859 Q388.2656,287.9375 388.2656,284.8125 Q388.2656,281.6875 389.5859,280.0313 Q390.9063,278.375 393.4063,278.375 Q394.1094,278.375 394.7578,278.5313 Q395.4063,278.6875 395.9688,278.9844 L395.9688,281.7031 Q395.3438,281.125 394.75,280.8516 Q394.1563,280.5781 393.5313,280.5781 Q392.1875,280.5781 391.5,281.6484 Q390.8125,282.7188 390.8125,284.8125 Q390.8125,286.9063 391.5,287.9766 Q392.1875,289.0469 393.5313,289.0469 Q394.1563,289.0469 394.75,288.7734 Q395.3438,288.5 395.9688,287.9219 L395.9688,290.6406 Z "/><text fill="#000000" font-family="sans-serif" font-size="12" lengthAdjust="spacingAndGlyphs" textLength="35" x="413.5" y="289.1543">Chain</text><rect fill="#FFFFFF" height="15.9688" style="stroke: #000000; stroke-width: 1.0; stroke-dasharray: 2.0,2.0;" width="62" x="511.75" y="266"/><text fill="#000000" font-family="sans-serif" font-size="12" font-style="italic" lengthAdjust="spacingAndGlyphs" textLength="52" x="516.75" y="278.1387">modules</text><line style="stroke: #00008B; stroke-width: 1.5;" x1="323.75" x2="569.75" y1="301" y2="301"/><rect fill="none" height="6" style="stroke: #C82930; stroke-width: 1.0;" width="6" x="330.75" y="309.9023"/><text fill="#000000" font-family="sans-serif" font-size="11" lengthAdjust="spacingAndGlyphs" textLength="21" x="342.75" y="315.2104">self</text><rect fill="none" height="6" style="stroke: #C82930; stroke-width: 1.0;" width="6" x="330.75" y="322.707"/><text fill="#000000" font-family="sans-serif" font-size="11" lengthAdjust="spacingAndGlyphs" textLength="73" x="342.75" y="328.0151">__private: {}</text><rect fill="none" height="6" style="stroke: #C82930; stroke-width: 1.0;" width="6" x="330.75" y="352.3164"/><text fill="#000000" font-family="sans-serif" font-size="11" lengthAdjust="spacingAndGlyphs" textLength="59" x="342.75" y="357.6245">logic.block</text><rect fill="none" height="6" style="stroke: #C82930; stroke-width: 1.0;" width="6" x="330.75" y="365.1211"/><text fill="#000000" font-family="sans-serif" font-size="11" lengthAdjust="spacingAndGlyphs" textLength="94" x="342.75" y="370.4292">logic.transaction</text><rect fill="none" height="6" style="stroke: #C82930; stroke-width: 1.0;" width="6" x="330.75" y="377.9258"/><text fill="#000000" font-family="sans-serif" font-size="11" lengthAdjust="spacingAndGlyphs" textLength="14" x="342.75" y="383.2339">db</text><rect fill="none" height="6" style="stroke: #C82930; stroke-width: 1.0;" width="6" x="330.75" y="390.7305"/><text fill="#000000" font-family="sans-serif" font-size="11" lengthAdjust="spacingAndGlyphs" textLength="74" x="342.75" y="396.0386">genesisblock</text><rect fill="none" height="6" style="stroke: #C82930; stroke-width: 1.0;" width="6" x="330.75" y="403.5352"/><text fill="#000000" font-family="sans-serif" font-size="11" lengthAdjust="spacingAndGlyphs" textLength="36" x="342.75" y="408.8433">logger</text><rect fill="none" height="6" style="stroke: #C82930; stroke-width: 1.0;" width="6" x="330.75" y="416.3398"/><text fill="#000000" font-family="sans-serif" font-size="11" lengthAdjust="spacingAndGlyphs" textLength="21" x="342.75" y="421.6479">bus</text><rect fill="none" height="6" style="stroke: #C82930; stroke-width: 1.0;" width="6" x="330.75" y="429.1445"/><text fill="#000000" font-family="sans-serif" font-size="11" lengthAdjust="spacingAndGlyphs" textLength="107" x="342.75" y="434.4526">balancesSequence</text><line style="stroke: #00008B; stroke-width: 1.0; stroke-dasharray: 1.0,2.0;" x1="323.75" x2="428.75" y1="341.0117" y2="341.0117"/><text fill="#000000" font-family="sans-serif" font-size="11" lengthAdjust="spacingAndGlyphs" textLength="36" x="428.75" y="344.3198">library</text><line style="stroke: #00008B; stroke-width: 1.0; stroke-dasharray: 1.0,2.0;" x1="464.75" x2="569.75" y1="341.0117" y2="341.0117"/><rect fill="none" height="6" style="stroke: #C82930; stroke-width: 1.0;" width="6" x="330.75" y="458.7539"/><text fill="#000000" font-family="sans-serif" font-size="11" lengthAdjust="spacingAndGlyphs" textLength="51" x="342.75" y="464.062">accounts</text><rect fill="none" height="6" style="stroke: #C82930; stroke-width: 1.0;" width="6" x="330.75" y="471.5586"/><text fill="#000000" font-family="sans-serif" font-size="11" lengthAdjust="spacingAndGlyphs" textLength="36" x="342.75" y="476.8667">blocks</text><rect fill="none" height="6" style="stroke: #C82930; stroke-width: 1.0;" width="6" x="330.75" y="484.3633"/><text fill="#000000" font-family="sans-serif" font-size="11" lengthAdjust="spacingAndGlyphs" textLength="40" x="342.75" y="489.6714">rounds</text><rect fill="none" height="6" style="stroke: #C82930; stroke-width: 1.0;" width="6" x="330.75" y="497.168"/><text fill="#000000" font-family="sans-serif" font-size="11" lengthAdjust="spacingAndGlyphs" textLength="71" x="342.75" y="502.4761">transactions</text><line style="stroke: #00008B; stroke-width: 1.0; stroke-dasharray: 1.0,2.0;" x1="323.75" x2="422.25" y1="447.4492" y2="447.4492"/><text fill="#000000" font-family="sans-serif" font-size="11" lengthAdjust="spacingAndGlyphs" textLength="49" x="422.25" y="450.7573">modules</text><line style="stroke: #00008B; stroke-width: 1.0; stroke-dasharray: 1.0,2.0;" x1="471.25" x2="569.75" y1="447.4492" y2="447.4492"/><ellipse cx="333.75" cy="529.7773" fill="#84BE84" rx="3" ry="3" style="stroke: #038048; stroke-width: 1.0;"/><text fill="#000000" font-family="sans-serif" font-size="11" lengthAdjust="spacingAndGlyphs" textLength="211" x="342.75" y="532.0854">Chain (logger, block, transaction, db,</text><text fill="#000000" font-family="sans-serif" font-size="11" lengthAdjust="spacingAndGlyphs" textLength="222" x="342.75" y="544.8901">genesisblock, bus, balancesSequence)</text><polygon fill="none" points="333.75,551.3867,329.75,557.3867,337.75,557.3867" style="stroke: #1963A0; stroke-width: 1.0;"/><text fill="#000000" font-family="sans-serif" font-size="11" lengthAdjust="spacingAndGlyphs" textLength="50" x="342.75" y="557.6948">PENDING</text><ellipse cx="333.75" cy="568.1914" fill="#84BE84" rx="3" ry="3" style="stroke: #038048; stroke-width: 1.0;"/><text fill="#000000" font-family="sans-serif" font-size="11" lengthAdjust="spacingAndGlyphs" textLength="85" x="342.75" y="570.4995">onBind (scope)</text><line style="stroke: #00008B; stroke-width: 1.0;" x1="323.75" x2="422.75" y1="515.4727" y2="515.4727"/><text fill="#000000" font-family="sans-serif" font-size="11" lengthAdjust="spacingAndGlyphs" textLength="48" x="422.75" y="518.7808">Methods</text><line style="stroke: #00008B; stroke-width: 1.0;" x1="470.75" x2="569.75" y1="515.4727" y2="515.4727"/><!--class Process--><rect fill="url(#ghn2kyjvvkve90)" filter="url(#fhn2kyjvvkve9)" height="384.9219" id="Process" style="stroke: #00008B; stroke-width: 1.5;" width="245" x="606" y="230.5"/><ellipse cx="667.25" cy="246.5" fill="#ADD1B2" rx="11" ry="11" style="stroke: #00008B; stroke-width: 1.0;"/><path d="M670.2188,252.1406 Q669.6406,252.4375 669,252.5859 Q668.3594,252.7344 667.6563,252.7344 Q665.1563,252.7344 663.8359,251.0859 Q662.5156,249.4375 662.5156,246.3125 Q662.5156,243.1875 663.8359,241.5313 Q665.1563,239.875 667.6563,239.875 Q668.3594,239.875 669.0078,240.0313 Q669.6563,240.1875 670.2188,240.4844 L670.2188,243.2031 Q669.5938,242.625 669,242.3516 Q668.4063,242.0781 667.7813,242.0781 Q666.4375,242.0781 665.75,243.1484 Q665.0625,244.2188 665.0625,246.3125 Q665.0625,248.4063 665.75,249.4766 Q666.4375,250.5469 667.7813,250.5469 Q668.4063,250.5469 669,250.2734 Q669.5938,250 670.2188,249.4219 L670.2188,252.1406 Z "/><text fill="#000000" font-family="sans-serif" font-size="12" lengthAdjust="spacingAndGlyphs" textLength="50" x="687.75" y="250.6543">Process</text><rect fill="#FFFFFF" height="15.9688" style="stroke: #000000; stroke-width: 1.0; stroke-dasharray: 2.0,2.0;" width="62" x="792" y="227.5"/><text fill="#000000" font-family="sans-serif" font-size="12" font-style="italic" lengthAdjust="spacingAndGlyphs" textLength="52" x="797" y="239.6387">modules</text><line style="stroke: #00008B; stroke-width: 1.5;" x1="607" x2="850" y1="262.5" y2="262.5"/><rect fill="none" height="6" style="stroke: #C82930; stroke-width: 1.0;" width="6" x="614" y="271.4023"/><text fill="#000000" font-family="sans-serif" font-size="11" lengthAdjust="spacingAndGlyphs" textLength="21" x="626" y="276.7104">self</text><rect fill="none" height="6" style="stroke: #C82930; stroke-width: 1.0;" width="6" x="614" y="284.207"/><text fill="#000000" font-family="sans-serif" font-size="11" lengthAdjust="spacingAndGlyphs" textLength="73" x="626" y="289.5151">__private: {}</text><rect fill="none" height="6" style="stroke: #C82930; stroke-width: 1.0;" width="6" x="614" y="313.8164"/><text fill="#000000" font-family="sans-serif" font-size="11" lengthAdjust="spacingAndGlyphs" textLength="36" x="626" y="319.1245">logger</text><rect fill="none" height="6" style="stroke: #C82930; stroke-width: 1.0;" width="6" x="614" y="326.6211"/><text fill="#000000" font-family="sans-serif" font-size="11" lengthAdjust="spacingAndGlyphs" textLength="63" x="626" y="331.9292">logic.peers</text><rect fill="none" height="6" style="stroke: #C82930; stroke-width: 1.0;" width="6" x="614" y="339.4258"/><text fill="#000000" font-family="sans-serif" font-size="11" lengthAdjust="spacingAndGlyphs" textLength="94" x="626" y="344.7339">logic.transaction</text><rect fill="none" height="6" style="stroke: #C82930; stroke-width: 1.0;" width="6" x="614" y="352.2305"/><text fill="#000000" font-family="sans-serif" font-size="11" lengthAdjust="spacingAndGlyphs" textLength="59" x="626" y="357.5386">logic.block</text><rect fill="none" height="6" style="stroke: #C82930; stroke-width: 1.0;" width="6" x="614" y="365.0352"/><text fill="#000000" font-family="sans-serif" font-size="11" lengthAdjust="spacingAndGlyphs" textLength="45" x="626" y="370.3433">schema</text><rect fill="none" height="6" style="stroke: #C82930; stroke-width: 1.0;" width="6" x="614" y="377.8398"/><text fill="#000000" font-family="sans-serif" font-size="11" lengthAdjust="spacingAndGlyphs" textLength="14" x="626" y="383.1479">db</text><rect fill="none" height="6" style="stroke: #C82930; stroke-width: 1.0;" width="6" x="614" y="390.6445"/><text fill="#000000" font-family="sans-serif" font-size="11" lengthAdjust="spacingAndGlyphs" textLength="70" x="626" y="395.9526">dbSequence</text><rect fill="none" height="6" style="stroke: #C82930; stroke-width: 1.0;" width="6" x="614" y="403.4492"/><text fill="#000000" font-family="sans-serif" font-size="11" lengthAdjust="spacingAndGlyphs" textLength="55" x="626" y="408.7573">sequence</text><rect fill="none" height="6" style="stroke: #C82930; stroke-width: 1.0;" width="6" x="614" y="416.2539"/><text fill="#000000" font-family="sans-serif" font-size="11" lengthAdjust="spacingAndGlyphs" textLength="74" x="626" y="421.562">genesisblock</text><line style="stroke: #00008B; stroke-width: 1.0; stroke-dasharray: 1.0,2.0;" x1="607" x2="710.5" y1="302.5117" y2="302.5117"/><text fill="#000000" font-family="sans-serif" font-size="11" lengthAdjust="spacingAndGlyphs" textLength="36" x="710.5" y="305.8198">library</text><line style="stroke: #00008B; stroke-width: 1.0; stroke-dasharray: 1.0,2.0;" x1="746.5" x2="850" y1="302.5117" y2="302.5117"/><rect fill="none" height="6" style="stroke: #C82930; stroke-width: 1.0;" width="6" x="614" y="445.8633"/><text fill="#000000" font-family="sans-serif" font-size="11" lengthAdjust="spacingAndGlyphs" textLength="51" x="626" y="451.1714">accounts</text><rect fill="none" height="6" style="stroke: #C82930; stroke-width: 1.0;" width="6" x="614" y="458.668"/><text fill="#000000" font-family="sans-serif" font-size="11" lengthAdjust="spacingAndGlyphs" textLength="36" x="626" y="463.9761">blocks</text><rect fill="none" height="6" style="stroke: #C82930; stroke-width: 1.0;" width="6" x="614" y="471.4727"/><text fill="#000000" font-family="sans-serif" font-size="11" lengthAdjust="spacingAndGlyphs" textLength="56" x="626" y="476.7808">delegates</text><rect fill="none" height="6" style="stroke: #C82930; stroke-width: 1.0;" width="6" x="614" y="484.2773"/><text fill="#000000" font-family="sans-serif" font-size="11" lengthAdjust="spacingAndGlyphs" textLength="36" x="626" y="489.5854">loader</text><rect fill="none" height="6" style="stroke: #C82930; stroke-width: 1.0;" width="6" x="614" y="497.082"/><text fill="#000000" font-family="sans-serif" font-size="11" lengthAdjust="spacingAndGlyphs" textLength="40" x="626" y="502.3901">rounds</text><rect fill="none" height="6" style="stroke: #C82930; stroke-width: 1.0;" width="6" x="614" y="509.8867"/><text fill="#000000" font-family="sans-serif" font-size="11" lengthAdjust="spacingAndGlyphs" textLength="71" x="626" y="515.1948">transactions</text><rect fill="none" height="6" style="stroke: #C82930; stroke-width: 1.0;" width="6" x="614" y="522.6914"/><text fill="#000000" font-family="sans-serif" font-size="11" lengthAdjust="spacingAndGlyphs" textLength="53" x="626" y="527.9995">transport</text><line style="stroke: #00008B; stroke-width: 1.0; stroke-dasharray: 1.0,2.0;" x1="607" x2="704" y1="434.5586" y2="434.5586"/><text fill="#000000" font-family="sans-serif" font-size="11" lengthAdjust="spacingAndGlyphs" textLength="49" x="704" y="437.8667">modules</text><line style="stroke: #00008B; stroke-width: 1.0; stroke-dasharray: 1.0,2.0;" x1="753" x2="850" y1="434.5586" y2="434.5586"/><ellipse cx="617" cy="555.3008" fill="#84BE84" rx="3" ry="3" style="stroke: #038048; stroke-width: 1.0;"/><text fill="#000000" font-family="sans-serif" font-size="11" lengthAdjust="spacingAndGlyphs" textLength="172" x="626" y="557.6089">Process (logger, block, peers,</text><text fill="#000000" font-family="sans-serif" font-size="11" lengthAdjust="spacingAndGlyphs" textLength="143" x="626" y="570.4136">transaction, schema, db,</text><text fill="#000000" font-family="sans-serif" font-size="11" lengthAdjust="spacingAndGlyphs" textLength="219" x="626" y="583.2183">dbSequence, sequence, genesisblock)</text><polygon fill="none" points="617,589.7148,613,595.7148,621,595.7148" style="stroke: #1963A0; stroke-width: 1.0;"/><text fill="#000000" font-family="sans-serif" font-size="11" lengthAdjust="spacingAndGlyphs" textLength="50" x="626" y="596.0229">PENDING</text><ellipse cx="617" cy="606.5195" fill="#84BE84" rx="3" ry="3" style="stroke: #038048; stroke-width: 1.0;"/><text fill="#000000" font-family="sans-serif" font-size="11" lengthAdjust="spacingAndGlyphs" textLength="85" x="626" y="608.8276">onBind (scope)</text><line style="stroke: #00008B; stroke-width: 1.0;" x1="607" x2="704.5" y1="540.9961" y2="540.9961"/><text fill="#000000" font-family="sans-serif" font-size="11" lengthAdjust="spacingAndGlyphs" textLength="48" x="704.5" y="544.3042">Methods</text><line style="stroke: #00008B; stroke-width: 1.0;" x1="752.5" x2="850" y1="540.9961" y2="540.9961"/><!--class Utils--><rect fill="url(#ghn2kyjvvkve90)" filter="url(#fhn2kyjvvkve9)" height="256.875" id="Utils" style="stroke: #00008B; stroke-width: 1.5;" width="208" x="886.25" y="294.5"/><ellipse cx="940.5" cy="310.5" fill="#ADD1B2" rx="11" ry="11" style="stroke: #00008B; stroke-width: 1.0;"/><path d="M943.4688,316.1406 Q942.8906,316.4375 942.25,316.5859 Q941.6094,316.7344 940.9063,316.7344 Q938.4063,316.7344 937.0859,315.0859 Q935.7656,313.4375 935.7656,310.3125 Q935.7656,307.1875 937.0859,305.5313 Q938.4063,303.875 940.9063,303.875 Q941.6094,303.875 942.2578,304.0313 Q942.9063,304.1875 943.4688,304.4844 L943.4688,307.2031 Q942.8438,306.625 942.25,306.3516 Q941.6563,306.0781 941.0313,306.0781 Q939.6875,306.0781 939,307.1484 Q938.3125,308.2188 938.3125,310.3125 Q938.3125,312.4063 939,313.4766 Q939.6875,314.5469 941.0313,314.5469 Q941.6563,314.5469 942.25,314.2734 Q942.8438,314 943.4688,313.4219 L943.4688,316.1406 Z "/><text fill="#000000" font-family="sans-serif" font-size="12" lengthAdjust="spacingAndGlyphs" textLength="27" x="961" y="314.6543">Utils</text><rect fill="#FFFFFF" height="15.9688" style="stroke: #000000; stroke-width: 1.0; stroke-dasharray: 2.0,2.0;" width="62" x="1035.25" y="291.5"/><text fill="#000000" font-family="sans-serif" font-size="12" font-style="italic" lengthAdjust="spacingAndGlyphs" textLength="52" x="1040.25" y="303.6387">modules</text><line style="stroke: #00008B; stroke-width: 1.5;" x1="887.25" x2="1093.25" y1="326.5" y2="326.5"/><rect fill="none" height="6" style="stroke: #C82930; stroke-width: 1.0;" width="6" x="894.25" y="335.4023"/><text fill="#000000" font-family="sans-serif" font-size="11" lengthAdjust="spacingAndGlyphs" textLength="21" x="906.25" y="340.7104">self</text><rect fill="none" height="6" style="stroke: #C82930; stroke-width: 1.0;" width="6" x="894.25" y="348.207"/><text fill="#000000" font-family="sans-serif" font-size="11" lengthAdjust="spacingAndGlyphs" textLength="73" x="906.25" y="353.5151">__private: {}</text><rect fill="none" height="6" style="stroke: #C82930; stroke-width: 1.0;" width="6" x="894.25" y="377.8164"/><text fill="#000000" font-family="sans-serif" font-size="11" lengthAdjust="spacingAndGlyphs" textLength="36" x="906.25" y="383.1245">logger</text><rect fill="none" height="6" style="stroke: #C82930; stroke-width: 1.0;" width="6" x="894.25" y="390.6211"/><text fill="#000000" font-family="sans-serif" font-size="11" lengthAdjust="spacingAndGlyphs" textLength="59" x="906.25" y="395.9292">logic.block</text><rect fill="none" height="6" style="stroke: #C82930; stroke-width: 1.0;" width="6" x="894.25" y="403.4258"/><text fill="#000000" font-family="sans-serif" font-size="11" lengthAdjust="spacingAndGlyphs" textLength="94" x="906.25" y="408.7339">logic.transaction</text><rect fill="none" height="6" style="stroke: #C82930; stroke-width: 1.0;" width="6" x="894.25" y="416.2305"/><text fill="#000000" font-family="sans-serif" font-size="11" lengthAdjust="spacingAndGlyphs" textLength="14" x="906.25" y="421.5386">db</text><rect fill="none" height="6" style="stroke: #C82930; stroke-width: 1.0;" width="6" x="894.25" y="429.0352"/><text fill="#000000" font-family="sans-serif" font-size="11" lengthAdjust="spacingAndGlyphs" textLength="70" x="906.25" y="434.3433">dbSequence</text><rect fill="none" height="6" style="stroke: #C82930; stroke-width: 1.0;" width="6" x="894.25" y="441.8398"/><text fill="#000000" font-family="sans-serif" font-size="11" lengthAdjust="spacingAndGlyphs" textLength="74" x="906.25" y="447.1479">genesisblock</text><line style="stroke: #00008B; stroke-width: 1.0; stroke-dasharray: 1.0,2.0;" x1="887.25" x2="972.25" y1="366.5117" y2="366.5117"/><text fill="#000000" font-family="sans-serif" font-size="11" lengthAdjust="spacingAndGlyphs" textLength="36" x="972.25" y="369.8198">library</text><line style="stroke: #00008B; stroke-width: 1.0; stroke-dasharray: 1.0,2.0;" x1="1008.25" x2="1093.25" y1="366.5117" y2="366.5117"/><rect fill="none" height="6" style="stroke: #C82930; stroke-width: 1.0;" width="6" x="894.25" y="471.4492"/><text fill="#000000" font-family="sans-serif" font-size="11" lengthAdjust="spacingAndGlyphs" textLength="36" x="906.25" y="476.7573">blocks</text><line style="stroke: #00008B; stroke-width: 1.0; stroke-dasharray: 1.0,2.0;" x1="887.25" x2="965.75" y1="460.1445" y2="460.1445"/><text fill="#000000" font-family="sans-serif" font-size="11" lengthAdjust="spacingAndGlyphs" textLength="49" x="965.75" y="463.4526">modules</text><line style="stroke: #00008B; stroke-width: 1.0; stroke-dasharray: 1.0,2.0;" x1="1014.75" x2="1093.25" y1="460.1445" y2="460.1445"/><ellipse cx="897.25" cy="504.0586" fill="#84BE84" rx="3" ry="3" style="stroke: #038048; stroke-width: 1.0;"/><text fill="#000000" font-family="sans-serif" font-size="11" lengthAdjust="spacingAndGlyphs" textLength="182" x="906.25" y="506.3667">Utils (logger, block, transaction,</text><text fill="#000000" font-family="sans-serif" font-size="11" lengthAdjust="spacingAndGlyphs" textLength="178" x="906.25" y="519.1714">db, dbSequence, genesisblock)</text><polygon fill="none" points="897.25,525.668,893.25,531.668,901.25,531.668" style="stroke: #1963A0; stroke-width: 1.0;"/><text fill="#000000" font-family="sans-serif" font-size="11" lengthAdjust="spacingAndGlyphs" textLength="50" x="906.25" y="531.9761">PENDING</text><ellipse cx="897.25" cy="542.4727" fill="#84BE84" rx="3" ry="3" style="stroke: #038048; stroke-width: 1.0;"/><text fill="#000000" font-family="sans-serif" font-size="11" lengthAdjust="spacingAndGlyphs" textLength="85" x="906.25" y="544.7808">onBind (scope)</text><line style="stroke: #00008B; stroke-width: 1.0;" x1="887.25" x2="966.25" y1="489.7539" y2="489.7539"/><text fill="#000000" font-family="sans-serif" font-size="11" lengthAdjust="spacingAndGlyphs" textLength="48" x="966.25" y="493.062">Methods</text><line style="stroke: #00008B; stroke-width: 1.0;" x1="1014.25" x2="1093.25" y1="489.7539" y2="489.7539"/><!--class Verify--><rect fill="url(#ghn2kyjvvkve90)" filter="url(#fhn2kyjvvkve9)" height="256.875" id="Verify" style="stroke: #00008B; stroke-width: 1.5;" width="237" x="1130" y="294.5"/><ellipse cx="1195.25" cy="310.5" fill="#ADD1B2" rx="11" ry="11" style="stroke: #00008B; stroke-width: 1.0;"/><path d="M1198.2188,316.1406 Q1197.6406,316.4375 1197,316.5859 Q1196.3594,316.7344 1195.6563,316.7344 Q1193.1563,316.7344 1191.8359,315.0859 Q1190.5156,313.4375 1190.5156,310.3125 Q1190.5156,307.1875 1191.8359,305.5313 Q1193.1563,303.875 1195.6563,303.875 Q1196.3594,303.875 1197.0078,304.0313 Q1197.6563,304.1875 1198.2188,304.4844 L1198.2188,307.2031 Q1197.5938,306.625 1197,306.3516 Q1196.4063,306.0781 1195.7813,306.0781 Q1194.4375,306.0781 1193.75,307.1484 Q1193.0625,308.2188 1193.0625,310.3125 Q1193.0625,312.4063 1193.75,313.4766 Q1194.4375,314.5469 1195.7813,314.5469 Q1196.4063,314.5469 1197,314.2734 Q1197.5938,314 1198.2188,313.4219 L1198.2188,316.1406 Z "/><text fill="#000000" font-family="sans-serif" font-size="12" lengthAdjust="spacingAndGlyphs" textLength="34" x="1215.75" y="314.6543">Verify</text><rect fill="#FFFFFF" height="15.9688" style="stroke: #000000; stroke-width: 1.0; stroke-dasharray: 2.0,2.0;" width="62" x="1308" y="291.5"/><text fill="#000000" font-family="sans-serif" font-size="12" font-style="italic" lengthAdjust="spacingAndGlyphs" textLength="52" x="1313" y="303.6387">modules</text><line style="stroke: #00008B; stroke-width: 1.5;" x1="1131" x2="1366" y1="326.5" y2="326.5"/><rect fill="none" height="6" style="stroke: #C82930; stroke-width: 1.0;" width="6" x="1138" y="335.4023"/><text fill="#000000" font-family="sans-serif" font-size="11" lengthAdjust="spacingAndGlyphs" textLength="21" x="1150" y="340.7104">self</text><rect fill="none" height="6" style="stroke: #C82930; stroke-width: 1.0;" width="6" x="1138" y="348.207"/><text fill="#000000" font-family="sans-serif" font-size="11" lengthAdjust="spacingAndGlyphs" textLength="73" x="1150" y="353.5151">__private: {}</text><rect fill="none" height="6" style="stroke: #C82930; stroke-width: 1.0;" width="6" x="1138" y="377.8164"/><text fill="#000000" font-family="sans-serif" font-size="11" lengthAdjust="spacingAndGlyphs" textLength="36" x="1150" y="383.1245">logger</text><rect fill="none" height="6" style="stroke: #C82930; stroke-width: 1.0;" width="6" x="1138" y="390.6211"/><text fill="#000000" font-family="sans-serif" font-size="11" lengthAdjust="spacingAndGlyphs" textLength="59" x="1150" y="395.9292">logic.block</text><rect fill="none" height="6" style="stroke: #C82930; stroke-width: 1.0;" width="6" x="1138" y="403.4258"/><text fill="#000000" font-family="sans-serif" font-size="11" lengthAdjust="spacingAndGlyphs" textLength="94" x="1150" y="408.7339">logic.transaction</text><rect fill="none" height="6" style="stroke: #C82930; stroke-width: 1.0;" width="6" x="1138" y="416.2305"/><text fill="#000000" font-family="sans-serif" font-size="11" lengthAdjust="spacingAndGlyphs" textLength="14" x="1150" y="421.5386">db</text><line style="stroke: #00008B; stroke-width: 1.0; stroke-dasharray: 1.0,2.0;" x1="1131" x2="1230.5" y1="366.5117" y2="366.5117"/><text fill="#000000" font-family="sans-serif" font-size="11" lengthAdjust="spacingAndGlyphs" textLength="36" x="1230.5" y="369.8198">library</text><line style="stroke: #00008B; stroke-width: 1.0; stroke-dasharray: 1.0,2.0;" x1="1266.5" x2="1366" y1="366.5117" y2="366.5117"/><rect fill="none" height="6" style="stroke: #C82930; stroke-width: 1.0;" width="6" x="1138" y="445.8398"/><text fill="#000000" font-family="sans-serif" font-size="11" lengthAdjust="spacingAndGlyphs" textLength="51" x="1150" y="451.1479">accounts</text><rect fill="none" height="6" style="stroke: #C82930; stroke-width: 1.0;" width="6" x="1138" y="458.6445"/><text fill="#000000" font-family="sans-serif" font-size="11" lengthAdjust="spacingAndGlyphs" textLength="36" x="1150" y="463.9526">blocks</text><rect fill="none" height="6" style="stroke: #C82930; stroke-width: 1.0;" width="6" x="1138" y="471.4492"/><text fill="#000000" font-family="sans-serif" font-size="11" lengthAdjust="spacingAndGlyphs" textLength="56" x="1150" y="476.7573">delegates</text><rect fill="none" height="6" style="stroke: #C82930; stroke-width: 1.0;" width="6" x="1138" y="484.2539"/><text fill="#000000" font-family="sans-serif" font-size="11" lengthAdjust="spacingAndGlyphs" textLength="71" x="1150" y="489.562">transactions</text><line style="stroke: #00008B; stroke-width: 1.0; stroke-dasharray: 1.0,2.0;" x1="1131" x2="1224" y1="434.5352" y2="434.5352"/><text fill="#000000" font-family="sans-serif" font-size="11" lengthAdjust="spacingAndGlyphs" textLength="49" x="1224" y="437.8433">modules</text><line style="stroke: #00008B; stroke-width: 1.0; stroke-dasharray: 1.0,2.0;" x1="1273" x2="1366" y1="434.5352" y2="434.5352"/><ellipse cx="1141" cy="516.8633" fill="#84BE84" rx="3" ry="3" style="stroke: #038048; stroke-width: 1.0;"/><text fill="#000000" font-family="sans-serif" font-size="11" lengthAdjust="spacingAndGlyphs" textLength="211" x="1150" y="519.1714">Verify (logger, block, transaction, db)</text><polygon fill="none" points="1141,525.668,1137,531.668,1145,531.668" style="stroke: #1963A0; stroke-width: 1.0;"/><text fill="#000000" font-family="sans-serif" font-size="11" lengthAdjust="spacingAndGlyphs" textLength="50" x="1150" y="531.9761">PENDING</text><ellipse cx="1141" cy="542.4727" fill="#84BE84" rx="3" ry="3" style="stroke: #038048; stroke-width: 1.0;"/><text fill="#000000" font-family="sans-serif" font-size="11" lengthAdjust="spacingAndGlyphs" textLength="85" x="1150" y="544.7808">onBind (scope)</text><line style="stroke: #00008B; stroke-width: 1.0;" x1="1131" x2="1224.5" y1="502.5586" y2="502.5586"/><text fill="#000000" font-family="sans-serif" font-size="11" lengthAdjust="spacingAndGlyphs" textLength="48" x="1224.5" y="505.8667">Methods</text><line style="stroke: #00008B; stroke-width: 1.0;" x1="1272.5" x2="1366" y1="502.5586" y2="502.5586"/><!--class Blocks--><rect fill="url(#ghn2kyjvvkve90)" filter="url(#fhn2kyjvvkve9)" height="144.0352" id="Blocks" style="stroke: #00008B; stroke-width: 1.5;" width="136" x="660.25" y="8"/><ellipse cx="675.25" cy="24" fill="#ADD1B2" rx="11" ry="11" style="stroke: #00008B; stroke-width: 1.0;"/><path d="M678.2188,29.6406 Q677.6406,29.9375 677,30.0859 Q676.3594,30.2344 675.6563,30.2344 Q673.1563,30.2344 671.8359,28.5859 Q670.5156,26.9375 670.5156,23.8125 Q670.5156,20.6875 671.8359,19.0313 Q673.1563,17.375 675.6563,17.375 Q676.3594,17.375 677.0078,17.5313 Q677.6563,17.6875 678.2188,17.9844 L678.2188,20.7031 Q677.5938,20.125 677,19.8516 Q676.4063,19.5781 675.7813,19.5781 Q674.4375,19.5781 673.75,20.6484 Q673.0625,21.7188 673.0625,23.8125 Q673.0625,25.9063 673.75,26.9766 Q674.4375,28.0469 675.7813,28.0469 Q676.4063,28.0469 677,27.7734 Q677.5938,27.5 678.2188,26.9219 L678.2188,29.6406 Z "/><text fill="#000000" font-family="sans-serif" font-size="12" lengthAdjust="spacingAndGlyphs" textLength="40" x="689.25" y="28.1543">Blocks</text><rect fill="#FFFFFF" height="15.9688" style="stroke: #000000; stroke-width: 1.0; stroke-dasharray: 2.0,2.0;" width="62" x="737.25" y="5"/><text fill="#000000" font-family="sans-serif" font-size="12" font-style="italic" lengthAdjust="spacingAndGlyphs" textLength="52" x="742.25" y="17.1387">modules</text><line style="stroke: #00008B; stroke-width: 1.5;" x1="661.25" x2="795.25" y1="40" y2="40"/><rect fill="none" height="6" style="stroke: #C82930; stroke-width: 1.0;" width="6" x="668.25" y="48.9023"/><text fill="#000000" font-family="sans-serif" font-size="11" lengthAdjust="spacingAndGlyphs" textLength="73" x="680.25" y="54.2104">__private: {}</text><rect fill="none" height="6" style="stroke: #C82930; stroke-width: 1.0;" width="6" x="668.25" y="61.707"/><text fill="#000000" font-family="sans-serif" font-size="11" lengthAdjust="spacingAndGlyphs" textLength="50" x="680.25" y="67.0151">self: this</text><line style="stroke: #00008B; stroke-width: 1.0; stroke-dasharray: 1.0,2.0;" x1="661.25" x2="680.75" y1="80.0117" y2="80.0117"/><text fill="#000000" font-family="sans-serif" font-size="11" lengthAdjust="spacingAndGlyphs" textLength="95" x="680.75" y="83.3198">this.submodules</text><line style="stroke: #00008B; stroke-width: 1.0; stroke-dasharray: 1.0,2.0;" x1="775.75" x2="795.25" y1="80.0117" y2="80.0117"/><rect fill="none" height="6" style="stroke: #C82930; stroke-width: 1.0;" width="6" x="668.25" y="110.5234"/><text fill="#000000" font-family="sans-serif" font-size="11" lengthAdjust="spacingAndGlyphs" textLength="36" x="680.25" y="115.8315">logger</text><line style="stroke: #00008B; stroke-width: 1.0; stroke-dasharray: 1.0,2.0;" x1="661.25" x2="710.25" y1="99.2188" y2="99.2188"/><text fill="#000000" font-family="sans-serif" font-size="11" lengthAdjust="spacingAndGlyphs" textLength="36" x="710.25" y="102.5269">library</text><line style="stroke: #00008B; stroke-width: 1.0; stroke-dasharray: 1.0,2.0;" x1="746.25" x2="795.25" y1="99.2188" y2="99.2188"/><ellipse cx="671.25" cy="143.1328" fill="#84BE84" rx="3" ry="3" style="stroke: #038048; stroke-width: 1.0;"/><text fill="#000000" font-family="sans-serif" font-size="11" lengthAdjust="spacingAndGlyphs" textLength="100" x="680.25" y="145.4409">Blocks(cb, scope)</text><line style="stroke: #00008B; stroke-width: 1.0;" x1="661.25" x2="704.25" y1="128.8281" y2="128.8281"/><text fill="#000000" font-family="sans-serif" font-size="11" lengthAdjust="spacingAndGlyphs" textLength="48" x="704.25" y="132.1362">Methods</text><line style="stroke: #00008B; stroke-width: 1.0;" x1="752.25" x2="795.25" y1="128.8281" y2="128.8281"/><!--link Blocks to API--><path d="M640.632,97.223 C550.117,117.151 407.845,157.582 304.25,230 C295.935,235.812 287.816,242.175 279.926,248.939 " fill="none" id="Blocks-API" style="stroke: #000000; stroke-width: 1.0;"/><polygon fill="none" points="639.222,90.367,660.241,93.049,642.137,104.06,639.222,90.367" style="stroke: #000000; stroke-width: 1.0;"/><text fill="#000000" font-family="sans-serif" font-size="13" lengthAdjust="spacingAndGlyphs" textLength="25" x="379.25" y="195.0669">new</text><!--link Blocks to Verify--><path d="M816.033,99.741 C898.73,120.744 1022.8,161.208 1111.25,230 C1134.2,247.849 1154.96,270.566 1172.97,294.078 " fill="none" id="Blocks-Verify" style="stroke: #000000; stroke-width: 1.0;"/><polygon fill="none" points="814.219,106.503,796.464,94.937,817.556,92.907,814.219,106.503" style="stroke: #000000; stroke-width: 1.0;"/><text fill="#000000" font-family="sans-serif" font-size="13" lengthAdjust="spacingAndGlyphs" textLength="25" x="1067.25" y="195.0669">new</text><!--link Blocks to Process--><path d="M728.25,172.293 C728.25,190.509 728.25,210.276 728.25,230.442 " fill="none" id="Blocks-Process" style="stroke: #000000; stroke-width: 1.0;"/><polygon fill="none" points="721.25,172.07,728.25,152.07,735.25,172.07,721.25,172.07" style="stroke: #000000; stroke-width: 1.0;"/><text fill="#000000" font-family="sans-serif" font-size="13" lengthAdjust="spacingAndGlyphs" textLength="25" x="729.25" y="195.0669">new</text><!--link Blocks to Utils--><path d="M810.068,163.387 C829.581,184.452 849.794,207.519 867.25,230 C882.909,250.168 898.486,272.361 913.028,294.279 " fill="none" id="Blocks-Utils" style="stroke: #000000; stroke-width: 1.0;"/><polygon fill="none" points="804.959,168.172,796.375,148.799,815.167,158.59,804.959,168.172" style="stroke: #000000; stroke-width: 1.0;"/><text fill="#000000" font-family="sans-serif" font-size="13" lengthAdjust="spacingAndGlyphs" textLength="25" x="844.25" y="195.0669">new</text><!--link Blocks to Chain--><path d="M645.98,165.11 C626.564,185.893 606.278,208.401 588.25,230 C577.889,242.413 567.389,255.5 557.033,268.768 " fill="none" id="Blocks-Chain" style="stroke: #000000; stroke-width: 1.0;"/><polygon fill="none" points="641.109,160.073,659.92,150.319,651.297,169.675,641.109,160.073" style="stroke: #000000; stroke-width: 1.0;"/><text fill="#000000" font-family="sans-serif" font-size="13" lengthAdjust="spacingAndGlyphs" textLength="25" x="630.25" y="195.0669">new</text><!--
@startuml
skinparam class {
	BackgroundColor AliceBlue|LightBlue
	ArrowColor Black
	BorderColor DarkBlue
}

class API < modules > {
  - self
  - blockReward: new BlockReward()
  - __private: {}
  + public var
  .. library ..
  - logger
  - db
  - logic.block
  - schema
  - dbSequence
  .. modules ..
  - system
  - blocks
  -
  - - Methods - -
  - method_Private()
  + API (logger, db, block, schema, dbSequence)
  - - API - -
  .. internal ..
  - api_Private()
  .. shared ..
  + api_Public()
}
class Chain < modules > {
  - self
  - __private: {}
  .. library ..
  - logic.block
  - logic.transaction
  - db
  - genesisblock
  - logger
  - bus
  - balancesSequence
  .. modules ..
  - accounts
  - blocks
  - rounds
  - transactions
  - - Methods - -
  + Chain (logger, block, transaction, db,
  genesisblock, bus, balancesSequence)
  ~ PENDING
  + onBind (scope)
}
class Process < modules > {
  - self
  - __private: {}
  .. library ..
  - logger
  - logic.peers
  - logic.transaction
  - logic.block
  - schema
  - db
  - dbSequence
  - sequence
  - genesisblock
  .. modules ..
  - accounts
  - blocks
  - delegates
  - loader
  - rounds
  - transactions
  - transport
  - - Methods - -
  + Process (logger, block, peers,
  transaction, schema, db,
  dbSequence, sequence, genesisblock)
  ~ PENDING
  + onBind (scope)
}
class Utils < modules > {
  - self
  - __private: {}
  .. library ..
  - logger
  - logic.block
  - logic.transaction
  - db
  - dbSequence
  - genesisblock
  .. modules ..
  - blocks
  - - Methods - -
  + Utils (logger, block, transaction,
  db, dbSequence, genesisblock)
  ~ PENDING
  + onBind (scope)
}
class Verify < modules > {
  - self
  - __private: {}
  .. library ..
  - logger
  - logic.block
  - logic.transaction
  - db
  .. modules ..
  - accounts
  - blocks
  - delegates
  - transactions
  - - Methods - -
  + Verify (logger, block, transaction, db)
  ~ PENDING
  + onBind (scope)
}

class Blocks < modules > {
  - __private: {}
  - self: this
  .. this.submodules ..
  .. library ..
  - logger
  - - Methods - -
  + Blocks(cb, scope)
}

Blocks ^- - API : new
Blocks ^- - Verify : new
Blocks ^- - Process : new
Blocks ^- - Utils : new
Blocks ^- - Chain : new

@enduml

PlantUML version 1.2017.12(Wed Apr 26 13:06:36 ART 2017)
(GPL source distribution)
Java Runtime: Java(TM) SE Runtime Environment
JVM: Java HotSpot(TM) 64-Bit Server VM
Java Version: 1.8.0_131-b11
Operating System: Linux
OS Version: 3.13.0-119-generic
Default Encoding: UTF-8
Language: en
Country: US
--></g></svg>