<?xml version="1.0" encoding="UTF-8" standalone="no"?><svg xmlns="http://www.w3.org/2000/svg" xmlns:xlink="http://www.w3.org/1999/xlink" contentScriptType="application/ecmascript" contentStyleType="text/css" height="142px" preserveAspectRatio="none" style="width:192px;height:142px;" version="1.1" viewBox="0 0 192 142" width="192px" zoomAndPan="magnify"><defs><linearGradient id="gwpga87fw9oyv0" x1="0%" x2="100%" y1="50%" y2="50%"><stop offset="0%" stop-color="#F0F8FF"/><stop offset="100%" stop-color="#ADD8E6"/></linearGradient><filter height="300%" id="fwpga87fw9oyv" width="300%" x="-1" y="-1"><feGaussianBlur result="blurOut" stdDeviation="2.0"/><feColorMatrix in="blurOut" result="blurOut2" type="matrix" values="0 0 0 0 0 0 0 0 0 0 0 0 0 0 0 0 0 0 .4 0"/><feOffset dx="4.0" dy="4.0" in="blurOut2" result="blurOut3"/><feBlend in="SourceGraphic" in2="blurOut3" mode="normal"/></filter></defs><g><!--class Crypto--><rect fill="url(#gwpga87fw9oyv0)" filter="url(#fwpga87fw9oyv)" height="124.8281" id="Crypto" style="stroke: #00008B; stroke-width: 1.5;" width="177" x="6" y="8.5"/><ellipse cx="42.15" cy="24.5" fill="#ADD1B2" rx="11" ry="11" style="stroke: #00008B; stroke-width: 1.0;"/><path d="M45.1188,30.1406 Q44.5406,30.4375 43.9,30.5859 Q43.2594,30.7344 42.5563,30.7344 Q40.0563,30.7344 38.7359,29.0859 Q37.4156,27.4375 37.4156,24.3125 Q37.4156,21.1875 38.7359,19.5313 Q40.0563,17.875 42.5563,17.875 Q43.2594,17.875 43.9078,18.0313 Q44.5563,18.1875 45.1188,18.4844 L45.1188,21.2031 Q44.4938,20.625 43.9,20.3516 Q43.3063,20.0781 42.6813,20.0781 Q41.3375,20.0781 40.65,21.1484 Q39.9625,22.2188 39.9625,24.3125 Q39.9625,26.4063 40.65,27.4766 Q41.3375,28.5469 42.6813,28.5469 Q43.3063,28.5469 43.9,28.2734 Q44.4938,28 45.1188,27.4219 L45.1188,30.1406 Z "/><text fill="#000000" font-family="sans-serif" font-size="12" lengthAdjust="spacingAndGlyphs" textLength="40" x="60.85" y="28.6543">Crypto</text><rect fill="#FFFFFF" height="15.9688" style="stroke: #000000; stroke-width: 1.0; stroke-dasharray: 2.0,2.0;" width="56" x="130" y="5.5"/><text fill="#000000" font-family="sans-serif" font-size="12" font-style="italic" lengthAdjust="spacingAndGlyphs" textLength="46" x="135" y="17.6387">module</text><line style="stroke: #00008B; stroke-width: 1.5;" x1="7" x2="182" y1="40.5" y2="40.5"/><rect fill="none" height="6" style="stroke: #C82930; stroke-width: 1.0;" width="6" x="14" y="49.4023"/><text fill="#000000" font-family="sans-serif" font-size="11" lengthAdjust="spacingAndGlyphs" textLength="73" x="26" y="54.7104">__private: {}</text><rect fill="none" height="6" style="stroke: #C82930; stroke-width: 1.0;" width="6" x="14" y="62.207"/><text fill="#000000" font-family="sans-serif" font-size="11" lengthAdjust="spacingAndGlyphs" textLength="50" x="26" y="67.5151">self: this</text><line style="stroke: #00008B; stroke-width: 1.0;" x1="7" x2="182" y1="74.1094" y2="74.1094"/><ellipse cx="17" cy="86.0117" fill="#84BE84" rx="3" ry="3" style="stroke: #038048; stroke-width: 1.0;"/><text fill="#000000" font-family="sans-serif" font-size="11" lengthAdjust="spacingAndGlyphs" textLength="104" x="26" y="88.3198">Crypto (cb, scope)</text><ellipse cx="17" cy="98.8164" fill="#84BE84" rx="3" ry="3" style="stroke: #038048; stroke-width: 1.0;"/><text fill="#000000" font-family="sans-serif" font-size="11" lengthAdjust="spacingAndGlyphs" textLength="151" x="26" y="101.1245">sandboxApi (call, args, cb)</text><ellipse cx="17" cy="111.6211" fill="#84BE84" rx="3" ry="3" style="stroke: #038048; stroke-width: 1.0;"/><text fill="#000000" font-family="sans-serif" font-size="11" lengthAdjust="spacingAndGlyphs" textLength="85" x="26" y="113.9292">onBind (scope)</text><ellipse cx="17" cy="124.4258" fill="#84BE84" rx="3" ry="3" style="stroke: #038048; stroke-width: 1.0;"/><text fill="#000000" font-family="sans-serif" font-size="11" lengthAdjust="spacingAndGlyphs" textLength="120" x="26" y="126.7339">onBlockchainReady ()</text><!--
@startuml
skinparam class {
	BackgroundColor AliceBlue|LightBlue
	ArrowColor Black
	BorderColor DarkBlue
}
class Crypto < module > {
  - __private: {}
  - self: this
  - -
  + Crypto (cb, scope)
  + sandboxApi (call, args, cb)
  + onBind (scope)
  + onBlockchainReady ()
}
@enduml

PlantUML version 1.2017.12(Wed Apr 26 13:06:36 ART 2017)
(GPL source distribution)
Java Runtime: Java(TM) SE Runtime Environment
JVM: Java HotSpot(TM) 64-Bit Server VM
Java Version: 1.8.0_131-b11
Operating System: Linux
OS Version: 3.13.0-119-generic
Default Encoding: UTF-8
Language: en
Country: US
--></g></svg>