<?xml version="1.0" encoding="UTF-8" standalone="no"?><svg xmlns="http://www.w3.org/2000/svg" xmlns:xlink="http://www.w3.org/1999/xlink" contentScriptType="application/ecmascript" contentStyleType="text/css" height="361px" preserveAspectRatio="none" style="width:226px;height:361px;" version="1.1" viewBox="0 0 226 361" width="226px" zoomAndPan="magnify"><defs><linearGradient id="g1clpgwzoa7qge0" x1="0%" x2="100%" y1="50%" y2="50%"><stop offset="0%" stop-color="#F0F8FF"/><stop offset="100%" stop-color="#ADD8E6"/></linearGradient><filter height="300%" id="f1clpgwzoa7qge" width="300%" x="-1" y="-1"><feGaussianBlur result="blurOut" stdDeviation="2.0"/><feColorMatrix in="blurOut" result="blurOut2" type="matrix" values="0 0 0 0 0 0 0 0 0 0 0 0 0 0 0 0 0 0 .4 0"/><feOffset dx="4.0" dy="4.0" in="blurOut2" result="blurOut3"/><feBlend in="SourceGraphic" in2="blurOut3" mode="normal"/></filter></defs><g><!--class Signatures--><rect fill="url(#g1clpgwzoa7qge0)" filter="url(#f1clpgwzoa7qge)" height="344.1055" id="Signatures" style="stroke: #00008B; stroke-width: 1.5;" width="211" x="6" y="8"/><ellipse cx="42.15" cy="24" fill="#ADD1B2" rx="11" ry="11" style="stroke: #00008B; stroke-width: 1.0;"/><path d="M45.1188,29.6406 Q44.5406,29.9375 43.9,30.0859 Q43.2594,30.2344 42.5563,30.2344 Q40.0563,30.2344 38.7359,28.5859 Q37.4156,26.9375 37.4156,23.8125 Q37.4156,20.6875 38.7359,19.0313 Q40.0563,17.375 42.5563,17.375 Q43.2594,17.375 43.9078,17.5313 Q44.5563,17.6875 45.1188,17.9844 L45.1188,20.7031 Q44.4938,20.125 43.9,19.8516 Q43.3063,19.5781 42.6813,19.5781 Q41.3375,19.5781 40.65,20.6484 Q39.9625,21.7188 39.9625,23.8125 Q39.9625,25.9063 40.65,26.9766 Q41.3375,28.0469 42.6813,28.0469 Q43.3063,28.0469 43.9,27.7734 Q44.4938,27.5 45.1188,26.9219 L45.1188,29.6406 Z "/><text fill="#000000" font-family="sans-serif" font-size="12" lengthAdjust="spacingAndGlyphs" textLength="68" x="60.85" y="28.1543">Signatures</text><rect fill="#FFFFFF" height="15.9688" style="stroke: #000000; stroke-width: 1.0; stroke-dasharray: 2.0,2.0;" width="62" x="158" y="5"/><text fill="#000000" font-family="sans-serif" font-size="12" font-style="italic" lengthAdjust="spacingAndGlyphs" textLength="52" x="163" y="17.1387">modules</text><line style="stroke: #00008B; stroke-width: 1.5;" x1="7" x2="216" y1="40" y2="40"/><rect fill="#F24D5C" height="6" style="stroke: #C82930; stroke-width: 1.0;" width="6" x="14" y="48.9023"/><text fill="#000000" font-family="sans-serif" font-size="11" lengthAdjust="spacingAndGlyphs" textLength="179" x="26" y="54.2104">assetTypes[1]: new Signature()</text><rect fill="none" height="6" style="stroke: #C82930; stroke-width: 1.0;" width="6" x="14" y="61.707"/><text fill="#000000" font-family="sans-serif" font-size="11" lengthAdjust="spacingAndGlyphs" textLength="73" x="26" y="67.0151">__private: {}</text><rect fill="none" height="6" style="stroke: #C82930; stroke-width: 1.0;" width="6" x="14" y="74.5117"/><text fill="#000000" font-family="sans-serif" font-size="11" lengthAdjust="spacingAndGlyphs" textLength="50" x="26" y="79.8198">self: this</text><rect fill="none" height="6" style="stroke: #C82930; stroke-width: 1.0;" width="6" x="14" y="104.1211"/><text fill="#000000" font-family="sans-serif" font-size="11" lengthAdjust="spacingAndGlyphs" textLength="45" x="26" y="109.4292">schema</text><rect fill="none" height="6" style="stroke: #C82930; stroke-width: 1.0;" width="6" x="14" y="116.9258"/><text fill="#000000" font-family="sans-serif" font-size="11" lengthAdjust="spacingAndGlyphs" textLength="14" x="26" y="122.2339">ed</text><rect fill="none" height="6" style="stroke: #C82930; stroke-width: 1.0;" width="6" x="14" y="129.7305"/><text fill="#000000" font-family="sans-serif" font-size="11" lengthAdjust="spacingAndGlyphs" textLength="107" x="26" y="135.0386">balancesSequence</text><rect fill="none" height="6" style="stroke: #C82930; stroke-width: 1.0;" width="6" x="14" y="142.5352"/><text fill="#000000" font-family="sans-serif" font-size="11" lengthAdjust="spacingAndGlyphs" textLength="94" x="26" y="147.8433">logic.transaction</text><line style="stroke: #00008B; stroke-width: 1.0; stroke-dasharray: 1.0,2.0;" x1="7" x2="93.5" y1="92.8164" y2="92.8164"/><text fill="#000000" font-family="sans-serif" font-size="11" lengthAdjust="spacingAndGlyphs" textLength="36" x="93.5" y="96.1245">library</text><line style="stroke: #00008B; stroke-width: 1.0; stroke-dasharray: 1.0,2.0;" x1="129.5" x2="216" y1="92.8164" y2="92.8164"/><rect fill="none" height="6" style="stroke: #C82930; stroke-width: 1.0;" width="6" x="14" y="172.1445"/><text fill="#000000" font-family="sans-serif" font-size="11" lengthAdjust="spacingAndGlyphs" textLength="51" x="26" y="177.4526">accounts</text><rect fill="none" height="6" style="stroke: #C82930; stroke-width: 1.0;" width="6" x="14" y="184.9492"/><text fill="#000000" font-family="sans-serif" font-size="11" lengthAdjust="spacingAndGlyphs" textLength="71" x="26" y="190.2573">transactions</text><line style="stroke: #00008B; stroke-width: 1.0; stroke-dasharray: 1.0,2.0;" x1="7" x2="87" y1="160.8398" y2="160.8398"/><text fill="#000000" font-family="sans-serif" font-size="11" lengthAdjust="spacingAndGlyphs" textLength="49" x="87" y="164.1479">modules</text><line style="stroke: #00008B; stroke-width: 1.0; stroke-dasharray: 1.0,2.0;" x1="136" x2="216" y1="160.8398" y2="160.8398"/><ellipse cx="17" cy="217.5586" fill="#84BE84" rx="3" ry="3" style="stroke: #038048; stroke-width: 1.0;"/><text fill="#000000" font-family="sans-serif" font-size="11" lengthAdjust="spacingAndGlyphs" textLength="129" x="26" y="219.8667">Signatures (cb, scope)</text><ellipse cx="17" cy="230.3633" fill="#84BE84" rx="3" ry="3" style="stroke: #038048; stroke-width: 1.0;"/><text fill="#000000" font-family="sans-serif" font-size="11" lengthAdjust="spacingAndGlyphs" textLength="63" x="26" y="232.6714">isLoaded ()</text><ellipse cx="17" cy="243.168" fill="#84BE84" rx="3" ry="3" style="stroke: #038048; stroke-width: 1.0;"/><text fill="#000000" font-family="sans-serif" font-size="11" lengthAdjust="spacingAndGlyphs" textLength="151" x="26" y="245.4761">sandboxApi (call, args, cb)</text><ellipse cx="17" cy="255.9727" fill="#84BE84" rx="3" ry="3" style="stroke: #038048; stroke-width: 1.0;"/><text fill="#000000" font-family="sans-serif" font-size="11" lengthAdjust="spacingAndGlyphs" textLength="85" x="26" y="258.2808">onBind (scope)</text><line style="stroke: #00008B; stroke-width: 1.0;" x1="7" x2="87.5" y1="203.2539" y2="203.2539"/><text fill="#000000" font-family="sans-serif" font-size="11" lengthAdjust="spacingAndGlyphs" textLength="48" x="87.5" y="206.562">Methods</text><line style="stroke: #00008B; stroke-width: 1.0;" x1="135.5" x2="216" y1="203.2539" y2="203.2539"/><line style="stroke: #00008B; stroke-width: 1.0;" x1="7" x2="103" y1="271.2773" y2="271.2773"/><text fill="#000000" font-family="sans-serif" font-size="11" lengthAdjust="spacingAndGlyphs" textLength="17" x="103" y="274.5854">API</text><line style="stroke: #00008B; stroke-width: 1.0;" x1="120" x2="216" y1="271.2773" y2="271.2773"/><ellipse cx="17" cy="304.7891" fill="#84BE84" rx="3" ry="3" style="stroke: #038048; stroke-width: 1.0;"/><text fill="#000000" font-family="sans-serif" font-size="11" lengthAdjust="spacingAndGlyphs" textLength="77" x="26" y="307.0972">getFee (*, cb)</text><ellipse cx="17" cy="317.5938" fill="#84BE84" rx="3" ry="3" style="stroke: #038048; stroke-width: 1.0;"/><text fill="#000000" font-family="sans-serif" font-size="11" lengthAdjust="spacingAndGlyphs" textLength="185" x="26" y="319.9019">addSignature (secret, publicKey,</text><text fill="#000000" font-family="sans-serif" font-size="11" lengthAdjust="spacingAndGlyphs" textLength="146" x="26" y="332.7065">multisigAccountPublicKey,</text><text fill="#000000" font-family="sans-serif" font-size="11" lengthAdjust="spacingAndGlyphs" textLength="103" x="26" y="345.5112">secondSecret, cb)</text><line style="stroke: #00008B; stroke-width: 1.0; stroke-dasharray: 1.0,2.0;" x1="7" x2="91.5" y1="290.4844" y2="290.4844"/><text fill="#000000" font-family="sans-serif" font-size="11" lengthAdjust="spacingAndGlyphs" textLength="40" x="91.5" y="293.7925">shared</text><line style="stroke: #00008B; stroke-width: 1.0; stroke-dasharray: 1.0,2.0;" x1="131.5" x2="216" y1="290.4844" y2="290.4844"/><!--
@startuml
skinparam class {
	BackgroundColor AliceBlue|LightBlue
	ArrowColor Black
	BorderColor DarkBlue
}
class Signatures < modules > {
  - assetTypes[1]: new Signature()
  - __private: {}
  - self: this
  .. library ..
  - schema
  - ed
  - balancesSequence
  - logic.transaction
  .. modules ..
  - accounts
  - transactions
  - - Methods - -
  + Signatures (cb, scope)
  + isLoaded ()
  + sandboxApi (call, args, cb)
  + onBind (scope)
  - - API - -
  .. shared ..
  + getFee (*, cb)
  + addSignature (secret, publicKey,
  multisigAccountPublicKey,
  secondSecret, cb)
}
@enduml

PlantUML version 1.2017.12(Wed Apr 26 13:06:36 ART 2017)
(GPL source distribution)
Java Runtime: Java(TM) SE Runtime Environment
JVM: Java HotSpot(TM) 64-Bit Server VM
Java Version: 1.8.0_131-b11
Operating System: Linux
OS Version: 3.13.0-119-generic
Default Encoding: UTF-8
Language: en
Country: US
--></g></svg>