<?xml version="1.0" encoding="UTF-8" standalone="no"?><svg xmlns="http://www.w3.org/2000/svg" xmlns:xlink="http://www.w3.org/1999/xlink" contentScriptType="application/ecmascript" contentStyleType="text/css" height="364px" preserveAspectRatio="none" style="width:228px;height:364px;" version="1.1" viewBox="0 0 228 364" width="228px" zoomAndPan="magnify"><defs><linearGradient id="g1f6qerjqp7dl0" x1="0%" x2="100%" y1="50%" y2="50%"><stop offset="0%" stop-color="#F0F8FF"/><stop offset="100%" stop-color="#ADD8E6"/></linearGradient><filter height="300%" id="f1f6qerjqp7dl" width="300%" x="-1" y="-1"><feGaussianBlur result="blurOut" stdDeviation="2.0"/><feColorMatrix in="blurOut" result="blurOut2" type="matrix" values="0 0 0 0 0 0 0 0 0 0 0 0 0 0 0 0 0 0 .4 0"/><feOffset dx="4.0" dy="4.0" in="blurOut2" result="blurOut3"/><feBlend in="SourceGraphic" in2="blurOut3" mode="normal"/></filter></defs><g><!--class Sql--><rect fill="url(#g1f6qerjqp7dl0)" filter="url(#f1f6qerjqp7dl)" height="346.5078" id="Sql" style="stroke: #00008B; stroke-width: 1.5;" width="213" x="6" y="8.5"/><ellipse cx="69.75" cy="24.5" fill="#ADD1B2" rx="11" ry="11" style="stroke: #00008B; stroke-width: 1.0;"/><path d="M72.7188,30.1406 Q72.1406,30.4375 71.5,30.5859 Q70.8594,30.7344 70.1563,30.7344 Q67.6563,30.7344 66.3359,29.0859 Q65.0156,27.4375 65.0156,24.3125 Q65.0156,21.1875 66.3359,19.5313 Q67.6563,17.875 70.1563,17.875 Q70.8594,17.875 71.5078,18.0313 Q72.1563,18.1875 72.7188,18.4844 L72.7188,21.2031 Q72.0938,20.625 71.5,20.3516 Q70.9063,20.0781 70.2813,20.0781 Q68.9375,20.0781 68.25,21.1484 Q67.5625,22.2188 67.5625,24.3125 Q67.5625,26.4063 68.25,27.4766 Q68.9375,28.5469 70.2813,28.5469 Q70.9063,28.5469 71.5,28.2734 Q72.0938,28 72.7188,27.4219 L72.7188,30.1406 Z "/><text fill="#000000" font-family="sans-serif" font-size="12" lengthAdjust="spacingAndGlyphs" textLength="19" x="90.25" y="28.6543">Sql</text><rect fill="#FFFFFF" height="15.9688" style="stroke: #000000; stroke-width: 1.0; stroke-dasharray: 2.0,2.0;" width="56" x="166" y="5.5"/><text fill="#000000" font-family="sans-serif" font-size="12" font-style="italic" lengthAdjust="spacingAndGlyphs" textLength="46" x="171" y="17.6387">module</text><line style="stroke: #00008B; stroke-width: 1.5;" x1="7" x2="218" y1="40.5" y2="40.5"/><rect fill="none" height="6" style="stroke: #C82930; stroke-width: 1.0;" width="6" x="14" y="49.4023"/><text fill="#000000" font-family="sans-serif" font-size="11" lengthAdjust="spacingAndGlyphs" textLength="73" x="26" y="54.7104">__private: {}</text><rect fill="none" height="6" style="stroke: #C82930; stroke-width: 1.0;" width="6" x="14" y="62.207"/><text fill="#000000" font-family="sans-serif" font-size="11" lengthAdjust="spacingAndGlyphs" textLength="50" x="26" y="67.5151">self: this</text><ellipse cx="17" cy="78.0117" fill="none" rx="3" ry="3" style="stroke: #038048; stroke-width: 1.0;"/><text fill="#000000" font-family="sans-serif" font-size="11" lengthAdjust="spacingAndGlyphs" textLength="62" x="26" y="80.3198">shared: {}</text><rect fill="none" height="6" style="stroke: #C82930; stroke-width: 1.0;" width="6" x="14" y="104.6211"/><text fill="#000000" font-family="sans-serif" font-size="11" lengthAdjust="spacingAndGlyphs" textLength="36" x="26" y="109.9292">logger</text><rect fill="none" height="6" style="stroke: #C82930; stroke-width: 1.0;" width="6" x="14" y="117.4258"/><text fill="#000000" font-family="sans-serif" font-size="11" lengthAdjust="spacingAndGlyphs" textLength="14" x="26" y="122.7339">db</text><line style="stroke: #00008B; stroke-width: 1.0; stroke-dasharray: 1.0,2.0;" x1="7" x2="94.5" y1="93.3164" y2="93.3164"/><text fill="#000000" font-family="sans-serif" font-size="11" lengthAdjust="spacingAndGlyphs" textLength="36" x="94.5" y="96.6245">library</text><line style="stroke: #00008B; stroke-width: 1.0; stroke-dasharray: 1.0,2.0;" x1="130.5" x2="218" y1="93.3164" y2="93.3164"/><ellipse cx="17" cy="150.0352" fill="#84BE84" rx="3" ry="3" style="stroke: #038048; stroke-width: 1.0;"/><text fill="#000000" font-family="sans-serif" font-size="11" lengthAdjust="spacingAndGlyphs" textLength="85" x="26" y="152.3433">Sql (cb, scope)</text><rect fill="#F24D5C" height="6" style="stroke: #C82930; stroke-width: 1.0;" width="6" x="14" y="159.8398"/><text fill="#000000" font-family="sans-serif" font-size="11" lengthAdjust="spacingAndGlyphs" textLength="80" x="26" y="165.1479">escape (what)</text><rect fill="#F24D5C" height="6" style="stroke: #C82930; stroke-width: 1.0;" width="6" x="14" y="172.6445"/><text fill="#000000" font-family="sans-serif" font-size="11" lengthAdjust="spacingAndGlyphs" textLength="76" x="26" y="177.9526">escape2 (str)</text><rect fill="#F24D5C" height="6" style="stroke: #C82930; stroke-width: 1.0;" width="6" x="14" y="185.4492"/><text fill="#000000" font-family="sans-serif" font-size="11" lengthAdjust="spacingAndGlyphs" textLength="103" x="26" y="190.7573">pass (obj, dappid)</text><rect fill="#F24D5C" height="6" style="stroke: #C82930; stroke-width: 1.0;" width="6" x="14" y="198.2539"/><text fill="#000000" font-family="sans-serif" font-size="11" lengthAdjust="spacingAndGlyphs" textLength="141" x="26" y="203.562">query (action, config, cb)</text><ellipse cx="17" cy="214.0586" fill="#84BE84" rx="3" ry="3" style="stroke: #038048; stroke-width: 1.0;"/><text fill="#000000" font-family="sans-serif" font-size="11" lengthAdjust="spacingAndGlyphs" textLength="187" x="26" y="216.3667">createTables (dappid, config, cb)</text><ellipse cx="17" cy="226.8633" fill="#84BE84" rx="3" ry="3" style="stroke: #038048; stroke-width: 1.0;"/><text fill="#000000" font-family="sans-serif" font-size="11" lengthAdjust="spacingAndGlyphs" textLength="177" x="26" y="229.1714">dropTables (dappid, config, cb)</text><ellipse cx="17" cy="239.668" fill="#84BE84" rx="3" ry="3" style="stroke: #038048; stroke-width: 1.0;"/><text fill="#000000" font-family="sans-serif" font-size="11" lengthAdjust="spacingAndGlyphs" textLength="151" x="26" y="241.9761">sandboxApi (call, args, cb)</text><ellipse cx="17" cy="252.4727" fill="#84BE84" rx="3" ry="3" style="stroke: #038048; stroke-width: 1.0;"/><text fill="#000000" font-family="sans-serif" font-size="11" lengthAdjust="spacingAndGlyphs" textLength="85" x="26" y="254.7808">onBind (scope)</text><ellipse cx="17" cy="265.2773" fill="#84BE84" rx="3" ry="3" style="stroke: #038048; stroke-width: 1.0;"/><text fill="#000000" font-family="sans-serif" font-size="11" lengthAdjust="spacingAndGlyphs" textLength="120" x="26" y="267.5854">onBlockchainReady ()</text><line style="stroke: #00008B; stroke-width: 1.0;" x1="7" x2="88.5" y1="135.7305" y2="135.7305"/><text fill="#000000" font-family="sans-serif" font-size="11" lengthAdjust="spacingAndGlyphs" textLength="48" x="88.5" y="139.0386">Methods</text><line style="stroke: #00008B; stroke-width: 1.0;" x1="136.5" x2="218" y1="135.7305" y2="135.7305"/><ellipse cx="17" cy="294.8867" fill="#84BE84" rx="3" ry="3" style="stroke: #038048; stroke-width: 1.0;"/><text fill="#000000" font-family="sans-serif" font-size="11" lengthAdjust="spacingAndGlyphs" textLength="140" x="26" y="297.1948">select (body, dappid, cb)</text><ellipse cx="17" cy="307.6914" fill="#84BE84" rx="3" ry="3" style="stroke: #038048; stroke-width: 1.0;"/><text fill="#000000" font-family="sans-serif" font-size="11" lengthAdjust="spacingAndGlyphs" textLength="137" x="26" y="309.9995">batch (body, dappid, cb)</text><ellipse cx="17" cy="320.4961" fill="#84BE84" rx="3" ry="3" style="stroke: #038048; stroke-width: 1.0;"/><text fill="#000000" font-family="sans-serif" font-size="11" lengthAdjust="spacingAndGlyphs" textLength="139" x="26" y="322.8042">insert (body, dappid, cb)</text><ellipse cx="17" cy="333.3008" fill="#84BE84" rx="3" ry="3" style="stroke: #038048; stroke-width: 1.0;"/><text fill="#000000" font-family="sans-serif" font-size="11" lengthAdjust="spacingAndGlyphs" textLength="145" x="26" y="335.6089">update (body, dappid, cb)</text><ellipse cx="17" cy="346.1055" fill="#84BE84" rx="3" ry="3" style="stroke: #038048; stroke-width: 1.0;"/><text fill="#000000" font-family="sans-serif" font-size="11" lengthAdjust="spacingAndGlyphs" textLength="149" x="26" y="348.4136">remove (body, dappid, cb)</text><line style="stroke: #00008B; stroke-width: 1.0; stroke-dasharray: 1.0,2.0;" x1="7" x2="92.5" y1="280.582" y2="280.582"/><text fill="#000000" font-family="sans-serif" font-size="11" lengthAdjust="spacingAndGlyphs" textLength="40" x="92.5" y="283.8901">shared</text><line style="stroke: #00008B; stroke-width: 1.0; stroke-dasharray: 1.0,2.0;" x1="132.5" x2="218" y1="280.582" y2="280.582"/><!--
@startuml
skinparam class {
	BackgroundColor AliceBlue|LightBlue
	ArrowColor Black
	BorderColor DarkBlue
}
class Sql < module > {
  - __private: {}
  - self: this
  + shared: {}
  .. library ..
  - logger
  - db
  - - Methods - -
  + Sql (cb, scope)
  - escape (what)
  - escape2 (str)
  - pass (obj, dappid)
  - query (action, config, cb)
  + createTables (dappid, config, cb)
  + dropTables (dappid, config, cb)
  + sandboxApi (call, args, cb)
  + onBind (scope)
  + onBlockchainReady ()
  .. shared ..
  + select (body, dappid, cb)
  + batch (body, dappid, cb)
  + insert (body, dappid, cb)
  + update (body, dappid, cb)
  + remove (body, dappid, cb)
}
@enduml

PlantUML version 1.2017.12(Wed Apr 26 13:06:36 ART 2017)
(GPL source distribution)
Java Runtime: Java(TM) SE Runtime Environment
JVM: Java HotSpot(TM) 64-Bit Server VM
Java Version: 1.8.0_131-b11
Operating System: Linux
OS Version: 3.13.0-119-generic
Default Encoding: UTF-8
Language: en
Country: US
--></g></svg>